<svg version="1.2" xmlns="http://www.w3.org/2000/svg" viewBox="0 0 2372 1898" width="2372" height="1898">
	<style>
		.s0 { fill: #f8b358 } 
		.s1 { fill: #b78c33 } 
		.s2 { fill: #d08546 } 
		.s3 { fill: #66a443 } 
		.s4 { fill: #31803d } 
		.s5 { fill: #a84a59 } 
		.s6 { fill: #ec8dba } 
		.s7 { fill: #bc6fa2 } 
		.s8 { fill: #a83836 } 
		.s9 { fill: #7a3236 } 
		.s10 { fill: #ef4d33 } 
		.s11 { fill: #f5bc46 } 
		.s12 { fill: #f7d776 } 
		.s13 { fill: #c14a2d } 
		.s14 { fill: #cb6c49 } 
		.s15 { fill: #8e3226 } 
		.s16 { fill: #fcce71 } 
		.s17 { fill: #b47626 } 
	</style>
	<g id="_Artboards_">
	</g>
	<g id="Capa 1">
		<path id="&lt;Path&gt;" class="s0" d="m2256.97 865.88c-12.55-15.92-31.07-20.97-51.58-25.56q-3.81-0.85-7.69-1.71c0.29-17.73-2.58-35.44-9.77-52.66-34.31-82.22-128.7-152.47-204.4-190.99-142.2-72.37-313.54-102.28-468.26-135.1-177.57-37.67-348.27-93.56-523.5-138.86-181.06-46.82-444.35-161.52-586.43-8.35-13.03 14.04-25.04 30.34-35.87 49.14-84.89 147.39-105.61 322.12-144.6 483.98-36.24 150.48-104.41 299.34-119.84 454.27-7.32 73.58 15.18 130.98 75.02 159.8 1.5 27.89 3.8 55.64 7.17 83.25 2.6 23.42 3.68 55.87 24.79 73.31 8.88 7.35 24.34 11.63 42.55 13.93 41.93 5.51 99.33 0.92 130.85 0 75.76-1.99 152.28-7.66 228.49-17.15 85.25-10.55 288.34-31.21 337-107.73 70.71 45.76 143.86 89.22 221.3 127.79 24.03 12.08 55.4 30.45 88.15 28.31 13.78-0.92 29.69-7.2 46.22-16.53 37.65-21.12 78.05-56.93 101.78-75.76 56.93-44.99 110.95-92.59 161.3-142.17 28.77-28.32 78.67-75.76 116.47-125.19 117.38-5.97 235.07-14.85 351.23-31.68 28.01-3.98 66.57-7.65 89.22-23.87 9.64-6.89 16.22-17.91 20.97-30.77 10.71-29.38 11.32-68.72 13.62-90.44 5.36-52.19 6.43-104.38 3.22-156.26q-0.47-7.8-0.93-17.45c8.11-3.97 17.3-6.73 27.09-8.26 21.28-3.37 47.75-5.67 64.28-20.81 20.82-19.29 13.47-42.1 2.15-56.48z"/>
		<path id="&lt;Path&gt;" class="s1" d="m1866.58 803.06c-4.58-8.77-7.84-18.25-11.6-27.3-0.47-1.13-0.97-2.3-1.46-3.45-7.18-16.96-16.17-35.86-25.47-51.56-14.38-24.3-35.68-45.43-52.4-68.42-11.59-15.95-24.89-36.92-39.4-54.54-7.93-9.63-16.22-18.27-24.8-24.52 4.07 5.06 6.08 10.83 9.32 16.46 1.53 2.66 3.14 5.24 4.73 7.82q3.09 5 6.28 9.89c3.7 5.67 7.43 11.32 11.11 17.03 1.61 2.5 3.23 4.99 4.79 7.53 8.76 14.23 15.93 28.83 25.46 42.72 6.87 10 15.61 17.71 22.16 27.94 7.75 12.1 13.98 24.98 22.96 36.38 8.93 11.33 17.46 22.92 25.99 34.52 7.53 10.23 15.07 20.48 22.9 30.55z"/>
		<path id="&lt;Path&gt;" class="s1" d="m1502.93 881.23q-1.7-6.03-3.52-12.25c-9.34-31.93-20.93-67.28-33.13-97.8-19.97-49.95-50.72-98.2-74.34-147.17-16.23-33.65-34.62-76.76-55.08-114.95-11.48-21.43-23.6-41.34-36.38-57.1 5.78 10.98 8.4 22.08 12.89 33.6 2.61 6.71 5.34 13.31 8.11 19.87 9.62 22.82 19.97 45.05 29.52 68.08 12.21 29.45 21.96 58.67 35.38 87.94 9.67 21.08 22.35 39.2 31.51 60.5 10.84 25.21 19.31 50.95 32.08 75.61 13.7 26.46 26.68 53.18 39.71 79.89 9.7 19.89 19.42 39.78 29.54 59.55q-0.39-1.06-0.76-2.13c-6.3-17.69-10.52-35.91-15.53-53.64z"/>
		<path id="&lt;Path&gt;" class="s1" d="m1156.18 959.08c-7.73-28.36-16.74-59.52-26.33-90.36-7.22-23.22-14.75-46.27-22.37-67.79-25.7-72.63-62.85-145.69-92.39-217.92-15.09-36.9-31.92-81.19-49.92-124.84-4.7-11.4-9.48-22.74-14.33-33.91q-6.86-15.81-13.91-30.95c-11.3-24.26-22.91-46.92-34.75-66.2 7.15 16.32 10.9 32 16.69 48.72 1.1 3.18 2.28 6.29 3.4 9.45 6.31 17.79 12.86 35.36 19.53 52.85q2.73 7.19 5.48 14.37c6.56 17.19 13.14 34.39 19.49 51.84 15.61 42.92 28.57 84.93 45.47 127.91 12.18 30.97 27.35 58.69 39 89.84 2.49 6.64 4.87 13.28 7.24 19.92q1.93 5.41 3.83 10.82c9.34 26.62 18.4 53.23 29.82 79.65 4.87 11.26 9.6 22.56 14.36 33.85 24.19 57.35 47.32 114.93 71.9 172.33q-0.51-1.55-1.01-3.08c-8.26-25.53-14.33-51.24-21.2-76.5z"/>
		<path id="&lt;Path&gt;" class="s1" d="m817.27 861.46c-13.09-43.86-29.82-84.9-44.61-127.58-9.4-27.16-16-53.98-23.79-81.07-2.56-8.87-5.24-17.79-8.2-26.74-5.43-16.42-11.11-32.44-16.89-48.32-11.95-32.79-24.39-64.88-36.21-98.17-17.69-49.77-33.33-99.14-51.69-148.71-5.2-14.04-10.84-26.8-15.75-40.39-1.76-4.86-3.44-9.81-4.96-14.98 0.81 4.83 1.75 9.8 2.72 14.82 17.27 89.16 59.57 206.81 87.08 293.58 0.8 2.5 1.55 5.05 2.33 7.56 8.2 26.23 15.99 52.97 23.68 79.85 5.84 20.4 11.68 40.83 17.63 61.18q3.53 12.1 7.14 24.13c8.91 29.67 18.21 58.98 28.51 87.27 20.87 57.36 47.56 121.82 71.29 175.86 5.25 11.95 10.66 23.87 16.04 35.89 6.97 15.6 13.88 31.34 20.21 47.54q0.67 1.73 1.34 3.46c-5.1-16.91-10.31-33.75-15.53-50.57-20.14-64.92-40.89-129.4-60.34-194.61z"/>
		<path id="&lt;Path&gt;" class="s1" d="m308.08 865.76c-0.71-14.39-0.85-28.61-1.19-42.86-0.25-10.43-0.59-20.88-1.41-31.43-0.74-9.6-3-18.33-2.35-27.94-10.41 31.49-10.88 74.82-10.89 113.6 0 13.11 0.05 25.72-0.22 37.16q-0.04 1.08-0.09 2.16c-0.26 9.45-0.83 18.97-1.56 28.54-2.45 32.46-6.41 65.36-4.32 97.08 1.89 28.84 7.08 61.86 12.72 89.8 2.63 13.06 5.98 26.21 7.81 39.56 0.17 1.17 0.39 2.33 0.52 3.51q0.1 0.87 0.19 1.75c0.1-1.78 0.14-3.57 0.23-5.36 1.89-38.51 2.06-76.88 4.36-115.35 1.28-21.51-1.78-42.48-2.48-63.79-0.59-18.01 3.35-34.82 3.31-52.82-0.05-24.99-3.4-48.85-4.63-73.61z"/>
		<path id="&lt;Path&gt;" class="s1" d="m559.37 1018.88c-6.91-28.51-13.75-57.05-20.25-85.73q-0.48-2.05-0.96-4.1c-8.94-39.6-21.75-76.8-32.48-115.4-9.07-32.62-13.28-64.52-21.82-97.32-11.86-45.52-26.31-87.88-39.17-132.57-11.32-39.35-21.22-78.36-32.62-117.52-1.65-5.67-3.23-11.33-4.96-17-0.58-1.94-1.22-3.78-1.83-5.68-3.85-11.92-7.92-23.22-11.22-35.23-0.83-3.03-1.68-6.05-2.38-9.22 0.31 3.77 0.74 7.67 1.16 11.57 1.03 9.55 2.38 19.48 4 29.7q2.08 13.23 4.7 27.02c13.28 69.8 35.69 148.55 50.83 210.02 19 77.17 32.36 159.57 54.7 234.77 3.35 11.27 6.97 22.88 10.73 34.6 8.14 25.41 17.04 51.41 26.02 76.52 5.97 16.68 11.96 32.98 17.76 48.31 4.39 11.61 8.98 23.21 13.49 34.9 5.17 13.41 10.24 26.94 14.76 40.82q0.52 1.57 1.02 3.14c-3.48-15.14-7.06-30.22-10.66-45.29-6.88-28.81-13.86-57.56-20.82-86.31z"/>
		<path id="&lt;Path&gt;" class="s2" d="m154.62 1342.3c12.25-7.95 27.09-20.2 17.15-30.15-1.54-1.53-3.52-2.6-5.82-3.52 0.61-0.46 1.22-0.76 1.84-1.07q1.03-0.54 2.08-1.07-1.02 0.51-2.05 1.03c-71.73 37.31-39.89 101.22 11.31 133.14q-1.16-28.41-1.4-57.03c-12.39-2-23.11-5.97-30.45-13.63-9.34-9.64-6.58-18.21 7.34-27.7z"/>
		<path id="&lt;Path&gt;" class="s2" d="m2160.07 790.06c-12.22-10.01-27.08-13.27-42.82-12.46 8.57 10.71 15.45 23.09 20.95 36.71 8.11 6.42 17.91 11.94 29.39 16.06 5.17 1.87 10.36 3.37 15.54 4.72-1.44-17.19-8.19-32.86-23.06-45.03z"/>
		<path id="&lt;Path&gt;" class="s3" d="m1180.62 1330.36c-0.62 1.53-1.53 2.91-2.3 4.44-3.67 6.58-7.95 12.86-12.7 18.83-8.26 10.25-18.06 19.59-29.08 28-21.42 16.38-47.75 29.39-77.28 38.73-31.84 9.94-67.34 15.3-104.07 15.76-5.05 0.15-9.95 0-15-0.16-4.9-0.15-9.64-0.3-14.54-0.61-1.68-0.15-3.37-0.3-4.9-0.3l-0.3-0.16c-3.22-0.15-6.28-0.46-9.34-0.76-5.97-0.61-11.78-1.23-17.6-2.15l-0.31-0.15c-15.3-2.14-30.76-5.2-45.91-9.33-15.61-4.14-30.45-9.19-44.23-15l-0.61-0.31c-28.62-11.94-53.26-26.94-73-43.92-14.38 28.77-31.37 56.93-50.5 83.25-13.62 18.37-28.16 35.97-43.77 52.19-1.38 1.53-2.76 3.06-4.29 4.44 37.34-0.31 66.27-25.41 104.68-9.49 27.09 11.02 48.21 28.46 87.08 19.9 24.18-5.36 39.95-20.36 49.44-35.66 3.52-5.51 7.65-11.17 12.7-16.38 6.73-7.19 15.3-13.62 26.02-17.91 0.61-0.3 1.22-0.45 1.83-0.76 5.05-1.99 9.64-3.06 13.78-3.52h0.61c11.02-0.92 19.43 2.75 29.08 7.65l1.22 0.62c16.53 8.56 34.13 21.27 60.15 13.61 32.75-9.64 39.79-50.5 78.04-46.06 18.68 2.14 23.88 6.43 39.65-8.42 16.98-15.76 16.37-19.89 42.08-19.13 20.05 0.77 16.53-12.4 33.36-17.9 7.66-2.61 14.54-1.84 21.28-0.61-1.84-1.08-3.52-2.3-5.36-3.53-15.76-10.71-31.22-22.49-45.91-35.2z"/>
		<path id="&lt;Path&gt;" class="s3" d="m223.8 1340.62l-0.61-0.46c-2.14-1.69-3.68-3.52-5.05-5.66-1.84-2.91-3.06-6.13-3.52-9.64 0-0.62-0.16-1.23-0.16-1.99-0.76-6.28 0.62-13.63 3.52-21.43v-0.15c1.69-4.6 4.14-9.49 7.04-14.39v-0.15c1.07-1.84 2.3-3.67 3.52-5.67-1.07 0.31-2.29 0.77-3.36 1.08-1.28 0.45-2.52 0.97-3.8 1.44q-2.23 0.83-4.45 1.69c-1.94 0.76-3.93 1.46-5.83 2.22-0.68 0.27-1.33 0.58-2 0.86-10.19 4.16-20.14 8.69-30.08 13.51l-0.37 0.17h-0.15c-2.83 1.48-5.75 2.96-8.63 4.44q-1.05 0.53-2.08 1.07c-0.62 0.31-1.23 0.61-1.84 1.07 2.3 0.92 4.28 1.99 5.82 3.52 9.94 9.95-4.9 22.2-17.15 30.15-13.92 9.49-16.68 18.06-7.34 27.7 7.34 7.66 18.06 11.63 30.45 13.63 10.1 1.68 21.12 2.14 32.14 2.29 4.59 0.15 9.34 0.3 13.78 0.3 5.81 0.16 11.32 0.31 16.68 0.77 11.32 0.76 20.35 2.14 27.39 4.13 1.84-16.83 5.66-33.52 9.95-49.59q1.38-5.04 2.76-10.09c0.6-2.14 1.53-5.05 2.6-8.27q-4.6 4.13-9.19 7.81c-18.51 14.07-37.34 19.13-50.04 9.64z"/>
		<path id="&lt;Path&gt;" class="s3" d="m686.29 1309.55c-1.99-3.67-3.52-7.34-4.9-11.02-18.36 7.35-43.92-8.72-63.66-35.5-10.41-14.09-17.29-28.62-19.44-41.33-7.04 0.77-14.08 1.69-20.96 2.45-1.23 2.15-2.3 4.29-3.52 6.58-8.88 16.84-13.17 35.81-20.97 52.96-3.83 8.41-7.81 16.83-11.79 25.1-10.09 21.57-19.89 43-27.08 65.8-4.14 13.16-9.34 25.87-15.31 38.42-9.64 21.12-21.12 41.62-31.22 62.59 20.97 18.06 52.8 17.9 87.85-0.76 15.46-8.11 31.68-20.05 47.75-35.51 11.63-11.17 22.49-23.41 32.44-36.57 21.73-28.62 39.18-61.07 50.81-93.21z"/>
		<path id="&lt;Path&gt;" class="s3" d="m2256.97 865.88c-12.55-15.92-31.07-20.97-51.58-25.56q-3.81-0.85-7.69-1.71-7.22-1.61-14.57-3.52c-5.18-1.35-10.37-2.85-15.54-4.72-11.48-4.12-21.27-9.64-29.39-16.06-12.85-10.1-22.04-22.5-28.46-36.12q-4.41 0.64-8.89 1.57-1.16 0.24-2.34 0.5c-0.6 0.13-1.18 0.23-1.78 0.38 8.72 6.12 15.15 13 18.21 20.35 0.46 0.92 0.77 1.84 1.07 2.75 0.62 2.15 1.07 4.44 1.07 6.59 0 2.44-0.3 4.9-1.07 7.34-1.22 3.52-3.06 6.73-5.66 9.19-2.6 2.75-5.97 4.89-9.95 6.42-1.83 0.92-3.98 1.53-6.12 1.99 4.13 3.67 7.8 7.5 11.48 11.48 8.11 9.18 15.15 18.98 20.51 29.39l0.3 0.61c12.55 24.49 15.77 49.58 10.56 73.91l-1.22 5.06v0.15l-0.31 1.23-5.51 23.71c1.53-2.75 3.52-5.66 6.28-8.87l0.61-0.61c7.04-8.42 16.07-15.15 26.47-19.9 8.11-3.97 17.3-6.73 27.09-8.26 21.28-3.37 47.75-5.67 64.28-20.81 20.82-19.29 13.47-42.1 2.15-56.48z"/>
		<path id="&lt;Path&gt;" class="s3" d="m1386.61 1238.54c-0.92-8.26-2.6-16.84-4.89-25.71v-0.15c-10.87-10.26-21.43-20.97-30.76-32.6-20.82-26.02-45.15-47.45-69.18-70.56-2.3-2.29-4.59-4.59-6.89-7.03-1.58 0.61-3.11 1.06-4.64 1.57-1.15 0.39-2.29 0.85-3.47 1.18h-0.15c-0.84 0.31-1.73 0.59-2.61 0.8l-1.22 0.27c13.47 13.93 21.74 28.62 21.74 41.17 0 1.68-0.16 3.21-0.46 4.74-0.16 1.54-0.62 2.91-1.23 4.29-0.92 2.45-2.29 4.59-3.98 6.58-8.57 9.95-23.26 11.02-39.79 5.51-11.32-3.98-23.41-10.87-35.05-20.2-7.8-6.28-14.38-12.86-19.74-19.44-0.97 0.26-1.89 0.46-2.85 0.71-1.93 0.5-3.88 1.02-5.72 1.44-8.95 2.29-17.78 4.47-26.61 6.65-1.73 0.42-3.49 0.87-5.22 1.3q-1.93 0.4-3.82 0.84c-1.72 0.4-3.44 0.8-5.21 1.15-6.12 1.53-12.25 2.91-18.37 4.28q-1.22 0.28-2.38 0.56-0.78 0.18-1.6 0.37l0.46 0.76v0.16c1.84 4.58 3.98 8.87 6.28 13.46 3.36 6.89 7.19 13.78 11.17 20.51l0.15 0.3v0.16c7.35 12.09 15.46 23.87 24.49 35.5l0.15 0.15c5.82 7.66 12.25 15.31 18.98 22.5 3.52 3.83 7.04 7.5 10.71 11.18 1.69 1.83 3.52 3.52 5.36 5.2 2.29 2.29 4.74 4.59 7.19 6.89 1.38 1.22 2.76 2.29 3.98 3.51 9.8 8.58 20.05 16.38 30.61 23.57 17.91 12.1 35.35 20.82 51.57 26.33 4.44 1.53 8.88 2.9 13.17 3.82 0-1.37 0-2.75-0.15-3.98-1.08-19.28-7.05-29.38 12.09-48.21l0.91-0.91c7.96 8.11 15.46 17.6 27.24 17.45 13.63 0 33.52-13.02 49.44-17.76 0.3-1.99 0.45-3.98 0.61-5.97 0.46-5.51 0.46-11.32 0-17.14-0.16-1.68-0.31-3.36-0.31-5.2z"/>
		<path id="&lt;Path&gt;" class="s3" d="m986.26 1184.67c0.91 1.68 2.44 3.36 4.43 5.05l0.31 0.3c9.49 8.12 22.96 10.56 37.95 10.87h0.02 0.14c11.45 0.15 23.81-1.06 35.57-1.98l0.09-0.01h0.15c1.38-0.15 2.75-0.3 3.98-0.3q-8.27-13.78-15.61-27.56c-1.99-3.82-3.98-7.49-5.82-11.32-10.1 1.99-20.2 3.98-30.3 5.66l-0.46 0.16h-0.15c-6.36 1.18-12.56 2.35-18.77 3.4l-0.67 0.12-1.06 0.18c-2.67 0.51-5.27 0.94-7.97 1.35l-0.92 0.15c-2.29 3.37-3.06 6.58-2.45 9.64 0 1.38 0.62 2.91 1.54 4.29z"/>
		<path id="&lt;Path&gt;" class="s3" d="m2126.42 1006.99c-0.61-2.61-1.07-5.2-1.07-7.81-2.14 7.5-5.36 14.85-9.19 21.89-10.1 19.13-25.55 37.03-45.3 52.95-2.45 1.99-5.05 3.98-7.65 5.81 13.32-0.3 25.87 4.9 40.1-3.52 12.24-7.03 19.44-16.52 23.11-26.47 3.83-9.95 4.13-20.2 2.75-28.77-0.92-5.21-1.98-9.8-2.75-14.08z"/>
		<path id="&lt;Path&gt;" class="s3" d="m1610.36 985.87c-2.03 0.58-4.06 1.3-6.09 2.03l-0.34 0.11c2.45 1.68 4.75 3.37 7.2 5.35-0.31-2.44-0.62-5.05-0.77-7.49z"/>
		<path id="&lt;Path&gt;" class="s3" d="m1680.61 1188.95c-28.47-14.08-55.56-30.45-80.65-48.51 8.26 30.92 6.88 64.43-8.27 93.81-3.37 6.43-7.19 12.25-11.48 17.76 2.76 0.46 5.51 1.07 8.42 1.98 23.57 6.89 43.31 18.83 71.32 15.01 4.89-0.62 10.1-1.69 15.61-3.52 0.61 0 1.22-0.31 1.83-0.47 23.57-7.8 37.65-24.18 45.61-40.4 2.3-4.44 4.9-9.03 8.11-13.62-11.78-4.44-23.57-9.33-35.05-14.69-5.2-2.3-10.4-4.75-15.45-7.35z"/>
		<path id="&lt;Path&gt;" class="s3" d="m1870.99 1139.67c-89.99 2.45-175.08-25.55-222.52-74.07h-0.15v0.16c-1.08 2.29-2.61 4.28-4.44 6.11-5.82 5.67-13.62 7.81-22.5 6.89 38.87 34.74 90.6 63.36 143.1 76.53 54.63 13.61 97.94 7.19 121.05-13.78 0.77-0.92 1.68-1.68 2.45-2.6-5.51 0.31-11.02 0.61-16.53 0.76z"/>
		<path id="&lt;Path&gt;" class="s4" d="m283.03 1323.17q-4.6 4.13-9.19 7.81c1.54 3.52 2.76 7.04 3.83 10.55q1.38-5.04 2.76-10.09c0.6-2.14 1.53-5.05 2.6-8.27z"/>
		<path id="&lt;Path&gt;" class="s4" d="m635.18 1498.71c5.97 0 12.24-0.61 18.52-2.3 14.69-3.82 28.77-9.33 43.76-11.02 9.95-1.22 18.37-0.3 28.01-0.61-3.52 0-8.88-7.5-10.71-9.18-4.44-3.67-9.03-7.04-13.62-10.71-7.66-5.97-15-12.09-22.19-18.37-13.62 18.37-28.16 35.97-43.77 52.19z"/>
		<path id="&lt;Path&gt;" class="s4" d="m555.29 1474.84c15.46-8.11 31.68-20.05 47.75-35.51 11.63-11.17 22.49-23.41 32.44-36.57-21.12-21.13-43-41.64-63.82-62.91-10.25-10.4-20.35-20.66-30.61-31.06-10.09 21.57-19.89 43-27.08 65.8-4.14 13.16-9.34 25.87-15.31 38.42 5.67 7.19 11.33 14.23 17.14 21.42 11.64 14.23 23.11 29.24 39.49 40.41z"/>
		<path id="&lt;Path&gt;" class="s4" d="m940.19 1435.96c5.51 2.45 10.87 5.06 16.38 7.65 0.61 0.31 1.37 0.61 1.98 0.92 14.69 6.89 28.93 14.54 50.05 10.87 14.84-2.75 26.17-10.26 35.96-18.67 5.67-4.9 9.19-11.33 14.7-16.37-31.84 9.94-67.34 15.3-104.07 15.76-5.05 0.15-9.95 0-15-0.16z"/>
		<path id="&lt;Path&gt;" class="s4" d="m1136.54 1381.63c14.54 1.84 30.46 2.45 44.23-0.46 8.11-4.59 9.49-4.28 7.81-4.44-11.02-3.82-15-15.91-22.35-22.64l-0.61-0.46c-8.26 10.25-18.06 19.59-29.08 28z"/>
		<path id="&lt;Path&gt;" class="s4" d="m1273.98 1252.01c-18.22-1.54-37.35 3.21-59.08 10.25-4.44 1.38-8.88 2.91-13.47 4.28 9.8 8.58 20.05 16.38 30.61 23.57 17.91 12.1 35.35 20.82 51.57 26.33 0.16-7.65-0.91-15.15-1.53-21.89-1.37-14.69-4.28-28.77-8.1-42.54z"/>
		<path id="&lt;Path&gt;" class="s4" d="m1120.63 1154.67c1.07 2.15 1.83 4.44 2.75 6.58 0.46 1.07 0.77 2.15 1.23 3.21 1.99 5.52 3.98 11.18 5.81 16.69l0.15 0.3v0.16c7.35 12.09 15.46 23.87 24.49 35.5l0.15 0.15c5.82 7.66 12.25 15.31 18.98 22.5 3.52 3.83 7.04 7.5 10.71 11.18 1.69 1.83 3.52 3.52 5.36 5.2 2.29 2.29 4.74 4.59 7.19 6.89 5.66-1.69 11.18-3.52 16.68-4.9q17.68-4.59 35.36-9.19c8.11-2.14 15.76-3.21 22.65-3.21 10.56 0 19.59 2.6 27.39 8.26-0.3-1.37-25.4-27.69-40.25-42.84-4.13-4.14-7.5-7.35-9.33-9.19-17.91-16.37-35.66-32.9-52.8-49.58-7.2-7.05-14.39-14.08-21.43-21.27-8.95 2.29-17.78 4.47-26.61 6.65-1.73 0.42-3.49 0.87-5.22 1.3q-1.93 0.4-3.82 0.84c-1.72 0.4-3.44 0.8-5.21 1.15-6.12 1.53-12.25 2.91-18.37 4.28 1.53 3.07 2.91 6.13 4.14 9.34z"/>
		<path id="&lt;Path&gt;" class="s4" d="m1364.27 1217.11c7.19 7.2 14.38 14.7 22.34 21.43-0.92-8.26-2.6-16.84-4.89-25.71v-0.15c-10.87-10.26-21.43-20.97-30.76-32.6-20.82-26.02-45.15-47.45-69.18-70.56-2.3-2.29-4.59-4.59-6.89-7.03-1.58 0.61-3.11 1.06-4.64 1.57-1.15 0.39-2.29 0.85-3.47 1.18 28.31 39.48 61.52 76.06 97.49 111.87z"/>
		<path id="&lt;Path&gt;" class="s4" d="m1648.32 1065.76c-1.08 2.29-2.61 4.28-4.44 6.11-5.82 5.67-13.62 7.81-22.5 6.89 38.87 34.74 90.6 63.36 143.1 76.53 54.63 13.61 97.94 7.19 121.05-13.78-4.74-0.61-9.49-1.07-14.08-1.84h-0.46c-89.99 2.45-175.08-25.55-222.52-74.07h-0.15z"/>
		<path id="&lt;Path&gt;" class="s4" d="m2103.46 1061.32c12.55-12.71 14.08-26.94 12.7-40.25-10.1 19.13-25.55 37.03-45.3 52.95 11.02 0.92 24.8-4.9 32.6-12.7z"/>
		<path id="&lt;Path&gt;" class="s5" d="m710.93 1345.36l-2.75-3.21c-7.04-8.11-13.01-16.38-17.91-25.1-1.53-2.45-2.75-4.9-3.98-7.5-11.63 32.14-29.08 64.59-50.81 93.21-9.95 13.16-20.81 25.4-32.44 36.57-16.07 15.46-32.29 27.4-47.75 35.51-35.05 18.66-66.88 18.82-87.85 0.76q-2.52 5.28-5.05 10.56v0.31c-3.82 7.96-7.34 16.07-10.4 24.33-1.84 4.9-3.98 10.26-6.43 15.46-0.92 2.14-1.99 4.13-2.91 6.12-1.07 2.14-2.14 4.13-3.21 6.12l-0.46 0.92c-1.54 2.91-3.52 4.74-5.67 5.82l-1.07 0.45c-9.33 5.82-24.79 5.67-35.81 3.99-1.23-0.31-2.45-0.47-3.52-0.77-2.14-0.46-4.44-0.92-6.58-1.38 42.09 68.87 138.96 57.54 235.07-34.89 3.22-3.07 6.43-6.28 9.49-9.49 1.53-1.38 2.91-2.91 4.29-4.44 15.61-16.22 30.15-33.82 43.77-52.19 19.13-26.32 36.12-54.48 50.5-83.25-1.07-0.92-2.14-1.84-3.21-2.91-5.51-4.74-10.56-9.79-15.31-15z"/>
		<path id="&lt;Path&gt;" class="s5" d="m1469.87 1296.39c-0.92-0.92-1.68-1.68-2.6-2.6-3.22-3.07-6.28-6.43-9.03-9.49-4.44-5.05-9.18-9.8-13.93-14.54h-0.15c-1.69-1.99-3.52-3.67-5.36-5.2l-0.15-0.16c-0.46-0.61-0.77-0.92-1.38-1.37-1.83-1.84-3.52-3.52-5.36-5.21-6.58-5.97-13.31-11.94-20.04-17.9-6.74-5.97-13.47-11.94-20.05-17.91-3.52-3.06-6.74-6.12-10.1-9.18 2.29 8.87 3.97 17.45 4.89 25.71 0 1.84 0.15 3.52 0.31 5.2 0.46 5.82 0.46 11.63 0 17.14-0.16 1.99-0.31 3.98-0.61 5.97-5.97 46.22-41.63 65.04-89.53 53.41-4.29-0.92-8.73-2.29-13.17-3.82-16.22-5.51-33.66-14.23-51.57-26.33-10.56-7.19-20.81-14.99-30.61-23.57-1.22-1.22-2.6-2.29-3.98-3.51-2.45-2.3-4.9-4.6-7.19-6.89-1.84-1.68-3.67-3.37-5.36-5.2-3.67-3.68-7.19-7.35-10.71-11.18-6.73-7.19-13.16-14.84-18.98-22.5l-0.15-0.15c-9.03-11.63-17.14-23.41-24.49-35.5v-0.16l-0.15-0.3c-3.98-6.73-7.81-13.62-11.17-20.51-2.3-4.59-4.44-8.88-6.28-13.46v-0.16l-0.46-0.76h-0.05-0.25-0.15c-0.69 0.19-1.32 0.35-1.96 0.52-1.37 0.36-2.71 0.69-4.17 1.01-1.53 0.3-3.21 0.61-4.74 1.07-3.98 0.76-7.96 1.68-11.79 2.44q-2.85 0.57-5.63 1.16-3.02 0.65-5.99 1.14-2.07 0.69-4.14 0.92c-6.87 1.43-13.62 2.85-20.47 4.15l-1.41 0.29-0.29 0.05c-0.52 0.12-1.03 0.25-1.55 0.25-0.76 0.15-1.68 0.31-2.45 0.46 1.84 3.83 3.83 7.5 5.82 11.32q7.34 13.78 15.61 27.56c0.44 0.44 0.74 1.03 1.03 1.62l0.04 0.06c1.53 2.45 3.21 4.9 4.74 7.5l0.01 0.01c14.23 22.03 30.3 43.76 48.05 64.27 5.97 7.03 12.24 13.92 18.67 20.81 6.28 6.43 12.55 12.86 19.13 19.13 6.58 6.28 13.16 12.4 20.05 18.36 14.69 12.71 30.15 24.49 45.91 35.2 1.84 1.23 3.52 2.45 5.36 3.53 125.8 82.33 233.23 60.44 241.19-50.2 0.46-6.28 0.62-12.55 0.31-19.13-1.23-1.08-2.3-2.3-3.52-3.37z"/>
		<path id="&lt;Path&gt;" class="s5" d="m2003.68 1112.59c-1.99 0.91-4.13 1.68-6.12 2.44-4.44 1.84-8.88 3.37-13.47 4.9-6.27 2.14-12.85 4.13-19.44 5.97-2.14 0.61-4.13 1.22-6.27 1.68q-3.67 0.92-7.35 1.84c-15.61 3.67-31.37 6.27-46.98 7.96-5.36 0.61-10.71 1.07-16.07 1.53-0.77 0.92-1.68 1.68-2.45 2.6-23.11 20.97-66.42 27.39-121.05 13.78-52.5-13.17-104.23-41.79-143.1-76.53-3.98-0.15-8.26-1.22-12.7-2.9-12.4-4.14-25.87-12.71-38.26-24.49-14.7-13.77-25.1-28.93-28.62-42.24-1.99 0.77-4.13 1.38-6.12 2.14q-5.97 2.07-11.94 4.13c-0.61 0.16-1.07 0.31-1.68 0.61-0.51 0.11-1.06 0.37-1.61 0.61l-0.84 0.31h-0.07-0.09l-0.19 0.1-0.11 0.06-1.31 0.43-0.07 0.02c-4.99 1.67-10.1 3.36-15.11 5.26q-0.79 0.27-1.57 0.56l-0.73 0.23q-1.31 0.4-2.69 0.94l-1.33 0.51c-0.99 0.29-2 0.59-3 1.01l-0.21 0.07c-1.53 0.46-3.22 1.07-4.9 1.68l0.62 1.07 0.15 0.16q3.44 5.28 7.34 10.55c2.91 3.99 5.82 7.96 9.03 11.94 3.68 4.75 7.66 9.49 11.64 14.08l0.3 0.31c0.61 0.76 1.38 1.53 1.84 2.14 1.53 1.68 2.91 3.21 4.28 4.74 3.98 4.29 8.11 8.57 12.25 12.86 7.49 7.65 15.3 15 23.57 22.04 1.98 1.83 3.82 3.52 5.81 5.2q16.53 14.24 34.9 27.55c25.09 18.06 52.18 34.43 80.65 48.51 5.05 2.6 10.25 5.05 15.45 7.35 11.48 5.36 23.27 10.25 35.05 14.69 0.92 0.46 1.68 0.77 2.6 1.07 16.99 6.28 34.13 11.63 51.42 15.92 143.87 35.81 238.6-15.61 218.55-115.39z"/>
		<path id="&lt;Path&gt;" class="s6" d="m710.93 1345.36l-2.75-3.21c-7.04-8.11-13.01-16.38-17.91-25.1-12.09 31.22-29.23 62.29-50.35 90.14-10.56 14.23-22.34 27.55-34.89 39.64-14.08 13.62-28.32 24.64-42.09 32.9-3.52 2.15-7.04 4.13-10.41 5.82-22.8 11.63-44.22 16.22-62.44 13.01h-0.46c-9.95-1.53-18.97-5.51-26.63-11.64l-0.61-0.45c-3.82 7.96-7.34 16.07-10.4 24.33-1.84 4.9-3.98 10.26-6.43 15.46-0.92 2.14-1.99 4.13-2.91 6.12-1.07 2.14-2.14 4.13-3.21 6.12l-0.46 0.92c-1.54 2.91-3.52 4.74-5.67 5.82l-1.07 0.45c-9.33 5.82-24.79 5.67-35.81 3.99 43.47 58 133.91 44.22 223.59-41.94 1.69-1.53 3.37-3.22 4.9-4.9 1.53-1.38 2.91-2.91 4.44-4.28 16.68-16.99 32.14-35.51 46.37-54.95 19.44-26.32 36.43-54.48 50.51-83.25-5.51-4.74-10.56-9.79-15.31-15z"/>
		<path id="&lt;Path&gt;" class="s6" d="m1458.24 1284.3c-4.44-5.05-9.18-9.8-13.93-14.54h-0.15c-1.69-1.99-3.52-3.67-5.36-5.2l-0.15-0.16c-0.46-0.61-0.77-0.92-1.38-1.37-1.83-1.84-3.52-3.52-5.36-5.21-6.58-5.97-13.31-11.94-20.04-17.9-6.74-5.97-13.47-11.94-20.05-17.91 1.53 7.19 2.75 14.23 3.36 20.97 0.16 0.91 0.31 1.84 0.31 2.75 0.61 6.74 0.77 13.16 0.31 19.44v1.53c-3.98 54.94-44.54 76.98-99.64 62.13-4.28-1.07-8.72-2.44-13.16-4.13-16.22-5.81-33.67-14.69-51.57-26.78-12.86-8.72-25.41-18.67-37.19-29.23-0.76-0.92-1.69-1.68-2.45-2.45l-1.22-1.07c-2.3-2.14-4.59-4.29-6.74-6.58l-1.07-1.07c-9.18-8.88-17.75-18.37-25.71-28.16-4.44-5.36-8.57-10.72-12.7-16.07-14.24-19.44-26.33-39.64-35.81-59.85v-0.15c-0.92-1.83-1.69-3.67-2.61-5.5-1.53 0.3-3.21 0.61-4.74 1.07-3.98 0.76-7.96 1.68-11.79 2.44q-2.85 0.57-5.63 1.16-3.02 0.65-5.99 1.14-2.07 0.69-4.14 0.92c-6.87 1.43-13.62 2.85-20.47 4.15l-1.41 0.29 0.3 0.45c1.69 3.53 3.52 7.2 5.51 10.72 4.9 9.34 10.26 18.82 16.07 28.01 14.69 24.03 31.84 47.74 50.97 69.93v0.16c6.12 7.19 12.39 14.08 18.98 20.97 6.27 6.58 12.7 13.16 19.28 19.43h0.15c6.43 6.28 12.85 12.09 19.59 17.91 13.47 11.63 27.54 22.5 41.93 32.29 0.77 0.61 1.68 1.07 2.45 1.68 0.92 0.61 1.68 1.23 2.6 1.69 4.75 3.21 9.34 6.12 13.93 8.87 117.54 71.63 216.09 48.36 223.59-56.16 0.46-6.89 0.62-13.93 0.16-21.12-3.22-3.07-6.28-6.43-9.03-9.49z"/>
		<path id="&lt;Path&gt;" class="s6" d="m1997.56 1115.03c-4.44 1.84-8.88 3.37-13.47 4.9-6.27 2.14-12.85 4.13-19.44 5.97-2.14 0.61-4.13 1.22-6.27 1.68q-3.67 0.92-7.35 1.84c-15.61 3.67-31.37 6.27-46.98 7.96-1.23 1.99-2.6 3.83-4.29 5.51-22.65 26.32-71.16 35.2-133.14 19.74-58.47-14.54-116.01-47.45-157.94-86.77-12.4-4.14-25.87-12.71-38.26-24.49-14.7-13.77-25.1-28.93-28.62-42.24-1.99 0.77-4.13 1.38-6.12 2.14q-5.97 2.07-11.94 4.13c-0.61 0.16-1.07 0.31-1.68 0.61-0.51 0.11-1.06 0.37-1.61 0.61l-0.84 0.31h-0.07-0.09l-0.19 0.1-0.11 0.06-1.31 0.43-0.07 0.02c-4.99 1.67-10.1 3.36-15.11 5.26q-0.79 0.27-1.57 0.56l-0.73 0.23q-1.31 0.4-2.69 0.94l-1.33 0.51c-0.99 0.29-2 0.59-3 1.01l-0.21 0.07c1.07 1.53 1.99 3.06 3.21 4.59 6.28 9.64 13.63 19.28 21.58 28.62 1.69 2.29 3.68 4.43 5.51 6.58 3.22 3.67 6.43 7.19 9.95 10.87q0.92 1.14 2.3 2.29c8.72 9.34 18.21 18.36 28.16 27.09 7.04 6.27 14.23 12.24 21.88 18.21 4.13 3.21 8.27 6.43 12.55 9.49v0.15c24.79 18.21 51.88 35.05 80.04 49.28 5.66 2.91 11.33 5.51 16.99 8.26 12.55 5.82 25.4 11.18 38.41 15.92l0.92 0.31c16.22 6.12 32.6 11.17 49.13 15.3 138.04 34.44 229.56-13.62 213.8-108.05z"/>
		<path id="&lt;Path&gt;" class="s7" d="m598.14 1497.33q2.07-1.61 4.13-3.67c3.83-3.37 7.81-6.89 11.79-10.71 16.99-16.22 32.75-34.44 46.98-53.72 19.44-26.32 36.27-54.79 49.89-83.87l-2.75-3.21c-13.32 29.23-30.15 58-49.74 84.32-13.93 18.68-29.23 36.27-45.61 52.04-5.05 4.9-10.25 9.49-15.3 13.93-1.38 1.06-2.76 2.29-4.13 3.36-57.85 47.75-114.02 59.84-150.75 36.58-1.07 2.14-2.14 4.13-3.21 6.12 38.56 24.18 97.94 10.56 158.7-41.17z"/>
		<path id="&lt;Path&gt;" class="s7" d="m1097.67 1197.52c9.79 15.77 20.97 31.38 33.06 46.22 2.29 2.91 4.59 5.82 7.04 8.57 4.74 5.67 9.79 11.33 14.84 16.84 1.84 1.99 3.68 3.82 5.51 5.82 5.05 5.35 10.26 10.4 15.61 15.6 5.2 4.9 10.71 9.8 16.22 14.7 9.95 8.57 20.2 16.68 30.92 24.18q3.9 2.75 7.8 5.5c11.94 8.12 23.72 15.16 35.36 20.97h0.15c4.13 2.15 8.11 4.14 12.24 6.12 87.23 39.34 155.95 14.24 161.77-66.57 0.61-8.72 0.46-17.91-0.31-27.24-0.15-1.38-0.15-2.6-0.46-3.98l-0.15-1.22c-1.83-1.84-3.52-3.52-5.36-5.21 0.31 1.84 0.46 3.52 0.62 5.36 0.15 1.22 0.3 2.6 0.3 3.98 0.61 8.57 0.77 16.83 0.15 24.79-5.66 77.14-70.24 102.08-152.73 66.88-4.13-1.84-8.26-3.67-12.55-5.82q-18.82-9.17-38.57-22.49c-3.82-2.6-7.5-5.21-11.17-7.81-9.33-6.73-18.36-14.08-27.09-21.58v-0.15c-5.35-4.44-10.41-9.18-15.45-13.93-4.14-3.97-8.27-7.96-12.25-12.08-3.21-3.22-6.27-6.59-9.33-9.96v-0.15c-1.99-1.99-3.52-3.67-5.36-5.66l-0.15-0.15v-0.16c-3.52-3.82-6.89-7.65-9.95-11.63-2.6-2.91-4.9-5.81-7.19-8.72-10.56-13.17-20.21-26.94-28.93-40.86-9.33-14.54-17.45-29.39-24.48-44.08q-2.07 0.69-4.14 0.92c7.04 14.38 15 28.77 24.03 43z"/>
		<path id="&lt;Path&gt;" class="s7" d="m1523.59 1027.19c3.67 5.66 7.8 11.33 11.93 16.99l1.07 1.22c3.53 4.44 7.2 9.03 11.02 13.47l0.16 0.15c8.72 10.1 18.05 19.9 28.46 29.54l0.31 0.3c4.44 4.14 9.33 8.42 14.08 12.55 19.44 16.53 41.01 31.99 63.97 45.61l0.61 0.31c6.58 4.13 13.16 7.8 20.05 11.48l0.31 0.15c19.28 10.25 39.33 19.43 59.68 26.78 5.06 1.99 10.26 3.67 15.46 5.36 8.57 2.75 17.29 5.35 26.02 7.5 101.92 25.4 174.92-0.92 186.56-59.69 0.76-4.13 1.22-8.42 1.37-13.01-2.14 0.61-4.13 1.22-6.27 1.68-0.46 4.29-1.07 8.58-2.3 12.55-13.62 54.33-83.71 78.05-180.59 54.03-6.89-1.69-13.77-3.67-20.66-5.82-6.88-2.14-13.62-4.28-20.35-6.89-46.37-16.99-90.75-42.39-128.25-72.08-14.39-11.48-27.85-23.42-39.79-35.97l-0.16-0.15c-6.88-6.88-13.16-14.08-19.13-21.27l-0.15-0.15c-3.98-5.05-7.96-10.11-11.32-15.16-2.6-3.36-4.75-6.58-6.89-9.94v-0.15q-2.76-3.91-5.05-7.81c-0.46-0.92-1.07-1.84-1.68-2.76-0.51 0.11-1.06 0.37-1.61 0.61l-0.84 0.31h-0.07-0.09l-0.19 0.1-0.11 0.06-1.31 0.43-0.07 0.02c1.84 3.22 3.83 6.43 5.82 9.65z"/>
		<path id="&lt;Path&gt;" class="s8" d="m1141.44 1292.87c-6.43-6.89-12.7-13.78-18.67-20.81-17.75-20.51-33.82-42.23-48.05-64.27-3.85 1.96-11.8 3.17-21.32 2.9-6.61-0.2-12.73-1.07-17.37-2.32-4.98-1.35-8.26-3.13-8.58-5.02-0.14-0.89 0.42-1.72 1.52-2.46h-0.02c-14.99-0.31-28.46-2.75-37.95-10.87l-0.31-0.3c-1.99-1.69-3.52-3.37-4.43-5.05-0.92-1.38-1.54-2.91-1.54-4.29-0.61-3.06 0.16-6.27 2.45-9.64-4.71 0.87-9.47 1.66-14.24 2.45q-9.31 1.52-18.66 3.06c-0.46 0-1.07 0.15-1.68 0.31-9.95 1.53-19.75 3.06-29.69 4.59v0.15h-0.16c-4.59 0.61-9.18 1.23-13.77 1.99-10.1 1.38-20.2 2.91-30.3 4.29-1.33 0.19-2.64 0.34-3.96 0.53-15.8 2.23-31.49 4.37-47.31 6.35-16.38 2.14-32.6 4.14-48.98 6.12-1.68 0.31-3.36 0.46-4.89 0.61-8.42 1.08-16.68 2-25.1 3.07-0.83 0.08-1.72 0.2-2.57 0.33-0.72 0.1-1.4 0.21-2.18 0.28q-2.97 0.34-6 0.68-3.07 0.35-6.09 0.7c-3.06 0.32-6.12 0.73-9.19 1.11-4.13 0.49-8.26 0.96-12.39 1.49l-1.1 0.09-0.88 0.06c-1.9 0.15-3.93 0.44-5.97 0.73l-0.31 0.04-1.25 0.14c-5.84 0.59-11.57 1.29-17.42 2-1.69 0.15-3.37 0.3-4.9 0.46-2.91 0.46-5.97 0.76-8.87 1.07 2.6 2.91 5.2 6.12 7.65 9.49 0.46 0.61 0.92 1.38 1.37 1.99v0.15c7.35 10.26 12.71 20.66 15.77 30.3 1.99 5.82 3.06 11.33 3.21 16.38v0.31 0.15c0 1.99-0.15 3.82-0.3 5.51 0 0.76-0.16 1.53-0.46 2.14-0.16 0.92-0.31 1.53-0.46 2.3-0.46 1.53-0.92 2.9-1.53 4.28l-0.62 1.07-0.91 1.38v0.15l-0.16 0.31v0.15c-0.46 0.61-0.76 0.92-1.07 1.38l-0.76 1.07c-1.08 1.07-2.14 2.3-3.52 3.21l-1.23 0.92c-1.53 1.07-3.21 1.84-4.9 2.45 1.38 3.68 2.91 7.35 4.9 11.02 1.23 2.6 2.45 5.05 3.98 7.5 4.9 8.72 10.87 16.99 17.91 25.1l2.75 3.21c4.75 5.21 9.8 10.26 15.31 15 1.07 1.07 2.14 1.99 3.21 2.91 19.74 16.98 44.38 31.98 73 43.92l0.61 0.31c13.78 5.81 28.62 10.86 44.23 15 15.15 4.13 30.61 7.19 45.91 9.33l0.31 0.15c5.82 0.92 11.63 1.54 17.6 2.15 3.06 0.3 6.12 0.61 9.34 0.76l0.3 0.16c1.53 0 3.22 0.15 4.9 0.3 4.9 0.31 9.64 0.46 14.54 0.61 5.05 0.16 9.95 0.31 15 0.16 36.73-0.46 72.23-5.82 104.07-15.76 29.53-9.34 55.86-22.35 77.28-38.73 11.02-8.41 20.82-17.75 29.08-28 4.75-5.97 9.03-12.25 12.7-18.83 0.77-1.53 1.68-2.91 2.3-4.44-6.89-5.96-13.47-12.08-20.05-18.36-6.58-6.27-12.85-12.7-19.13-19.13z"/>
		<path id="&lt;Path&gt;" class="s8" d="m1069.93 1200.22c-0.29-0.59-0.59-1.18-1.03-1.62-1.23 0-2.6 0.15-3.98 0.3h-0.15l-0.09 0.01q2.12 0.41 3.96 0.9z"/>
		<path id="&lt;Path&gt;" class="s8" d="m571.36 1224.92h-0.02-0.44q-8.28 1.02-16.49 2.03-4.75 0.59-9.53 1.18c-9.95 1.07-19.74 2.3-29.69 3.68 0.92 1.06 1.53 2.14 2.29 3.21 5.98 9.18 7.35 18.36 3.37 20.5-4.13 2-12.24-3.67-18.06-12.85-0.76-1.37-1.53-2.6-2.14-3.98-0.92-1.53-1.53-3.21-2.14-4.74l-0.78 0.05q-0.76 0.09-1.52 0.1v0.09 0.06c-9.03 1.08-18.21 2.3-27.24 3.52-2.29 0.31-4.44 0.62-6.73 0.92-1.53 0.16-2.91 0.31-4.44 0.61-8.57 1.08-17.14 2.3-25.56 3.52-1.68 0.16-3.36 0.46-5.05 0.77-9.95 1.38-19.89 2.76-29.69 4.29-5.35 0.76-10.71 1.53-15.91 2.44-11.64 1.69-23.11 3.52-34.59 5.52h-0.16c-4.53 0.72-8.99 1.46-13.45 2.21-4.87 0.81-9.75 1.65-14.7 2.52 0 1.54-0.16 2.91-0.31 4.44-1.07 8.42-4.74 17.91-10.56 27.55-3.67 6.27-8.42 12.71-13.77 18.98-1.69 1.99-3.37 3.83-5.05 5.66-2 2.14-3.98 3.98-5.97 5.97-1.07 3.22-2 6.13-2.6 8.27q-1.38 5.05-2.76 10.09c-4.29 16.07-8.11 32.76-9.95 49.59-1.22 10.41-1.68 20.66-0.92 30.77 2.61 34.12 16.08 67.49 42.7 90.75 16.07 13.92 34.29 22.19 54.49 28.92 7.34 2.45 14.84 4.29 22.34 5.97 2.14 0.46 4.44 0.92 6.58 1.38 1.07 0.3 2.29 0.46 3.52 0.77 11.02 1.68 26.48 1.83 35.81-3.99l1.07-0.45c2.15-1.08 4.13-2.91 5.67-5.82l0.46-0.92c1.07-1.99 2.14-3.98 3.21-6.12 0.92-1.99 1.99-3.98 2.91-6.12 2.45-5.2 4.59-10.56 6.43-15.46 3.06-8.26 6.58-16.37 10.4-24.33v-0.31q2.53-5.28 5.05-10.56c10.1-20.97 21.58-41.47 31.22-62.59 5.97-12.55 11.17-25.26 15.31-38.42 7.19-22.8 16.99-44.23 27.08-65.8 3.98-8.27 7.96-16.69 11.79-25.1 7.8-17.15 12.09-36.12 20.97-52.96 1.22-2.29 2.29-4.43 3.52-6.58-1.92 0.3-3.82 0.46-5.73 0.74z"/>
		<path id="&lt;Path&gt;" class="s8" d="m1565.06 1112.89c-1.99-1.68-3.83-3.37-5.81-5.2-8.27-7.04-16.08-14.39-23.57-22.04-4.14-4.29-8.27-8.57-12.25-12.86-1.37-1.53-2.75-3.06-4.28-4.74-0.46-0.61-1.23-1.38-1.84-2.14l-0.3-0.31c-3.98-4.59-7.96-9.33-11.64-14.08-3.21-3.98-6.12-7.95-9.03-11.94q-3.9-5.27-7.34-10.55l-0.15-0.16-0.62-1.07-0.3 0.15c-3.98 1.38-8.11 2.91-12.25 4.29-2.9 1.07-5.81 2.14-8.87 3.21-4.29 1.53-8.73 3.07-13.16 4.75-0.62 0.15-1.23 0.46-1.84 0.61-26.17 9.49-52.19 18.98-78.36 28.31-0.59 0.2-1.18 0.45-1.78 0.66-0.78 0.28-1.57 0.52-2.35 0.87-3.67 1.22-7.19 2.6-10.87 3.83h-0.13-0.02c-1.22 0.46-2.6 0.92-3.98 1.38-1.68 0.61-3.36 1.22-5.2 1.83-1.23 0.46-2.45 0.92-3.67 1.23q-10.6 3.71-21.32 7.43c-1.68 0.59-3.32 1.17-5.01 1.75-0.85 0.26-1.78 0.56-2.68 0.85-1.19 0.39-2.36 0.78-3.59 1.14q-0.94 0.38-2.01 0.75l-0.44 0.16c-3.22 1.08-6.28 2.3-9.64 3.37h-0.31-0.07-0.08q-9.19 2.99-18.37 5.97l-0.35 0.12-1.48 0.5q-1.87 0.68-3.83 1.19l-1.38 0.34c2.3 2.44 4.59 4.74 6.89 7.03 24.03 23.11 48.36 44.54 69.18 70.56 9.33 11.63 19.89 22.34 30.76 32.6v0.15c3.36 3.06 6.58 6.12 10.1 9.18 6.58 5.97 13.31 11.94 20.05 17.91 6.73 5.96 13.46 11.93 20.04 17.9 1.84 1.69 3.53 3.37 5.36 5.21 0.61 0.45 0.92 0.76 1.38 1.37l0.15 0.16c1.84 1.53 3.67 3.21 5.36 5.2h0.15c4.75 4.74 9.49 9.49 13.93 14.54 2.75 3.06 5.81 6.42 9.03 9.49 0.92 0.92 1.68 1.68 2.6 2.6 1.22 1.07 2.29 2.29 3.52 3.37 2.45 2.29 5.05 4.43 7.5 6.58 2.45 1.99 4.74 3.06 7.04 3.21l0.3 0.15c9.95 2.15 23.72-2.91 33.67-8.41 1.99-0.92 3.68-1.99 5.36-3.07 8.26-5.35 16.53-10.86 24.18-17.29l0.77-0.61c2.9-2.45 5.66-4.9 8.41-7.5 7.2-6.43 13.77-13.16 19.59-20.81 4.29-5.51 8.11-11.33 11.48-17.76 15.15-29.38 16.53-62.89 8.27-93.81q-18.37-13.31-34.9-27.55z"/>
		<path id="&lt;Path&gt;" class="s8" d="m2126.57 876.75l-0.3-0.61c-5.36-10.41-12.4-20.21-20.51-29.39-3.68-3.98-7.35-7.81-11.48-11.48q-5.97 1.61-12.85 1.84c-11.94 0.61-26.02-1.38-40.41-5.81-1.68-0.47-3.36-1.08-5.05-1.54-5.66-2.14-11.02-4.28-15.91-6.89-3.07-1.37-5.97-2.9-8.58-4.58-3.48 1.87-7.1 3.75-10.72 5.62q-0.76 0.4-1.52 0.8c-14.38 7.5-28.92 14.7-43.62 21.73q-26.85 13.09-54.17 25.26c-6.55 3.01-13.22 5.99-19.88 8.93-1.44 0.64-2.86 1.31-4.3 1.93 14.07 3.68 24.33 10.41 28.46 19.74 1.07 2.3 1.69 4.6 1.84 7.2 1.22 13.47-9.34 24.49-26.32 31.37-1.38 0.77-2.91 1.23-4.44 1.68-7.81 2.91-16.84 4.91-26.48 5.97-1.68 0.16-3.52 0.31-5.35 0.46l-1.38 0.16c-6.74 0.46-13.47 0.46-19.75 0-13.01-0.92-24.33-3.68-33.05-8.11-6.12-3.22-10.87-7.2-13.78-11.94-0.61-1.08-1.22-2.14-1.68-3.22l-0.15-0.61h-0.16c-3.21 1.22-6.43 2.6-9.64 3.83-2.75 1.07-5.35 2.14-7.96 3.21-0.61 0.15-1.22 0.46-1.68 0.61-8.83 3.43-17.63 6.75-26.44 10.07q-3.29 1.27-6.59 2.51-13.4 5.03-26.85 9.96-2.12 0.79-4.24 1.57c-4.65 1.7-9.27 3.43-13.93 5.13-3.67 1.22-7.35 2.59-11.02 3.97-4.59 1.53-9.33 3.22-14.08 5.05-8.57 2.91-17.29 5.97-26.02 9.03-5.35 1.84-10.86 3.68-16.22 5.67 0.15 2.44 0.46 5.05 0.77 7.49 3.21 2.46 6.42 5.36 9.64 8.27 11.02 10.25 19.59 21.27 24.64 31.83 1.37 2.91 2.6 5.67 3.36 8.26 1.38 4.29 2.15 8.58 2.15 12.4 0 1.68-0.16 3.37-0.46 4.9l-0.16 1.07c-0.3 1.23-0.61 2.45-1.07 3.52l-0.3 0.77-0.46 1.22c47.44 48.52 132.53 76.52 222.52 74.07h0.46c5.51-0.15 11.02-0.45 16.53-0.76 5.36-0.46 10.71-0.92 16.07-1.53 15.61-1.69 31.37-4.29 46.98-7.96q3.68-0.92 7.35-1.84c2.14-0.46 4.13-1.07 6.27-1.68 6.59-1.84 13.17-3.83 19.44-5.97 4.59-1.53 9.03-3.06 13.47-4.9 1.99-0.76 4.13-1.53 6.12-2.44 7.8-3.07 15.15-6.43 22.34-10.1 1.08-0.47 1.99-0.92 3.06-1.53 12.4-6.43 23.88-13.47 34.13-21.13 2.6-1.83 5.2-3.82 7.65-5.81 19.75-15.92 35.2-33.82 45.3-52.95 3.83-7.04 7.05-14.39 9.19-21.89 0.3-0.92 0.61-1.83 0.76-2.75 0.62-1.84 1.08-3.52 1.53-5.36l2.45-10.26 5.51-23.71 0.31-1.23v-0.15l1.22-5.06c5.21-24.33 1.99-49.42-10.56-73.91z"/>
		<path id="&lt;Path&gt;" class="s9" d="m1137.61 1336.33c-15.45 13.47-34.12 24.79-55.09 34.13-26.63 11.79-56.78 20.05-89.07 24.18h-0.15c-12.86 1.69-26.02 2.76-39.49 3.06-10.26 0.31-20.81 0.16-31.37-0.3-4.59-0.31-9.34-0.61-13.93-1.07-20.66-1.84-41.32-5.21-61.83-10.26l-0.31-0.15c-2.29-0.46-4.59-1.07-6.88-1.68-7.04-1.84-13.93-3.99-20.66-6.13v-0.15c-5.82-1.84-11.48-3.98-16.99-6.12l-0.61-0.15c-8.57-3.37-16.84-7.04-24.79-11.18-13.01-6.27-24.95-13.31-35.82-20.96-1.22-0.77-2.29-1.53-3.52-2.45-5.97-4.29-11.63-8.73-16.83-13.32-1.07-0.91-1.99-1.83-3.06-2.6-5.05-4.74-9.8-9.48-14.08-14.23v-0.16c-2.45-2.44-4.44-4.89-6.43-7.34v-0.15c-1.68-1.99-3.37-4.14-4.9-6.12l-0.76-1.23c-1.08 1.07-2.14 2.3-3.52 3.21l-1.23 0.92c-1.53 1.07-3.21 1.84-4.9 2.45 1.38 3.68 2.91 7.35 4.9 11.02 1.23 2.6 2.45 5.05 3.98 7.5 4.9 8.72 10.87 16.99 17.91 25.1l2.75 3.21c4.75 5.21 9.8 10.26 15.31 15 1.07 1.07 2.14 1.99 3.21 2.91 19.74 16.98 44.38 31.98 73 43.92l0.61 0.31c13.78 5.81 28.62 10.86 44.23 15 15.15 4.13 30.61 7.19 45.91 9.33l0.31 0.15c5.82 0.92 11.63 1.54 17.6 2.15 3.06 0.3 6.12 0.61 9.34 0.76l0.3 0.16c1.53 0 3.22 0.15 4.9 0.3 4.9 0.31 9.64 0.46 14.54 0.61 5.05 0.16 9.95 0.31 15 0.16 36.73-0.46 72.23-5.82 104.07-15.76 29.53-9.34 55.86-22.35 77.28-38.73 11.02-8.41 20.82-17.75 29.08-28 4.75-5.97 9.03-12.25 12.7-18.83 0.77-1.53 1.68-2.91 2.3-4.44-6.89-5.96-13.47-12.08-20.05-18.36q-9.87 13.08-22.96 24.33z"/>
		<path id="&lt;Path&gt;" class="s10" d="m678.33 1224.61v0.31 0.15c7.35 10.26 12.71 20.66 15.77 30.3 1.99 5.82 3.06 11.33 3.21 16.38v0.31 0.15c0 1.99-0.15 3.82-0.3 5.51 1.37 1.98 2.75 4.13 4.28 6.12 5.82 8.41 12.86 16.37 20.97 24.03 1.07 1.07 1.98 1.98 3.06 2.91 5.2 4.74 10.86 9.48 16.98 13.92 1.07 0.77 2.3 1.69 3.53 2.45 11.32 8.11 23.87 15.46 37.8 22.04 9.94 4.9 20.66 9.18 31.98 13.16 4.29 1.53 8.57 2.91 13.01 4.13 3.21 1.08 6.58 1.99 9.95 2.91 23.11 6.28 46.68 10.1 69.94 11.78 4.59 0.31 9.34 0.62 13.93 0.77 10.71 0.31 21.11 0.15 31.37-0.46 4.44-0.15 8.72-0.46 13.01-0.92 30.92-2.75 60.14-9.49 86.16-19.74 24.34-9.49 45.76-22.04 62.75-37.49 10.25-9.19 18.98-19.29 25.71-30.46-6.43-6.89-12.7-13.78-18.67-20.81-0.92 1.98-1.99 4.13-3.06 6.12-5.66 10.1-13.16 19.59-22.34 28.31-0.92 0.77-1.85 1.68-2.76 2.3-18.52 16.83-43.46 30.15-72.24 39.17-3.67 1.08-7.34 2.15-11.17 3.22-17.29 4.59-35.81 7.5-54.63 8.88-0.77 0-1.69 0.15-2.61 0.15-7.5 0.61-16.37 1.07-24.64 0.3-2.29-0.15-4.59-0.45-6.73-0.91-1.22-0.16-2.45-0.47-3.67-0.77-2.15-0.46-4.29-1.23-6.13-2.14-1.53-0.77-3.06-1.68-4.28-2.6-3.21-2.61-5.36-5.66-6.27-8.88v-0.16c-0.62-1.52-0.77-3.06-0.77-4.58 0.15-5.52 3.21-10.72 7.19-15.31v-0.15l1.07-1.23c3.99-4.44 8.27-8.57 13.01-12.55 4.9-4.44 10.26-8.57 15.46-12.7 5.51-4.28 10.86-8.72 15.92-13.01 8.26-7.34 15.61-15.3 20.35-24.48 5.05-9.8 7.96-20.21 9.64-30.76 1.07-7.35 1.69-14.7 1.99-21.89 0.16-4.74 0-9.64 0-14.54 0-3.06 0-6.12 0.16-9.18-0.92-1.38-1.54-2.91-1.54-4.29-0.61-3.06 0.16-6.27 2.45-9.64-4.71 0.87-9.47 1.66-14.24 2.45q-9.31 1.52-18.66 3.06c-0.46 0-1.07 0.15-1.68 0.31-9.95 1.53-19.75 3.06-29.69 4.59v0.15h-0.16c-4.59 0.61-9.18 1.23-13.77 1.99-10.1 1.38-20.2 2.91-30.3 4.29-12.25 10.25-23.88 21.27-31.84 33.21-1.37 1.53-2.45 3.21-3.36 4.9-12.86 21.57-7.81 44.38-11.02 66.72-0.16 0.92-0.16 1.84-0.46 2.6-0.31 2.45-0.92 4.9-1.53 7.35-1.68 5.81-4.44 11.63-10.1 16.22-4.44 3.52-10.71 5.97-17.76 6.58-1.99 0.15-4.13 0.15-6.27 0-2.3-0.15-4.59-0.61-6.89-1.22-11.48-3.07-21.12-10.87-28.77-16.68-1.84-1.53-3.82-3.07-5.51-4.6-1.22-0.92-2.29-1.83-3.52-2.9-6.27-5.51-11.94-11.33-16.83-17.3-1.07-1.22-2.15-2.45-3.06-3.82-1.07-1.08-1.84-2.3-2.76-3.52-9.49-12.86-15.76-26.48-18.82-40.26v-0.15c-2.14-8.57-2.91-17.14-2.14-25.71-1.9 0.15-3.93 0.44-5.97 0.73l-0.31 0.04-1.25 0.14c-5.84 0.59-11.57 1.29-17.42 2-1.69 0.15-3.37 0.3-4.9 0.46-0.3 4.13-0.15 8.11 0.15 12.24z"/>
		<path id="&lt;Path&gt;" class="s9" d="m266.8 1421.89c2.61 34.12 16.08 67.49 42.7 90.75 16.07 13.92 34.29 22.19 54.49 28.92 7.34 2.45 14.84 4.29 22.34 5.97 2.14 0.46 4.44 0.92 6.58 1.38 1.07 0.3 2.29 0.46 3.52 0.77 11.02 1.68 26.48 1.83 35.81-3.99-8.87 3.52-21.27-4.28-28.92-8.56-7.35-3.83-14.39-8.12-21.12-12.71v-0.15c-3.06-1.99-6.13-4.13-9.03-6.27v-0.16c-2.14-1.53-4.29-3.21-6.43-4.89-15.15-12.25-28.77-26.48-40.1-42.09-1.22-1.38-2.29-2.91-3.21-4.44-3.83-5.36-7.35-11.02-10.56-16.68-5.36-9.19-9.95-18.83-13.62-28.77-4.9-12.55-8.42-25.72-10.56-39.03l-0.15-0.92c-3.52-21.12-3.37-42.55 0.46-63.82-2 2.14-3.98 3.98-5.97 5.97-1.07 3.22-2 6.13-2.6 8.27q-1.38 5.05-2.76 10.09c-4.29 16.07-8.11 32.76-9.95 49.59-1.22 10.41-1.68 20.66-0.92 30.77z"/>
		<path id="&lt;Path&gt;" class="s10" d="m548.71 1248.18c-0.62 11.78-3.68 22.8-16.38 27.4-4.59 1.83-9.33 1.53-12.85 4.89-1.23 1.08-2 2.3-2.91 3.52-0.92 1.23-1.84 2.45-3.52 3.37-3.83 2.14-8.72 1.99-11.94 5.2-2.91 2.91-3.06 7.35-6.27 9.95-4.75 3.83-10.1 4.13-14.08 9.34-3.37 4.59-4.6 7.19-9.8 10.4-11.02 6.89-12.55 23.27-11.32 34.9 0.15 0.92 0 1.68-0.16 2.6-0.76 8.26-9.18 14.84-2.6 23.41 2.6 3.37 6.12 4.44 6.74 9.03 0.61 3.99-1.84 8.42-2.91 12.1-1.07 3.52-3.06 8.11-1.99 11.78 1.07 3.82 5.66 6.12 7.35 9.79 5.2 10.87-3.53 22.96-12.86 31.38v0.15c-2.14 1.99-4.44 3.82-6.58 5.35l-0.61 0.47-0.46 0.3-0.77 0.46c-0.92 0.61-2.14 1.38-3.37 1.84-6.57 3.36-15.76 6.27-24.94 7.19-3.98 0.46-7.96 0.46-11.63 0.15-1.84-0.15-3.83-0.46-5.51-1.07-2.14-0.46-4.29-1.38-5.97-2.44-3.98-2.3-4.74-5.97-5.66-9.8-0.31-1.22-0.61-2.45-0.92-3.52-0.61-1.69-1.22-3.06-2.3-4.44-2.6-3.22-6.42-4.44-8.11-8.42-2.29-5.05-1.38-5.97-5.35-9.94l-0.46-0.62c-1.99-1.99-3.37-4.13-4.44-6.27-3.21-6.43-4.13-13.62-7.81-20.2-3.36-5.82-5.81-12.25-5.81-18.68 0-4.44 1.84-8.41 1.38-12.85-0.47-4.9-2.91-9.49-3.83-14.08-1.07-5.05-0.46-9.64 0.61-14.08 0.77-3.83 2.14-7.65 3.37-11.48 3.21-10.25-0.92-21.73 2.75-31.83 3.06-8.42 10.87-13.77 10.72-23.42-0.16-6.12-1.07-8.42 3.06-13.62 2.6-3.21 5.96-5.66 8.11-9.33 1.22-1.99 2.14-4.29 2.91-6.74-11.64 1.69-23.11 3.52-34.59 5.52h-0.16c-6.88 9.48-12.7 19.58-17.44 30.45q-5.05 11.7-8.27 23.87c-11.17 42.85-4.13 88.92 18.22 127.8 4.59 8.11 9.94 16.06 15.91 23.41 0.92 1.37 1.99 2.6 3.06 3.83q3.22 4.12 6.89 7.8c1.84 2.14 3.83 4.28 5.97 6.28 7.35 7.34 15.15 13.92 23.57 20.04 6.43 4.44 12.55 9.64 19.58 13.32 2.76 1.53 5.52 2.75 8.58 3.67 0.76 0.31 1.38 0.46 2.14 0.46 2.6 0.61 4.9 0.61 7.19 0.3 4.13-0.91 7.66-3.21 11.02-7.03 7.35-7.66 10.41-18.06 14.85-27.4l0.46-1.07 0.15-0.15q2.29-4.82 4.59-9.64 2.53-5.28 5.05-10.57l0.46-0.91q4.59-9.88 9.64-19.28c5.82-10.87 11.02-22.2 15.77-33.68 3.36-7.8 6.42-15.45 9.33-23.1 6.58-16.99 13.31-33.67 20.2-50.51 0.77-2.14 1.68-4.43 2.6-6.58q3.45-8.49 7.35-16.53c1.07-2.14 1.99-4.13 3.06-6.12 4.13-8.26 8.26-16.37 12.24-24.8 7.04-14.84 13.32-30.29 18.52-45.9 1.07-3.07 2.3-6.13 3.83-8.88h-0.02-0.44q-8.28 1.02-16.49 2.03-4.75 0.59-9.53 1.18c2.91 6.12 4.13 13.01 3.83 20.05z"/>
		<path id="&lt;Path&gt;" class="s9" d="m1580.21 1252.01c4.29-5.51 8.11-11.33 11.48-17.76 15.15-29.38 16.53-62.89 8.27-93.81q-18.37-13.31-34.9-27.55c3.52 20.97 3.83 42.7 0.61 63.97-2.6 17.75-7.5 35.2-14.38 51.89-1.69 4.28-3.52 8.41-5.66 12.55-1.69 3.67-3.53 7.34-5.67 11.01v0.16c-0.46 0.91-0.92 1.83-1.53 2.75l-0.92 1.38v0.15l-0.61 0.92c-6.43 11.17-13.77 21.73-22.19 31.68-0.46 0.61-1.07 1.22-1.53 1.84-5.82 6.88-15 19.43-24.95 18.51 9.95 2.15 23.72-2.91 33.67-8.41 1.99-0.92 3.68-1.99 5.36-3.07 8.26-5.35 16.53-10.86 24.18-17.29l0.77-0.61c2.9-2.45 5.66-4.9 8.41-7.5 7.2-6.43 13.77-13.16 19.59-20.81z"/>
		<path id="&lt;Path&gt;" class="s10" d="m1283.77 1104.47c8.57 8.12 17.44 15.77 26.02 23.88q6.42 5.74 12.39 11.93c2.3 2.46 4.6 5.05 6.89 7.51 11.78 12.39 23.57 24.94 35.05 37.49 4.43 4.9 9.03 9.64 13.77 14.54v0.15c3.67 3.68 7.19 7.5 11.02 11.02v0.16c6.27 6.11 12.7 12.08 19.28 17.75 3.37 2.91 6.74 5.81 9.95 8.87 1.84 1.53 3.67 3.22 5.36 4.9 2.45 2.15 4.89 4.44 7.19 6.58v0.16q2.76 2.52 5.51 5.05c1.84 1.68 3.52 3.36 5.35 5.05 2.3 2.14 4.6 4.44 6.89 6.73 1.84 1.83 3.52 3.67 5.51 5.51 3.68 3.37 7.5 6.58 12.09 8.72l0.46 0.15c1.99 1.08 3.98 1.84 5.82 2.15 2.29 0.46 4.44 0.61 6.58 0.15 2.9-0.46 5.66-1.84 8.57-4.13 2.29-1.84 4.29-3.82 6.12-6.12h0.15c1.38-1.53 2.6-3.22 3.98-5.05 2.76-3.98 5.36-8.11 8.11-12.25v-0.15c0.46-0.76 1.07-1.68 1.53-2.45 8.27-12.7 14.85-26.32 19.9-40.4 0.61-1.38 1.07-2.91 1.53-4.28 2.6-7.35 4.59-14.85 6.12-22.35 0.77-3.52 1.38-6.89 1.84-10.26 0.46-2.9 0.76-5.96 0.92-8.87v-0.46c1.68-15.61 1.07-31.37-1.54-46.68v-0.15c-1.52-7.96-3.36-15.92-5.96-23.72-0.77-2.6-1.84-5.21-2.76-7.66-1.07-3.05-2.45-6.27-3.82-9.33v-0.15c-1.69-3.68-3.53-7.5-5.51-11.17h-0.16l-0.61-1.38-0.3-0.31c-3.98-4.59-7.96-9.33-11.64-14.08-3.21-3.98-6.12-7.95-9.03-11.94q-3.9-5.27-7.34-10.55l-0.15-0.16-0.92-0.92c-3.98 1.38-8.11 2.91-12.25 4.29-2.9 1.07-5.81 2.14-8.87 3.21-4.29 1.53-8.73 3.07-13.16 4.75 0.45 1.07 1.07 2.14 1.83 2.9 4.13 5.51 11.02 7.96 15.92 13.47 7.04 8.11 7.5 20.21 14.23 28.62 3.98 5.05 8.11 9.64 10.71 15.3q1.61 3.22 2.3 6.89c0.92 4.75 0.15 9.95 1.53 14.54 1.22 4.44 4.44 7.5 5.97 11.48 2.45 6.12 2.29 13.01 1.53 19.59-1.53 10.41 2.3 19.74-2.14 29.84-2.14 5.2-1.07 5.82-1.23 11.17-0.3 3.98-3.06 6.58-4.28 10.26l-0.31 0.61c-2.14 6.73 3.06 13.47-1.83 19.89-4.14 5.36-11.79 9.19-20.21 11.48-4.59 1.23-9.33 2-13.92 2.3-1.69 0.15-3.52 0.31-5.06 0.31-4.43 0.15-8.56-0.16-11.63-0.93-4.59-1.06-10.25-2.9-15.45-5.5-0.61-0.31-1.07-0.46-1.53-0.76-1.38-0.77-2.6-1.54-3.83-2.3-7.19-4.6-12.55-11.02-11.94-18.98 0.16-3.22 2.3-6.28 2.91-9.49v-0.15c0.31-0.77 0.31-1.38 0.31-2.14-0.15-2.76-1.99-5.21-3.98-7.5v-0.16c-0.77-0.92-1.53-1.83-2.14-2.6-2.45-3.06-6.28-6.28-7.2-10.25-0.61-2.61 0.16-4.44 0.92-6.28 0.77-1.38 1.53-2.75 2.15-4.44v-0.15c2.75-9.49-5.98-12.85-10.11-19.28-0.46-0.61-0.76-1.23-1.07-1.84l-0.15-0.3c-0.31-0.62-0.46-1.08-0.61-1.69-2.45-8.87-7.5-19.74-15.77-24.94v-0.16c-1.83-1.37-3.97-2.29-6.27-2.75l-1.38-0.46c-5.97-1.23-8.11-3.21-12.85-6.12-5.51-3.52-10.72-1.84-16.53-3.67-3.98-1.38-5.82-5.36-9.49-7.05-1.68-0.76-3.52-0.91-5.36-0.76-2.6 0.15-5.2 0.61-7.65 0.15h-0.15c-3.06-0.46-4.59-2.3-7.2-3.36l-1.07-0.62c-3.67-1.52-7.19-0.46-10.86 0h-0.31-0.07-0.08q-9.19 2.99-18.37 5.97l-0.35 0.12-1.48 0.5c1.22 1.22 2.44 2.29 3.67 3.51z"/>
		<path id="&lt;Path&gt;" class="s9" d="m2125.5 982.66c-3.52 6.73-7.8 13.31-12.7 19.74-13.32 17.9-31.53 34.27-53.72 48.51-15.15 9.64-32.14 18.37-50.96 25.56q-6.66 2.75-13.78 5.05c-1.83 0.61-3.52 1.22-5.35 1.84-9.19 2.9-18.82 5.5-28.62 7.95h-0.31c-1.68 0.46-3.37 0.77-5.05 1.07-9.03 2.15-18.06 3.83-27.24 5.05h-0.15c-4.59 0.77-9.03 1.38-13.62 1.84-3.53 0.46-7.04 0.77-10.56 1.22-118.31 10.11-232.93-33.05-271.35-107.58-2.14-4.14-3.98-8.42-5.51-12.71-5.35 1.84-10.86 3.68-16.22 5.67 0.15 2.44 0.46 5.05 0.77 7.49 3.21 2.46 6.43 5.36 9.64 8.27 11.02 10.25 19.59 21.27 24.64 31.83 1.37 2.91 2.6 5.67 3.37 8.26 1.37 4.29 2.14 8.58 2.14 12.4 0 1.68-0.16 3.37-0.46 4.9l-0.16 1.07c-0.3 1.23-0.61 2.45-1.07 3.52l-0.3 0.77-0.46 1.22c47.44 48.52 132.53 76.52 222.52 74.07h0.46c5.51-0.15 11.02-0.45 16.53-0.76 5.36-0.46 10.71-0.92 16.07-1.53 15.61-1.69 31.37-4.29 46.98-7.96q3.68-0.92 7.35-1.84c2.14-0.46 4.13-1.07 6.27-1.68 6.59-1.84 13.17-3.83 19.44-5.97 4.59-1.53 9.03-3.06 13.47-4.9 1.99-0.76 4.13-1.53 6.12-2.44 7.8-3.07 15.15-6.43 22.34-10.1 1.08-0.47 1.99-0.92 3.06-1.53 12.4-6.43 23.88-13.47 34.13-21.13 2.6-1.83 5.2-3.82 7.65-5.81 19.75-15.92 35.2-33.82 45.3-52.95 3.83-7.04 7.05-14.39 9.19-21.89 0.3-0.92 0.61-1.83 0.76-2.75 0.62-1.84 1.08-3.52 1.53-5.36l2.45-10.26 5.51-23.71c-2.29 8.72-5.66 17.29-10.1 25.56z"/>
		<path id="&lt;Path&gt;" class="s10" d="m1905.73 902.3c1.07 2.3 1.69 4.6 1.84 7.2 1.22 13.47-9.34 24.49-26.32 31.37-1.38 0.77-2.91 1.23-4.44 1.68-7.81 2.91-16.84 4.91-26.48 5.97-1.68 0.16-3.52 0.31-5.35 0.46l-1.38 0.16c-6.74 0.46-13.47 0.46-19.75 0 1.38 4.9 3.07 9.95 5.36 14.69 2.3 4.74 5.2 9.18 8.57 13.31l0.15 0.16c3.83 4.74 8.27 9.18 12.86 13.47 4.44 4.12 9.34 8.26 14.08 12.24l0.15 0.15c9.65 8.11 19.29 16.38 26.94 25.56 4.28 5.2 7.65 10.86 7.65 16.83 0 1.38-0.31 2.76-0.61 4.14-0.92 2.9-2.6 5.66-5.36 7.96-1.53 1.52-3.52 2.75-5.97 3.82-1.83 0.76-3.98 1.53-6.27 1.99-11.63 2.75-26.17 1.07-37.49-0.15-15.62-1.54-31.07-4.29-45.61-8.27l-0.31-0.15c-2.75-0.46-5.66-1.23-8.42-2.15-34.58-10.4-64.12-26.93-84.63-47.59-6.12-6.27-11.63-12.85-16.07-19.74-1.99-3.07-3.67-6.13-5.36-9.18-2.44-4.59-4.28-9.34-5.81-14.08-3.67 1.22-7.35 2.59-11.02 3.97-4.59 1.53-9.33 3.22-14.08 5.05 1.68 4.9 3.83 9.8 6.27 14.7 32.15 62.29 121.67 100.7 219.47 100.39 7.96 0 16.07-0.31 24.03-0.92 3.21-0.15 6.58-0.45 9.79-0.76 13.01-1.07 26.02-3.06 38.87-5.66 1.69-0.31 3.37-0.77 4.9-1.08 1.84-0.3 3.67-0.76 5.51-1.22 7.65-1.84 15-3.83 22.19-5.97 1.84-0.61 3.67-1.22 5.36-1.68 2.14-0.77 4.28-1.38 6.27-2.15 21.73-7.65 41.32-17.13 58.16-28 24.03-15.46 42.85-33.67 55.4-53.57 6.89-10.71 11.78-22.04 14.84-33.51q1.84-7.35 2.76-14.69c2.14-19.29-1.38-39.03-11.33-58.31l-0.76-1.54c-7.96-14.84-19.13-28.3-32.9-40.09-11.94 0.61-26.02-1.38-40.41-5.81-1.68-0.47-3.36-1.08-5.05-1.54 17.29 10.56 31.37 23.11 41.63 37.04 3.67 4.74 6.73 9.64 9.33 14.69 5.21 10.26 8.57 20.97 9.95 31.68 1.22 10.87 0.46 22.04-2.45 32.75-3.52 13.78-10.4 27.4-20.2 39.95-8.72 11.32-19.89 21.73-32.9 31.22l-0.77 0.61c-7.65 5.36-17.14 12.55-28.62 15.15-2.14 0.46-4.43 0.92-6.73 0.92-9.33 0.61-18.21-2.6-23.87-7.35-5.52-4.74-8.12-10.56-9.49-16.52-6.28-25.87 3.36-51.89-10.56-76.99-9.19-16.68-24.95-31.83-41.02-45.75-5.97-5.05-12.55-10.11-18.82-15.46-6.55 3.01-13.22 5.99-19.88 8.93-1.44 0.64-2.86 1.31-4.3 1.93 14.07 3.68 24.33 10.41 28.46 19.74z"/>
		<path id="&lt;Path&gt;" class="s11" d="m1296.78 1320.26c47.9 11.63 83.56-7.19 89.53-53.41-15.92 4.74-35.81 17.76-49.44 17.76-11.78 0.15-19.28-9.34-27.24-17.45l-0.91 0.91c-19.14 18.83-13.17 28.93-12.09 48.21 0.15 1.23 0.15 2.61 0.15 3.98z"/>
		<path id="&lt;Path&gt;" class="s11" d="m792.2 1282.99c-13.49 0.61-23.28 4.07-21.96 7.7 0.55 1.49 2.92 2.79 6.46 3.74 5.04 1.37 12.44 2.05 20.33 1.68 13.49-0.6 23.28-4.06 21.96-7.69-0.55-1.5-2.92-2.79-6.47-3.75-5.03-1.36-12.44-2.04-20.32-1.68z"/>
		<path id="&lt;Path&gt;" class="s11" d="m766.87 1255.37c4.65 1.26 10.79 2.12 17.43 2.31 13.7 0.42 24.36-2.22 23.81-5.83-0.31-1.9-3.56-3.68-8.53-5.02-4.64-1.25-10.8-2.12-17.42-2.33-13.72-0.38-24.36 2.22-23.83 5.88 0.32 1.87 3.58 3.65 8.54 4.99z"/>
		<path id="&lt;Path&gt;" class="s11" d="m784.18 1217.74q0.94 0.25 1.9 0.49c13.29 3.24 25.39 3.19 27.01-0.13 1.53-3.14-6.83-8.12-19.03-11.41q-1.06-0.29-2.16-0.56c-13.27-3.28-25.36-3.23-27.01 0.13-1.54 3.16 7.03 8.17 19.29 11.48z"/>
		<path id="&lt;Path&gt;" class="s11" d="m940.45 1334.81c5.47 3.97 11.59 6.94 16.63 8.3 3.55 0.95 6.55 1.12 8.41 0.27 4.49-2.06 0.62-9.21-8.75-15.99-5.47-3.96-11.59-6.93-16.63-8.29-3.54-0.96-6.55-1.12-8.41-0.27-4.49 2.06-0.62 9.21 8.75 15.98z"/>
		<path id="&lt;Path&gt;" class="s11" d="m987.13 1312.41c5.08 2.97 10.46 5.22 15.11 6.48 4.96 1.34 9.09 1.54 11.15 0.31 3.94-2.45-1.4-9.36-11.9-15.51-5.09-2.95-10.47-5.2-15.12-6.46-4.96-1.34-9.09-1.54-11.16-0.29-3.91 2.41 1.4 9.36 11.92 15.47z"/>
		<path id="&lt;Path&gt;" class="s11" d="m1024.09 1282.45q0.94 0.28 1.88 0.53c12.26 3.31 23.44 3.63 25.37 0.58 2.05-3.26-6.82-8.97-19.81-12.77q-1.07-0.32-2.14-0.6c-12.2-3.29-23.2-3.54-25.11-0.5-2.03 3.21 6.85 8.92 19.81 12.76z"/>
		<path id="&lt;Path&gt;" class="s11" d="m1036.03 1208.37c4.64 1.25 10.76 2.12 17.37 2.32 9.52 0.27 17.47-0.94 21.32-2.9l-0.01-0.01c-1.53-2.6-3.21-5.05-4.74-7.5l-0.04-0.06-1.29-0.41q-1.84-0.49-3.96-0.9c-11.76 0.92-24.12 2.13-35.57 1.98h-0.14c-1.1 0.74-1.66 1.57-1.52 2.46 0.32 1.89 3.6 3.67 8.58 5.02z"/>
		<path id="&lt;Path&gt;" class="s11" d="m1041.75 1248.57q0.94 0.26 1.9 0.5c13.3 3.25 25.39 3.19 27.01-0.13 1.53-3.14-6.89-8.13-19.03-11.41q-1.06-0.29-2.16-0.56c-13.26-3.28-25.36-3.23-27 0.13-1.55 3.17 6.96 8.15 19.28 11.47z"/>
		<path id="&lt;Path&gt;" class="s11" d="m502.79 1242.67c5.82 9.18 13.93 14.85 18.06 12.85 3.98-2.14 2.61-11.32-3.37-20.5-0.76-1.07-1.37-2.15-2.29-3.21-1.22 0.1-2.44 0.29-3.66 0.42-2.3 0.26-4.6 0.5-6.9 0.8-1.34 0.19-2.57 0.38-3.83 0.58-0.75 0.11-1.55 0.22-2.29 0.34 0.61 1.53 1.22 3.21 2.14 4.74 0.61 1.38 1.38 2.61 2.14 3.98z"/>
		<path id="&lt;Path&gt;" class="s11" d="m454.84 1269.68c8.3 7.49 17.66 11.09 20.92 8.04 3.26-3.04-0.81-11.58-9.11-19.07-8.29-7.48-17.65-11.08-20.92-8.04-3.26 3.05 0.82 11.59 9.11 19.07z"/>
		<path id="&lt;Path&gt;" class="s11" d="m421.66 1309.94c10.01 5.37 19.97 6.7 22.25 2.96 2.27-3.74-4-11.13-14.01-16.51-10.01-5.38-19.97-6.71-22.24-2.97-2.28 3.74 3.99 11.13 14 16.52z"/>
		<path id="&lt;Path&gt;" class="s11" d="m419.51 1434.35c-10.94 2.52-18.74 8-17.41 12.22 1.33 4.23 11.28 5.62 22.23 3.1 10.95-2.51 18.74-7.99 17.41-12.22-1.33-4.23-11.28-5.62-22.23-3.1z"/>
		<path id="&lt;Path&gt;" class="s11" d="m405.87 1398.59c11.4 0.33 20.61-2.94 20.56-7.3-0.04-4.36-9.33-8.16-20.73-8.48-11.4-0.32-20.6 2.95-20.56 7.3 0.05 4.36 9.33 8.16 20.73 8.48z"/>
		<path id="&lt;Path&gt;" class="s11" d="m407.89 1347.07c11.05 2.98 20.96 2 22.12-2.18 1.17-4.18-6.85-9.98-17.91-12.95-11.05-2.98-20.95-2-22.12 2.18-1.16 4.18 6.85 9.98 17.91 12.95z"/>
		<path id="&lt;Path&gt;" class="s11" d="m2138.2 814.31c-5.5-13.62-12.38-26-20.95-36.71l-0.01-0.02-1.41 0.11c-1.09 0.07-2.22 0.18-3.33 0.27-0.93 0.08-1.81 0.12-2.76 0.23 6.42 13.62 15.61 26.02 28.46 36.12z"/>
		<path id="&lt;Path&gt;" class="s11" d="m2164.38 968.88q-0.47-7.8-0.93-17.45c-10.4 4.75-19.43 11.48-26.47 19.9l-0.61 0.61c-2.76 3.21-4.75 6.12-6.28 8.87l-2.45 10.26c-0.45 1.84-0.91 3.52-1.53 5.36-0.15 0.92-0.46 1.83-0.76 2.75 0 2.61 0.46 5.2 1.07 7.81 0.77 4.28 1.83 8.87 2.75 14.08 1.38 8.57 1.08 18.82-2.75 28.77-3.67 9.95-10.87 19.44-23.11 26.47-14.23 8.42-26.78 3.22-40.1 3.52-10.25 7.66-21.73 14.7-34.13 21.13-1.07 0.61-1.98 1.06-3.06 1.53-7.19 3.67-14.54 7.03-22.34 10.1 20.05 99.78-74.68 151.2-218.55 115.39-17.29-4.29-34.43-9.64-51.42-15.92-0.92-0.3-1.68-0.61-2.6-1.07-3.21 4.59-5.81 9.18-8.11 13.62-7.96 16.22-22.04 32.6-45.61 40.4-0.61 0.16-1.22 0.47-1.83 0.47-5.51 1.83-10.72 2.9-15.61 3.52-28.01 3.82-47.75-8.12-71.32-15.01-2.91-0.91-5.66-1.52-8.42-1.98-5.82 7.65-12.39 14.38-19.59 20.81-2.75 2.6-5.51 5.05-8.41 7.5l-0.77 0.61c-7.65 6.43-15.92 11.94-24.18 17.29-1.68 1.08-3.37 2.15-5.36 3.07-9.95 5.5-23.72 10.56-33.67 8.41l-0.3-0.15c-2.3-0.15-4.59-1.22-7.04-3.21-2.45-2.15-5.05-4.29-7.5-6.58 0.31 6.58 0.15 12.85-0.31 19.13-7.96 110.64-115.39 132.53-241.19 50.2-6.74-1.23-13.62-2-21.28 0.61-16.83 5.5-13.31 18.67-33.36 17.9-25.71-0.76-25.1 3.37-42.08 19.13-15.77 14.85-20.97 10.56-39.65 8.42-38.25-4.44-45.29 36.42-78.04 46.06-26.02 7.66-43.62-5.05-60.15-13.61l-1.22-0.62c-9.65-4.9-18.06-8.57-29.08-7.65h-0.61c-4.14 0.46-8.73 1.53-13.78 3.52-0.61 0.31-1.22 0.46-1.83 0.76-10.72 4.29-19.29 10.72-26.02 17.91-5.05 5.21-9.18 10.87-12.7 16.38-9.49 15.3-25.26 30.3-49.44 35.66-38.87 8.56-59.99-8.88-87.08-19.9-38.41-15.92-67.34 9.18-104.68 9.49-3.06 3.21-6.27 6.42-9.49 9.49-96.11 92.43-192.98 103.76-235.07 34.89-7.5-1.68-15-3.52-22.34-5.97-20.2-6.73-38.42-15-54.49-28.92-26.62-23.26-40.09-56.63-42.7-90.75-0.76-10.11-0.3-20.36 0.92-30.77-7.04-1.99-16.07-3.37-27.39-4.13-5.36-0.46-10.87-0.61-16.68-0.77-4.44 0-9.19-0.15-13.78-0.3-11.02-0.15-22.04-0.61-32.14-2.29q0.24 28.62 1.4 57.03 0.39 9.6 0.91 19.18c1.51 27.89 3.81 55.64 7.18 83.25 2.6 23.42 3.68 55.87 24.79 73.31 8.88 7.35 24.34 11.63 42.55 13.93 41.93 5.51 99.33 0.92 130.85 0 75.76-1.99 152.28-7.66 228.49-17.15 85.25-10.55 288.34-31.21 337-107.73 70.71 45.76 143.86 89.22 221.3 127.79 24.03 12.08 55.4 30.45 88.15 28.31 13.78-0.92 29.69-7.2 46.22-16.53 37.65-21.12 78.05-56.93 101.78-75.76 56.93-44.99 110.95-92.59 161.3-142.17 28.77-28.32 78.67-75.76 116.47-125.19 117.38-5.97 235.07-14.85 351.23-31.68 28.01-3.98 66.57-7.65 89.22-23.87 9.64-6.89 16.22-17.91 20.97-30.77 10.71-29.38 11.32-68.72 13.62-90.44 5.36-52.19 6.43-104.38 3.21-156.26z"/>
		<path id="&lt;Path&gt;" class="s11" d="m1413.4 1086.22c7.36-8.65 10.51-17.82 7.03-20.47-3.49-2.66-12.27 2.21-19.64 10.86-7.36 8.66-10.51 17.83-7.03 20.48 3.48 2.65 12.27-2.21 19.64-10.87z"/>
		<path id="&lt;Path&gt;" class="s11" d="m1460.7 1201.31c-11.11 1.64-19.88 6.56-19.58 10.99 0.31 4.42 9.56 6.68 20.67 5.04 11.12-1.64 19.88-6.55 19.58-10.98-0.3-4.42-9.56-6.69-20.67-5.05z"/>
		<path id="&lt;Path&gt;" class="s11" d="m1438.58 1163.73c1.54 4.07 11.31 3.77 21.81-0.69 10.5-4.45 17.76-11.37 16.21-15.44-1.54-4.07-11.31-3.77-21.81 0.69-10.5 4.45-17.76 11.36-16.21 15.44z"/>
		<path id="&lt;Path&gt;" class="s11" d="m1418.35 1121.82c2.6 3.47 12.19 0.77 21.4-6.02 9.21-6.8 14.57-15.12 11.96-18.59-2.61-3.47-12.19-0.77-21.4 6.03-9.21 6.79-14.57 15.11-11.96 18.58z"/>
		<path id="&lt;Path&gt;" class="s11" d="m1990.31 992.79c-3.57 0.84-5.99 2.05-6.58 3.53-1.45 3.59 8.23 7.37 21.69 8.41 7.87 0.63 15.29 0.19 20.37-1 3.57-0.84 5.99-2.05 6.58-3.53 1.45-3.58-8.23-7.36-21.69-8.42-7.87-0.62-15.29-0.18-20.37 1.01z"/>
		<path id="&lt;Path&gt;" class="s11" d="m2004.49 955.4c-5 1.17-8.31 2.85-8.68 4.73-0.67 3.6 9.89 6.59 23.6 6.61 6.64 0.04 12.81-0.62 17.5-1.72 5-1.18 8.31-2.85 8.7-4.71 0.64-3.64-9.9-6.59-23.62-6.66-6.64-0.01-12.81 0.65-17.5 1.75z"/>
		<path id="&lt;Path&gt;" class="s11" d="m2011.33 915.46c-12.29 2.89-20.81 7.59-19.39 10.77 1.51 3.38 13.6 3.83 26.99 1.03q0.97-0.21 1.92-0.43c12.36-2.91 21.09-7.62 19.65-10.83-1.53-3.42-13.62-3.87-26.98-1.03q-1.11 0.23-2.19 0.49z"/>
		<path id="&lt;Path&gt;" class="s11" d="m1957.9 864.92c4.68-1.1 10.11-3.15 15.28-5.93 10.7-5.8 16.23-12.57 12.4-15.11-2.02-1.3-6.18-1.22-11.21-0.05-4.68 1.1-10.11 3.15-15.28 5.93-10.7 5.8-16.23 12.57-12.4 15.11 2.02 1.31 6.18 1.23 11.21 0.05z"/>
		<path id="&lt;Path&gt;" class="s11" d="m1974.84 893.07c1.83 3.12 12.95 3.18 25.37 0.26q0.95-0.22 1.91-0.47c13.07-3.41 22.14-8.83 20.22-12.1-1.82-3.1-12.88-3.2-25.13-0.33q-1.07 0.26-2.15 0.53c-13.1 3.37-22.16 8.79-20.22 12.11z"/>
		<path id="&lt;Path&gt;" class="s11" d="m1835.49 1046.41c1.83 0.91 4.84 0.85 8.42 0.01 5.08-1.19 11.3-3.96 16.89-7.74 9.59-6.46 13.7-13.48 9.27-15.68-1.83-0.91-4.84-0.85-8.41-0.01-5.08 1.19-11.3 3.96-16.89 7.74-9.6 6.46-13.7 13.48-9.28 15.68z"/>
		<path id="&lt;Path&gt;" class="s11" d="m1788.42 1020.67c2.01 1.3 6.15 1.23 11.15 0.06 4.69-1.11 10.14-3.18 15.31-5.98 10.72-5.76 16.26-12.53 12.43-15.07-2.03-1.32-6.17-1.24-11.17-0.07-4.69 1.1-10.14 3.17-15.32 5.95-10.7 5.8-16.26 12.53-12.4 15.11z"/>
		<path id="&lt;Path&gt;" class="s11" d="m1771.88 971.69c-13.1 3.37-22.16 8.78-20.22 12.1 1.83 3.12 13.01 3.17 25.38 0.27q0.94-0.23 1.89-0.47c13.08-3.41 22.14-8.83 20.22-12.11-1.81-3.09-12.81-3.21-25.11-0.32q-1.08 0.25-2.16 0.53z"/>
		<path id="&lt;Path&gt;" class="s11" d="m1760.48 949.58q0.98-0.21 1.93-0.43c12.41-2.91 21.08-7.62 19.65-10.83-1.54-3.41-13.62-3.87-26.99-1.02q-1.11 0.23-2.18 0.48c-12.24 2.87-20.82 7.59-19.4 10.78 1.51 3.37 13.6 3.83 26.99 1.02z"/>
		<path id="&lt;Path&gt;" class="s12" d="m1649.85 1303.58c-4.9 0.31-9.95 0.61-14.85 0.77-29.53 37.49-66.42 73.46-91.37 97.94l-8.41 8.27c-8.27 8.11-16.68 16.22-25.1 24.33-37.8 35.66-77.9 70.4-119.53 103.3-4.59 3.68-9.79 7.96-15.61 12.71-19.89 16.38-48.66 39.94-74.99 54.79-13.77 7.65-26.78 12.85-37.65 13.62-24.02 1.53-48.51-10.87-68.25-20.97l-7.65-3.82c-80.2-39.95-155.65-86.32-226.81-133.31 0.76 5.21 1.22 10.41 0.91 15.62 68.26 44.99 140.65 88.91 217.48 127.18l7.34 3.67c21.12 10.71 47.29 24.18 75.45 22.34 13.93-0.92 29.69-7.19 45.76-16.22 27.4-15.46 55.71-38.72 77.14-56.32 5.66-4.59 10.86-8.88 15.45-12.4 51.27-40.71 100.55-84.17 145.85-128.86l8.27-8.11c26.63-25.86 65.96-64.43 96.57-104.53z"/>
		<path id="&lt;Path&gt;" class="s12" d="m913.1 1445.3c1.84 10.1 2.76 20.35-0.46 29.38-0.46 1.54-1.07 3.06-1.83 4.44-30.61 68.56-204.47 89.53-288.79 99.63l-12.71 1.53c-12.55 1.69-25.1 3.06-37.65 4.44-55.7 5.81-111.87 9.64-167.27 11.18-6.12 0.15-13.16 0.45-20.97 0.76-27.09 1.22-66.11 2.91-95.5-0.92-15.3-1.99-27.85-5.36-34.89-11.17-15.46-12.7-18.06-36.74-20.05-56.02l-0.92-7.34c-5.35-44.54-7.8-89.84-8.41-134.99-4.44 0-9.19-0.15-13.78-0.3 0.46 46.06 2.76 92.28 8.27 137.73l0.91 7.2c2.15 20.66 4.9 46.22 22.96 61.22 9.03 7.34 24.18 11.63 42.09 13.92 30.45 3.98 69.02 2.14 98.1 0.92 7.65-0.31 14.84-0.76 20.81-0.76 68.41-1.99 138.04-7.19 206.61-15.62l12.55-1.53c85.7-10.4 260.17-31.37 299.2-102.99 1.98-3.21 3.51-6.58 4.74-10.1 2.3-6.74 2.91-13.62 2.45-20.36-0.15-5.36-1.07-10.86-2.14-16.22-4.14 0.46-8.73 1.53-13.78 3.52 0.31 0.76 0.46 1.53 0.46 2.45z"/>
		<path id="&lt;Path&gt;" class="s12" d="m2126.11 996.43c0 1.37 0.16 2.9 0.16 4.28 0 2.14 0.15 4.13 0.15 6.28 0.77 4.28 1.83 8.87 2.75 14.08 1.38 8.57 1.08 18.82-2.75 28.77-0.61 21.88-1.99 43.62-4.29 65.34-0.3 4.29-0.76 9.19-1.07 14.55-1.37 18.51-3.36 45.45-11.02 66.11-3.82 10.71-9.18 19.74-16.83 25.1-16.68 11.78-45.3 15.76-68.26 18.98l-8.87 1.22c-102.24 15-206.76 22.81-307.31 27.86-12.25 0.76-24.34 1.37-36.43 1.83-4.59 0.31-9.33 0.46-13.92 0.76-9.49 0.47-18.98 0.77-28.47 1.23-4.59 0.3-10.1 0.77-16.07 1.38-17.9 1.53-41.93 3.67-53.26-1.38-2.75 2.6-5.51 5.05-8.41 7.5 14.23 7.5 40.86 5.2 62.13 3.37 5.66-0.61 11.02-1.08 15.3-1.23 7.35-0.3 14.7-0.61 22.2-1.07 4.74-0.15 9.64-0.31 14.38-0.61q18.14-0.69 36.27-1.84c103-5.2 209.98-13.16 314.96-28.31l8.73-1.22c24.64-3.53 55.25-7.66 74.68-21.58 9.64-6.89 16.38-17.76 20.97-30.31 7.8-21.57 9.79-47.9 11.17-67.95 0.31-5.35 0.76-10.1 1.22-14.23 4.75-47.14 5.82-94.73 2.91-141.41l-0.15-2.6-0.61 0.61c-2.76 3.21-4.75 6.12-6.28 8.87l-2.45 10.26c-0.45 1.84-0.91 3.52-1.53 5.36z"/>
		<path id="&lt;Path&gt;" class="s13" d="m678.33 1225.07v-0.15c-0.45-0.61-0.91-1.38-1.37-1.99-2.45-3.37-5.05-6.58-7.65-9.49q-1.84 0.23-3.68 0.46c-3.63 0.4-7.23 0.86-10.82 1.29-3.22 0.39-6.43 0.72-9.68 1.16h-0.16c-4.9 0.46-9.79 1.07-14.69 1.68-4.75 0.46-9.34 1.07-14.08 1.69h-0.15c-5.36 0.45-10.56 1.07-15.77 1.83l-1.17 0.09-0.82 0.06c2.15 12.71 9.03 27.24 19.44 41.33 19.74 26.78 45.3 42.85 63.66 35.5 1.69-0.61 3.37-1.38 4.9-2.45l1.23-0.92c1.38-0.91 2.44-2.14 3.52-3.21l0.76-1.07c0.31-0.46 0.61-0.77 1.07-1.38v-0.15l0.16-0.31v-0.15l0.91-1.38 0.62-1.07c0.61-1.38 1.07-2.75 1.53-4.28 0.15-0.77 0.3-1.38 0.46-2.3 0.3-0.61 0.46-1.38 0.46-2.14 0.15-1.69 0.3-3.52 0.3-5.51v-0.15-0.31c-0.15-5.05-1.22-10.56-3.21-16.38-3.06-9.64-8.42-20.04-15.77-30.3z"/>
		<path id="&lt;Path&gt;" class="s13" d="m2116.01 803.74c-0.3-0.91-0.61-1.83-1.07-2.75-3.06-7.35-9.49-14.23-18.21-20.35h-0.15c-5.51 1.22-11.02 2.91-16.53 4.89-0.62 0.16-1.38 0.46-1.99 0.61-2.11 0.77-4.11 1.59-6.13 2.4l-1.07 0.42c-0.85 0.34-1.75 0.65-2.6 1.01q-2.29 0.92-4.59 1.84c-1.92 0.85-3.8 1.74-5.69 2.62q-0.99 0.45-1.98 0.91-1.47 0.67-2.92 1.34-4.62 2.21-9.08 4.43l-0.38 0.19-0.78 0.4c-2.46 1.19-4.89 2.47-7.28 3.75-0.77 0.41-1.59 0.79-2.34 1.2-4.14 2.15-7.96 4.14-11.48 6.12h-0.16c-1.98 1.23-3.98 2.15-5.96 3.22-0.76 0.46-1.53 0.91-2.44 1.37l-0.01 0.01c-0.46 0.3-1.07 0.61-1.69 0.92 2.61 1.68 5.51 3.21 8.58 4.58 4.89 2.61 10.25 4.75 15.91 6.89 1.69 0.46 3.37 1.07 5.05 1.54 14.39 4.43 28.47 6.42 40.41 5.81q6.88-0.23 12.85-1.84c2.14-0.46 4.28-1.07 6.12-1.99 3.98-1.53 7.35-3.67 9.95-6.42 2.6-2.46 4.44-5.67 5.66-9.19 0.77-2.44 1.07-4.9 1.07-7.34 0-2.15-0.46-4.44-1.07-6.59z"/>
		<path id="&lt;Path&gt;" class="s13" d="m1774.88 924.5l0.14 0.68 0.01 0.08h0.16l-0.05-0.13z"/>
		<path id="&lt;Path&gt;" class="s13" d="m1877.27 882.56q-2.93 1.25-5.85 2.5c-7.33 3.15-14.63 6.3-22.01 9.44-3.73 1.62-7.42 3.15-11.11 4.7-3.27 1.39-6.54 2.81-9.85 4.18q-1.43 0.57-2.86 1.14-0.87 0.35-1.74 0.69c-1.37 0.61-2.9 1.23-4.43 1.84q-3.86 1.61-7.73 3.24-2.23 0.93-4.48 1.84c-2.25 0.92-4.49 1.86-6.77 2.72-1.38 0.61-2.75 1.23-4.13 1.69l-1.49 0.66-1.27 0.56c-2.45 1.08-5.05 1.99-7.5 3.06-3.67 1.54-7.19 2.91-10.86 4.44l0.15 0.61c0.46 1.08 1.07 2.15 1.68 3.22 2.91 4.74 7.66 8.72 13.78 11.94 8.72 4.43 20.04 7.19 33.05 8.11 6.28 0.46 13.01 0.46 19.75 0l1.38-0.16c1.83-0.15 3.67-0.3 5.35-0.46 9.64-1.06 18.67-3.06 26.48-5.97 1.53-0.45 3.06-0.91 4.44-1.68 16.98-6.88 27.54-17.9 26.32-31.37-0.15-2.6-0.77-4.9-1.84-7.2-4.13-9.33-14.39-16.06-28.46-19.74z"/>
		<path id="&lt;Path&gt;" class="s13" d="m1645.41 1033.46c-5.05-10.56-13.62-21.58-24.64-31.83-3.22-2.91-6.43-5.81-9.64-8.27-2.45-1.98-4.75-3.67-7.2-5.35h-0.15c-2.74 0.91-5.54 1.93-8.32 2.92-1.87 0.67-3.69 1.3-5.61 1.98-3.82 1.22-7.65 2.6-11.63 3.97q-2.83 0.95-5.66 1.89-4.74 1.58-9.49 3.17c-2.6 0.91-5.2 1.83-7.96 2.75-4.44 1.53-8.87 3.06-13.31 4.44 3.52 13.31 13.92 28.47 28.62 42.24 12.39 11.78 25.86 20.35 38.26 24.49 4.44 1.68 8.72 2.75 12.7 2.9 8.88 0.92 16.68-1.22 22.5-6.89 1.83-1.83 3.36-3.82 4.44-6.11v-0.16h0.15l0.46-1.22 0.3-0.77c0.46-1.07 0.77-2.29 1.07-3.52l0.16-1.07c0.3-1.53 0.46-3.22 0.46-4.9 0-3.82-0.77-8.11-2.14-12.4-0.77-2.59-2-5.35-3.37-8.26z"/>
		<path id="&lt;Path&gt;" class="s13" d="m1245.35 1111.67c-1.09 0.38-2.15 0.69-3.23 1.03q-3.83 1.2-7.7 2.25l-0.85 0.23c-1.1 0.35-2.24 0.66-3.35 1q-7.83 2.4-15.78 4.67l-1.22 0.3c-5.21 1.4-10.41 2.87-15.62 4.21-1.07 0.28-2.14 0.59-3.21 0.84q-3.85 1.06-7.7 2.11-1.2 0.32-2.4 0.65c5.36 6.58 11.94 13.16 19.74 19.44 11.64 9.33 23.73 16.22 35.05 20.2 16.53 5.51 31.22 4.44 39.79-5.51 1.69-1.99 3.06-4.13 3.98-6.58 0.61-1.38 1.07-2.75 1.23-4.29 0.3-1.53 0.46-3.06 0.46-4.74 0-12.55-8.27-27.24-21.74-41.17-5.81 1.99-11.63 3.82-17.45 5.36z"/>
		<path id="&lt;Path&gt;" class="s13" d="m310.73 1261.95c-0.58 0.09-1.12 0.23-1.66 0.33l-1.4 0.29c-4.75 0.76-9.03 1.68-13.78 2.6h-0.3c-1.69 0.15-3.22 0.46-4.9 0.92-2.6 0.3-5.05 0.76-7.66 1.37h-0.15c-0.62 0.1-1.23 0.24-1.85 0.34-1.37 0.22-2.74 0.42-4.11 0.74-3.76 0.71-7.46 1.53-11.16 2.42-1.89 0.45-3.77 0.88-5.68 1.4q-0.86 0.2-1.73 0.4c-2.18 0.49-4.38 1.02-6.69 1.74l-0.17 0.05c-1.51 0.4-3.01 0.86-4.52 1.28-5.47 1.54-10.92 3.2-16.27 5.1l-0.16 0.15c-1.22 2-2.45 3.83-3.52 5.67v0.15c-2.9 4.9-5.35 9.79-7.04 14.39v0.15c-2.9 7.8-4.28 15.15-3.52 21.43 0 0.76 0.16 1.37 0.16 1.99 0.46 3.51 1.68 6.73 3.52 9.64 1.37 2.14 2.91 3.97 5.05 5.66l0.61 0.46c12.7 9.49 31.53 4.43 50.04-9.64q4.59-3.68 9.19-7.81c1.99-1.99 3.97-3.83 5.97-5.97 1.68-1.83 3.36-3.67 5.05-5.66 5.35-6.27 10.1-12.71 13.77-18.97 5.82-9.65 9.49-19.14 10.56-27.56 0.15-1.53 0.31-2.9 0.31-4.44-1.23 0.16-2.3 0.47-3.53 0.62-1.52 0.3-2.9 0.46-4.43 0.76z"/>
		<path id="&lt;Path&gt;" class="s14" d="m616.05 1219.72c-3.06 3.06-3.98 7.8-2.91 13.77 1.37 9.03 6.88 20.66 15.3 32.14 14.85 20.04 32.6 32.29 42.55 25.71 2.14-1.38 3.52-3.37 4.13-5.82 0.61-1.53 0.76-3.21 0.76-5.05v-0.61c-0.15-3.52-1.07-7.65-2.75-12.09v-0.31c-2.75-7.19-7.35-15.15-13.16-23.26-9.49-13.16-20.51-22.8-29.69-26.17-4.75 0.46-9.34 1.07-14.08 1.69z"/>
		<path id="&lt;Path&gt;" class="s15" d="m667.01 1237.16v0.15l0.15 0.31h0.15c1.54 1.68 2.91 3.52 4.29 5.36 12.09 16.68 19.44 33.82 20.2 47.9 0.31-0.46 0.61-0.77 1.07-1.38v-0.15l0.16-0.31v-0.15l0.91-1.38 0.62-1.07c0.61-1.38 1.07-2.75 1.53-4.28 0.3-1.38 0.61-3.07 0.76-4.75 0.16-1.38 0.31-2.91 0.31-4.44v-0.61-0.46c-0.15-5.05-1.22-10.71-3.06-16.53-3.06-9.64-8.42-20.04-15.77-30.3v-0.15c-0.45-0.61-0.91-1.38-1.37-1.99-2.45-3.37-5.05-6.58-7.65-9.49q-1.84 0.23-3.68 0.46c-3.63 0.4-7.23 0.86-10.82 1.29-3.22 0.39-6.43 0.72-9.68 1.16 7.49 5.2 14.99 12.4 21.88 20.81z"/>
		<path id="&lt;Path&gt;" class="s14" d="m2051.12 827.01c8.57 2.6 16.68 4.29 23.88 4.74 5.51 0.46 10.56 0.16 14.54-0.61 3.36-0.77 6.12-2.14 8.11-3.83q2.29-1.83 3.21-4.59c2.91-8.87-7.96-18.98-25.1-26.32l-0.15-0.15c-3.67-1.53-7.65-3.06-11.94-4.44-1.92 0.85-3.8 1.74-5.69 2.62q-0.99 0.45-1.98 0.91-1.47 0.67-2.92 1.34-4.62 2.21-9.08 4.43l-0.38 0.19-0.78 0.4c-2.46 1.19-4.89 2.47-7.28 3.75-0.77 0.41-1.59 0.79-2.34 1.2-4.14 2.15-7.96 4.14-11.48 6.12 6.89 5.52 17.29 10.57 29.38 14.24z"/>
		<path id="&lt;Path&gt;" class="s15" d="m2080.05 785.53c-0.62 0.16-1.38 0.46-1.99 0.61 1.68 0.62 3.37 1.38 5.05 2 14.54 5.81 26.47 13.62 33.97 22.19 0-2.15-0.46-4.44-1.07-6.59-0.3-0.91-0.61-1.83-1.07-2.75-3.06-7.35-9.49-14.23-18.21-20.35h-0.15c-5.51 1.22-11.02 2.91-16.53 4.89z"/>
		<path id="&lt;Path&gt;" class="s14" d="m1803.79 926.15c0.99 11.67 22.15 17.14 47.52 15.36 25.37-1.77 45.35-10.11 44.35-21.78-1-11.67-22.15-17.14-47.52-15.37-25.37 1.77-45.35 10.11-44.35 21.79z"/>
		<path id="&lt;Path&gt;" class="s15" d="m1775.19 925.26l-0.05-0.13-0.26-0.63 0.14 0.68 0.01 0.08z"/>
		<path id="&lt;Path&gt;" class="s15" d="m1793.55 917.76c-2.45 1.08-5.05 1.99-7.5 3.06-3.67 1.54-7.19 2.91-10.86 4.44l0.15 0.61c0.46 1.08 1.07 2.14 1.68 3.22 2.91 4.74 7.66 8.72 13.78 11.94q-1.61-3.45-1.84-7.35c-0.46-5.82 1.07-11.17 4.59-15.92z"/>
		<path id="&lt;Path&gt;" class="s15" d="m1852.93 894.19c20.82-1.53 39.95 1.38 52.8 8.11-4.13-9.33-14.39-16.07-28.46-19.74q-2.93 1.25-5.85 2.5c-7.33 3.15-14.63 6.3-22.01 9.44 1.07-0.15 2.3-0.15 3.52-0.31z"/>
		<path id="&lt;Path&gt;" class="s14" d="m1561.64 1007.66c-8.44 8.34 1.42 27.21 19.74 44.39 18.32 17.18 38.17 26.18 46.61 17.82 8.44-8.34-1.42-27.2-19.75-44.38-18.32-17.18-38.16-26.18-46.6-17.83z"/>
		<path id="&lt;Path&gt;" class="s15" d="m1578.22 996.88c13.01 3.68 27.4 12.55 40.71 24.95v0.15l0.46 0.31c15 13.93 25.25 29.39 28.77 43l0.16 0.16v0.15h0.15l0.46-1.22 0.3-0.77c0.46-1.07 0.77-2.29 1.07-3.52l0.16-1.07c0.3-1.53 0.46-3.22 0.46-4.9 0-3.82-0.77-8.11-2.14-12.4-0.77-2.59-2-5.35-3.37-8.26-5.05-10.56-13.62-21.58-24.64-31.83-3.21-2.91-6.43-5.81-9.64-8.27-2.45-1.98-4.75-3.67-7.2-5.35h-0.15c-2.74 0.91-5.54 1.93-8.32 2.92-1.87 0.67-3.69 1.3-5.61 1.98-3.82 1.22-7.65 2.6-11.63 3.97z"/>
		<path id="&lt;Path&gt;" class="s14" d="m1215.05 1148.09c6.89 5.51 13.78 10.1 20.21 13.16h0.15c12.09 5.82 22.49 6.89 27.39 1.07 7.81-8.88-3.52-26.93-23.26-42.7-1.99-1.53-3.98-3.06-5.97-4.44-1.1 0.35-2.24 0.66-3.35 1q-7.83 2.4-15.78 4.67l-1.22 0.3c-5.21 1.4-10.41 2.87-15.62 4.21-1.07 0.28-2.14 0.59-3.21 0.84 4.44 7.05 11.79 14.7 20.66 21.89z"/>
		<path id="&lt;Path&gt;" class="s15" d="m1250.41 1115.49c16.22 13.01 27.7 27.7 32.44 41.02 0.61-1.38 1.07-2.75 1.22-4.29 0.31-1.53 0.47-3.06 0.47-4.74 0-12.55-8.27-27.24-21.74-41.17-5.81 1.99-11.63 3.82-17.45 5.36 1.69 1.22 3.37 2.45 5.06 3.82z"/>
		<path id="&lt;Path&gt;" class="s14" d="m288.69 1266.09c-2.6 0.3-5.05 0.76-7.66 1.37h-0.15c-7.8 3.68-16.83 11.02-25.25 20.51-0.61 0.61-1.22 1.38-1.84 1.99-16.37 19.13-24.18 39.02-14.99 46.37 7.04 5.82 19.89 0.46 32.9-11.17 3.83-3.37 7.81-7.35 11.48-11.78 2.14-2.45 4.13-5.05 5.82-7.5 1.37-1.69 2.6-3.37 3.51-5.05 4.14-6.28 7.04-12.25 8.42-17.45 1.08-3.21 1.38-6.27 1.08-8.88v-0.15c-0.31-3.06-1.54-5.51-3.83-7.34-1.23-0.92-2.61-1.69-4.29-1.84h-0.3c-1.69 0.15-3.22 0.46-4.9 0.92z"/>
		<path id="&lt;Path&gt;" class="s15" d="m225.02 1286.75v0.15c-2.9 4.9-5.35 9.79-7.04 14.39v0.15c-2.9 7.8-4.28 15.15-3.52 21.43 0 0.76 0.16 1.37 0.16 1.99 0.46 3.51 1.68 6.73 3.52 9.64 0.76-5.82 2.91-12.25 5.96-18.68 4.29-9.18 10.56-18.67 18.37-27.85 2.91-3.36 5.97-6.58 8.88-9.64 2.29-2.14 4.59-4.13 6.73-5.97q-0.86 0.2-1.73 0.4c-2.18 0.49-4.38 1.02-6.69 1.74l-0.17 0.05c-1.51 0.4-3.01 0.86-4.52 1.28-5.47 1.54-10.92 3.2-16.27 5.1l-0.16 0.15c-1.22 2-2.45 3.83-3.52 5.67z"/>
		<path id="&lt;Path&gt;" class="s15" d="m318.38 1265.01c0.15-1.53 0.31-2.9 0.31-4.44-1.23 0.16-2.3 0.47-3.53 0.62 1.23 1.07 2.3 2.45 3.22 3.82z"/>
		<path id="&lt;Path&gt;" class="s16" d="m190.08 1270.06c64-25.4 131.76-32.53 199.17-43.05 71.41-11.14 143.36-19.19 215.18-27.25 180.43-20.23 367.59-32.94 542.98-81 178.37-48.87 352.53-112.8 525.82-177.04 69.45-25.75 138.52-52.68 205.98-83.32 50.76-23.06 100.57-48.2 149.67-74.61 27.09-14.58 55.26-29.93 86-31.03 30.74-1.1 64.62 17.17 69.98 47.46-4.95-28-23.57-41.87-46.52-47.31-25.88-6.13-57.28-1.52-80.82 5.64-41.47 12.64-79.7 35.34-119.62 51.84-173.52 71.73-353.27 126.74-531.43 185.57-87.53 21.89-170.31 59.66-258.49 79.94-88.9 22.22-179.62 38.65-271.13 52.37-174.34 26.14-349.59 46.76-522.53 81.48-50.43 10.12-100.99 21.38-148.34 41.47-43.86 18.6-115.37 60.08-84.36 118.78-21.08-49.65 29.16-84.34 68.46-99.94z"/>
		<path id="&lt;Path&gt;" class="s16" d="m1828.05 720.75c9.3 15.7 18.29 34.6 25.47 51.56 50.18-7.18 172.76-31.56 117.46-96.76-19.05-22.45-56-30.38-82.36-40.54-51.19-19.73-97.78-35.45-152.37-37.22 14.51 17.62 27.81 38.59 39.4 54.54 16.72 22.99 38.02 44.12 52.4 68.42z"/>
		<path id="&lt;Path&gt;" class="s16" d="m687.57 479.58c11.82 33.29 24.26 65.38 36.21 98.17 11.78-8.93 24.57-15.91 36.76-13.33 37.34 7.92 4.78 66.17-11.67 88.39 7.79 27.09 14.39 53.91 23.79 81.07 14.79 42.68 31.52 83.72 44.61 127.58 19.45 65.21 40.2 129.69 60.34 194.61 73.04 4.53 178.07-15.26 231.91-67.54 9.58-9.31 17.39-19.85 25.92-29.77-17.29-2.81-44.88-10.98-66.95-22.57-25.75-13.52-43.89-31.64-29.05-51.19 10.93-14.39 39.17-19.7 67.05-18.67-4.76-11.29-9.49-22.59-14.36-33.85-11.42-26.42-20.48-53.03-29.82-79.65-7.73 1.53-14.35 0.68-11.32-5.31 0.88-1.75 3.81-3.76 7.49-5.51-2.37-6.64-4.75-13.28-7.24-19.92-11.65-31.15-26.82-58.87-39-89.84-16.9-42.98-29.86-84.99-45.47-127.91-6.35-17.45-12.93-34.65-19.49-51.84-4.71-3.34-7.14-8.12-5.48-14.37-6.67-17.49-13.22-35.06-19.53-52.85-29.68-16.09-59.58-31.24-90.4-44.4 7.22 2.69 10.41 8.24 5.91 17.92-9.51 20.43-109.46 38.26-88.34 3.83 5.17-8.43 27.73-17.72 49.03-21.76 12.48-2.37 24.49-2.91 32.34-0.44-16.65-7.08-33.58-13.59-50.88-19.34-22.33-7.43-45.75-18.43-69.07-21.7-12.63-1.76-24.83 1.81-38.13-0.57-18.55-3.32-34.8-6.86-52.61-8.34 4.92 13.59 10.56 26.35 15.76 40.39 18.36 49.57 34 98.94 51.69 148.71z"/>
		<path id="&lt;Path&gt;" class="s16" d="m292.24 877.13c-2.38 12.78-4.28 25.6-6.2 38.41 1.96 0.15 3.94 0.47 5.89 0.91q0.05-1.08 0.09-2.16c0.27-11.44 0.22-24.05 0.22-37.16z"/>
		<path id="&lt;Path&gt;" class="s16" d="m392.84 410.68c-4.42 8.27-8.69 16.89-12.7 25.75 4.95 0.79 10.08 1.92 14.97 3.39q0.87 0.27 1.73 0.56c-1.62-10.22-2.97-20.15-4-29.7z"/>
		<path id="&lt;Path&gt;" class="s16" d="m1015.09 583.01c29.54 72.23 66.69 145.29 92.39 217.92 7.62 21.52 15.15 44.57 22.37 67.79 12.34 2.09 23.52 5.37 31.63 9.64 22.71 12 34.46 27.46 36.86 41.71 18.1-5.06 37.05-7.72 55.52-10.47 72.17-10.73 159.72 21.21 223.31-22.42 4.41-3.02 8.51-6.33 12.51-9.73-13.03-26.71-26.01-53.43-39.71-79.89-12.77-24.66-21.24-50.4-32.08-75.61-9.16-21.3-21.84-39.42-31.51-60.5-13.42-29.27-23.17-58.49-35.38-87.94-9.55-23.03-19.9-45.26-29.52-68.08q-4.71-1.08-9.42-2.12c-43.47-9.45-86.75-16.69-130.46-22.48 3.32 17.74-9.97 47.89-15.89 57.45-16.39 26.45-47.31 40.15-75.32 50.57q-3.04 1.13-6.36 1.7c-18.21 3.16-40.59-6.3-30.9-28.2 4.25-9.61 15.89-14.17 23.53-19.93 15.39-11.6 32.65-26.77 46.29-40.48 6.31-6.35 14.28-17.48 23.36-25.4-7.89-0.89-15.74-1.88-23.67-2.68-41.99-4.26-77.34-20.29-112.7-39.56-4.7 11.84-23.92 21.65-34.81 23.62l3.22-0.11c-4.28 0.63-8.8 0.74-13.18 0.36 18 43.65 34.83 87.94 49.92 124.84z"/>
		<path id="&lt;Path&gt;" class="s16" d="m1466.28 771.18c12.2 30.52 23.79 65.87 33.13 97.8 10.91-9.71 21.83-19.26 36.11-25.15 37.4-15.42 79.88-3.49 118.87-13.84 12.06-3.19 23.6-7.76 34.93-12.9-39.18-13.16-108.3-64.3-49.98-101.6 26.5-16.95 104.53 12.05 121.28 34.13 9.19 12.12 13.7 22.5 14.85 31.38 22.44-4.55 43.87-4.31 68.78-7.44-8.53-11.6-17.06-23.19-25.99-34.52-8.98-11.4-15.21-24.28-22.96-36.38-6.55-10.23-15.29-17.94-22.16-27.94-9.53-13.89-16.7-28.49-25.46-42.72-1.56-2.54-3.18-5.03-4.79-7.53q-1.56 1.73-3.59 3.32c-6.09 4.71-14.61 8.24-18.85 8.99-17.03 2.99-25.18-13.15-11.19-24.05 4.55-3.54 14.22-5.87 22.52-5.29q-3.19-4.89-6.28-9.89c-134.32-1.55-259.21-56.85-388.64-88.49 20.46 38.19 38.85 81.3 55.08 114.95 23.62 48.97 54.37 97.22 74.34 147.17z"/>
		<path id="&lt;Path&gt;" class="s16" d="m405.28 443.56c12.58 5.6 19.78 13.39 9.38 21.36-0.7 0.53-1.59 0.96-2.59 1.32 11.4 39.16 21.3 78.17 32.62 117.52 12.86 44.69 27.31 87.05 39.17 132.57 8.54 32.8 12.75 64.7 21.82 97.32 10.73 38.6 23.54 75.8 32.48 115.4q0.48 2.05 0.96 4.1c9.75-5.58 20.05-10.66 30.38-14.92 48.3-19.93 96.74-21.78 88.09 29.14-4.31 25.41-52.91 56.76-98.22 71.51 6.96 28.75 13.94 57.5 20.82 86.31 15.67-4.41 31.33-10.08 47.79-16.67 39.37-15.77 81.36-32.14 123.42-38.65 40.9-6.32 79.66 2.61 120.19 5.77-5.38-12.02-10.79-23.94-16.04-35.89-23.73-54.04-50.42-118.5-71.29-175.86-10.3-28.29-19.6-57.6-28.51-87.27-3.08 1.35-6.12 2.27-8.49 2.6l1.96 0.02c-13.58 1.44-30.95-5.5-17.06-20.05 2.59-2.71 9.49-5.42 16.45-6.7-5.95-20.35-11.79-40.78-17.63-61.18-26.83 21.82-63.12 31.34-96.23 38.14-2.83 0.58-5.78 0.89-8.77 0.94-24.75 0.44-52.43-16.67-35.11-43.67 7.6-11.85 23.93-15.5 35.23-21.55 22.76-12.2 48.71-28.73 69.57-44.09 3.5-2.57 7.42-5.96 11.63-9.62-0.78-2.51-1.53-5.06-2.33-7.56-27.51-86.77-69.81-204.42-87.08-293.58-5.6-0.4-11.35-0.62-17.4-0.54-38.26 0.55-72.85 7.05-103.49 20.44 7.39-0.61 13.85-1.02 18.29-1.52 20.08-2.24 83.63-13.34 99.69 3.11 21.96 22.49-11.26 52.86-38.52 49.99-12.49-1.31-28.95 10.54-41.48 12.89-13.53 2.54-29.05 2.21-42.77 2.02-17.61-0.24-51.23-0.63-63.48-17.5-12.48 13.63-23.82 29.33-33.83 47.51-0.29 0.52-0.55 1.09-0.84 1.61 3.3 12.01 7.37 23.31 11.22 35.23z"/>
		<path id="&lt;Path&gt;" class="s16" d="m308.08 865.76c1.23 24.76 4.58 48.62 4.63 73.61 0.04 18-3.9 34.81-3.31 52.82 0.7 21.31 3.76 42.28 2.48 63.79-2.3 38.47-2.47 76.84-4.36 115.35q6.6-0.56 13.13-1.89c-2.02-5.7-2.91-13.08-2.09-22.7 1.73-20.19 38.65-68.63 61.67-68.51 36.21 0.19 34.87 30.26 24.2 55.96 10.37-5.1 20.62-9.82 30.77-13.41 22.39-7.89 44.17-7.13 67.64-6.11 26 1.13 49.21-2.11 72.23-8.15-4.51-11.69-9.1-23.29-13.49-34.9-5.8-15.33-11.79-31.63-17.76-48.31-40.3 9.73-73.19 3.28-61.89-36.81 3.37-11.98 17.27-26.38 35.87-39.71-3.76-11.72-7.38-23.33-10.73-34.6-22.34-75.2-35.7-157.6-54.7-234.77-15.14-61.47-37.55-140.22-50.83-210.02-9.21-0.32-21.06-2.98-31.07-6.84-3.96 11.29-7.37 22.69-9.2 34.06-4.73 29.42 5.08 46.69 15.03 73.13 10.92 29.01 9.97 58.71 2.96 88.2 10.89-4.37 22.35-6.61 30.12-5.36 34.23 5.49 35.5 40.82 3.48 51.74-7.96 2.72-25.89 4.71-40.75 2.37-2.99-0.47-5.79-1.17-8.42-2.02-16.22 38.97-38.32 76.68-53.08 110.85-1.35 3.11-2.53 6.24-3.72 9.37 0.34 14.25 0.48 28.47 1.19 42.86z"/>
		<path id="&lt;Path&gt;" class="s0" d="m921.57 720.43c21.23-3.09 21.56 7 9.91 23.99-11.02 16.07-23.58 20.5-48.02 26.85-51.65-18.02 11.71-46.98 38.11-50.84z"/>
		<path id="&lt;Path&gt;" class="s0" d="m877.03 956.15c12.9-8.76 59.74-10.2 70.83 3.61 25.62 31.88-26.46 46.7-48.26 45.13l4.1 0.89c-29.08-3.08-62.3-25.42-26.67-49.63z"/>
		<path id="&lt;Path&gt;" class="s0" d="m775.53 505.21c2.59-7.61 21.41-22.75 30.26-20.51 20.43 5.17 3.61 27.43-5.85 33.55l1.97-0.91c-12.92 7.76-33.52 8.88-26.38-12.13z"/>
		<path id="&lt;Path&gt;" class="s0" d="m1363.67 834.35c-23.95-3.7-36.38-6.7-48.46-20.99-12.77-15.09-13.44-24.76 7.14-23.87 25.58 1.12 88.91 22.64 41.32 44.86z"/>
		<path id="&lt;Path&gt;" class="s0" d="m1338.88 667.42c23.63 18.08-49.79 32.28-61.73 20.76-11.77-11.35 3.66-19.34 22.26-22.73 15.71-2.86 33.68-2.45 39.47 1.97z"/>
		<path id="&lt;Path&gt;" class="s0" d="m1260.96 548.87c2.64-5.19 17.71-14.11 23.82-11.59 14.13 5.82-0.24 20.05-7.65 23.47l1.5-0.45c-10.07 4.23-24.96 2.91-17.67-11.43z"/>
		<path id="&lt;Path&gt;" class="s0" d="m1504.38 648.98c17.73-0.81 52.39 17.41 55.83 36.91 2.66 15.09-9.84 20.41-24.91 21.06-15.04 0.65-32.62-3.36-40.23-6.96-30.57-14.47-25.32-49.43 9.31-51.01z"/>
		<path id="&lt;Path&gt;" class="s0" d="m1471.39 552.06c13.13 3.8 10.66 9.74-0.58 16.53-10.62 6.42-19.07 5.68-34.93 2.92-25.22-24.06 19.18-24.17 35.51-19.45z"/>
		<path id="&lt;Path&gt;" class="s0" d="m749.35 973.38c3.09-5.87 17.78-13.1 31.85-16.75 16.68-4.33 32.48-3.65 27.11 10.24-5.45 14.1-71.56 30.5-58.96 6.51z"/>
		<path id="&lt;Path&gt;" class="s0" d="m698.21 887.51c1.89-4.14 11.68-9.65 21.18-12.68 11.26-3.6 22.12-3.73 18.96 5.99-3.2 9.87-47.87 23.6-40.14 6.69z"/>
		<path id="&lt;Path&gt;" class="s0" d="m476.27 575.27c2.59-7.61 21.41-22.74 30.26-20.5 20.43 5.16 3.61 27.42-5.85 33.54l1.97-0.9c-12.92 7.76-33.52 8.87-26.38-12.14z"/>
		<path id="&lt;Path&gt;" class="s0" d="m432.7 806.95c20.55 1.43 18.79 10.97 4.39 24.53-13.61 12.82-26.3 14.4-50.52 15.36-44.77-27.45 20.58-41.68 46.13-39.89z"/>
		<path id="&lt;Path&gt;" class="s16" d="m258.09 1162.16c16.47 8.22 32.62 10.54 48.49 9.27-1.83-13.35-5.18-26.5-7.81-39.56-5.64-27.94-10.83-60.96-12.72-89.8-2.09-31.72 1.87-64.62 4.32-97.08-2.38-1.04-5.34-2.67-8.29-4.64-3.77 22.22-8.52 44.33-17.12 66.1-17.25 43.71-69.55 124.44-6.87 155.71z"/>
		<path id="&lt;Path&gt;" class="s16" d="m950.84 424.26c4.77-3.88 13.89-7.73 23.35-10.02-12.43-7.07-24.84-14.06-37.26-20.93q7.05 15.14 13.91 30.95z"/>
		<path id="&lt;Path&gt;" class="s17" d="m1844.71 773.51l-0.46 0.05c7.53 10.23 15.07 20.48 22.9 30.55l-0.57-1.05c-4.58-8.77-7.84-18.25-11.6-27.3-0.47-1.13-0.97-2.3-1.46-3.45-3.26 0.47-6.23 0.86-8.81 1.2z"/>
		<path id="&lt;Path&gt;" class="s17" d="m589.83 1147.34q0.52 1.57 1.02 3.14c-3.48-15.14-7.06-30.22-10.66-45.29-1.71 0.48-3.42 0.88-5.12 1.33 5.17 13.41 10.24 26.94 14.76 40.82z"/>
		<path id="&lt;Path&gt;" class="s17" d="m306.58 1171.43c0.17 1.17 0.39 2.33 0.52 3.51q0.1 0.87 0.19 1.75c0.1-1.78 0.14-3.57 0.23-5.36z"/>
		<path id="&lt;Path&gt;" class="s17" d="m1736.25 597.79c-7.93-9.63-16.22-18.27-24.8-24.52 4.07 5.06 6.08 10.83 9.32 16.46 1.53 2.66 3.14 5.24 4.73 7.82q1.28 0.03 2.55 0.05c2.76 0.02 5.48 0.11 8.2 0.19z"/>
		<path id="&lt;Path&gt;" class="s17" d="m306.89 822.9c-0.25-10.43-0.59-20.88-1.41-31.43-0.74-9.6-3-18.33-2.35-27.94-10.41 31.49-10.88 74.82-10.89 113.6 3.39-18.2 7.84-36.31 14.65-54.23z"/>
		<path id="&lt;Path&gt;" class="s17" d="m394.06 408.33c-0.83-3.03-1.68-6.05-2.38-9.22 0.31 3.77 0.74 7.67 1.16 11.57 0.41-0.78 0.81-1.58 1.22-2.35z"/>
		<path id="&lt;Path&gt;" class="s17" d="m1489.68 877.45c9.7 19.89 19.42 39.78 29.54 59.55q-0.39-1.06-0.76-2.13c-6.3-17.69-10.52-35.91-15.53-53.64q-1.7-6.03-3.52-12.25-4.8 4.28-9.73 8.47z"/>
		<path id="&lt;Path&gt;" class="s17" d="m1336.86 509.06c-11.48-21.43-23.6-41.34-36.38-57.1 5.78 10.98 8.4 22.08 12.89 33.6 2.61 6.71 5.34 13.31 8.11 19.87q7.7 1.76 15.38 3.63z"/>
		<path id="&lt;Path&gt;" class="s17" d="m412.07 466.24c-1.65-5.67-3.23-11.33-4.96-17-0.58-1.94-1.22-3.78-1.83-5.68-2.62-1.16-5.46-2.23-8.44-3.18q2.08 13.23 4.7 27.02c4.22 0.15 7.87-0.21 10.53-1.16z"/>
		<path id="&lt;Path&gt;" class="s17" d="m949.02 425.98c-4 4.54-6.27 8.58-7.22 12.15q2.73 7.19 5.48 14.37c4.47 3.19 10.98 5.06 17.89 5.67-4.7-11.4-9.48-22.74-14.33-33.91q-1.06 0.86-1.82 1.72z"/>
		<path id="&lt;Path&gt;" class="s17" d="m1106.49 866.33c24.19 57.35 47.32 114.93 71.9 172.33q-0.51-1.55-1.01-3.08c-8.26-25.53-14.33-51.24-21.2-76.5-7.73-28.36-16.74-59.52-26.33-90.36-7.49-1.27-15.39-2.1-23.36-2.39z"/>
		<path id="&lt;Path&gt;" class="s17" d="m936.93 393.31c-11.3-24.26-22.91-46.92-34.75-66.2 7.15 16.32 10.9 32 16.69 48.72 1.1 3.18 2.28 6.29 3.4 9.45q7.34 3.98 14.66 8.03z"/>
		<path id="&lt;Path&gt;" class="s17" d="m306.55 923.25c-2.95-2.89-8.59-5.45-14.62-6.8-0.26 9.45-0.83 18.97-1.56 28.54q1.31 0.57 2.34 0.88c16.59 4.91 26.51-10.21 13.84-22.62z"/>
		<path id="&lt;Path&gt;" class="s17" d="m620.13 290.48c-1.76-4.86-3.44-9.81-4.96-14.98 0.81 4.83 1.75 9.8 2.72 14.82q1.12 0.08 2.24 0.16z"/>
		<path id="&lt;Path&gt;" class="s17" d="m871.59 1055.64c6.97 15.6 13.88 31.34 20.21 47.54q0.67 1.73 1.34 3.46c-5.1-16.91-10.31-33.75-15.53-50.57l-0.59-0.03q-2.73-0.18-5.43-0.4z"/>
		<path id="&lt;Path&gt;" class="s17" d="m744.82 657.96c1.17-1.37 2.54-3.12 4.05-5.15-2.56-8.87-5.24-17.79-8.2-26.74-5.43-16.42-11.11-32.44-16.89-48.32-5.81 4.41-11.36 9.25-16.48 13.71 8.2 26.23 15.99 52.97 23.68 79.85 4.95-4.03 9.61-8.42 13.84-13.35z"/>
		<path id="&lt;Path&gt;" class="s17" d="m559.37 1018.88c-6.91-28.51-13.75-57.05-20.25-85.73-7.54 4.31-14.72 8.91-21.32 13.64 8.14 25.41 17.04 51.41 26.02 76.52 5.09-1.23 10.3-2.72 15.55-4.43z"/>
		<path id="&lt;Path&gt;" class="s17" d="m764.87 733.88c-3.12-2.53-9.72-2.58-16.26-1.39q3.53 12.1 7.14 24.13c10.05-4.41 20.46-13.52 9.12-22.74z"/>
		<path id="&lt;Path&gt;" class="s17" d="m1080.26 743.83c2.56-6.95-5.31-7.17-13.56-4.89-2.84 0.78-5.7 1.87-8.22 3.07q1.93 5.41 3.83 10.82c7.76-1.53 16.64-5.47 17.95-9z"/>
		<path id="&lt;Path&gt;" class="s17" d="m1743.47 611.64c-2.62-2.59-6.94-3.87-11.69-4.2 3.7 5.67 7.43 11.32 11.11 17.03 3.64-4.02 4.91-8.55 0.58-12.83z"/>
	</g>
</svg>