<svg version="1.2" xmlns="http://www.w3.org/2000/svg" viewBox="0 0 2237 2910" width="2237" height="2910">
	<style>
		.s0 { fill: #a6eaff } 
		.s1 { fill: #53bbd3 } 
		.s2 { fill: #000000 } 
		.s3 { fill: #c4915f } 
		.s4 { fill: #a57141 } 
		.s5 { fill: #b27a47 } 
		.s6 { fill: #7cdcf2 } 
		.s7 { fill: #89552b } 
		.s8 { fill: #e6faff } 
		.s9 { fill: #bdf3ff } 
		.s10 { fill: #96d4e2 } 
		.s11 { fill: #168e52 } 
		.s12 { fill: #4dceb5 } 
		.s13 { fill: #eefcff } 
		.s14 { fill: #c9eff4 } 
		.s15 { fill: #ffffff } 
	</style>
	<g id="Layer 1">
		<g id="&lt;Group&gt;">
			<g id="&lt;Group&gt;">
				<path id="&lt;Path&gt;" class="s0" d="m1583.67 1335.68l-114.76 880.06c-2.5 19.17-13.98 37.19-32.47 49.38-9.41 6.2-15.63 15.49-16.13 25.84l-8.47 28.31c-4.26 14.22-20.19 24.39-38.13 24.39h-508.31c-18.78 0-35.22-11.12-38.59-26.17l-5.94-26.53c-0.49-10.44-6.81-19.79-16.34-25.99-18.49-12.03-29.83-30.03-32.4-49.09l-118.59-880.2z"/>
				<path id="&lt;Path&gt;" class="s1" d="m1583.67 1335.69l-114.76 880.06c-2.51 19.15-13.98 37.17-32.48 49.37-9.4 6.2-15.62 15.48-16.12 25.85l-8.47 28.29c-4.26 14.23-20.19 24.41-38.13 24.41h-181.16c12-11.35 19.43-25.63 21.4-40.63l114.76-880.06h-663.41l-11.77-87.29z"/>
				<path id="&lt;Compound Path&gt;" fill-rule="evenodd" class="s2" d="m1373.71 2366.99h-508.31c-29.79 0-55.58-18.67-61.35-44.4l-6.38-28.5-0.1-2.02c-0.11-2.42-2.32-5.31-5.76-7.55-23.66-15.39-39.26-39.28-42.79-65.53l-122.16-906.63h983.38l-118.2 906.4c-3.42 26.17-19 50.17-42.77 65.83-3.38 2.23-5.55 5.1-5.66 7.49l-0.14 2.84-9.29 31.04c-7.23 24.15-32.1 41.03-60.47 41.03zm-529.7-79.44l5.56 24.85c0.64 2.85 6.48 7.94 15.83 7.94h508.31c8.67 0 14.84-4.59 15.78-7.76l7.78-25.99c1.81-16.23 11.27-31.02 26.33-40.95 12.44-8.19 20.52-20.19 22.18-32.91l111.33-853.73h-876.89l115.03 853.76c1.72 12.78 9.74 24.68 22 32.66 15.56 10.12 25.21 25.37 26.76 42.13z"/>
			</g>
			<g id="&lt;Group&gt;">
				<path id="&lt;Path&gt;" class="s3" d="m1313.95 1432.31h-577.57l-1.05-7.99h766.55l0.01-0.01h-766.56l46.12 352.24h492.61z"/>
				<path id="&lt;Path&gt;" class="s4" d="m1457.24 1776.55l44.65-352.23h-0.01l-44.64 352.23z"/>
				<path id="&lt;Path&gt;" class="s4" d="m736.38 1432.31h577.57l-39.89 344.24h183.18l44.64-352.23h-766.55z"/>
				<path id="&lt;Path&gt;" class="s5" d="m859.76 2212.29c7.86 5.26 13.06 13.19 13.47 22.05l4.9 22.49c2.77 12.76 16.32 22.19 31.8 22.19h418.92c14.78 0 27.91-8.63 31.42-20.68l6.98-24c0.37-7.97 4.64-15.18 11.21-20.38-6.58 5.19-10.84 12.41-11.21 20.37l-6.98 24c-3.5 12.07-16.64 20.68-31.42 20.68h-121.36c6.53-9.14 10.62-19.68 11.88-30.64l54.69-471.82h-492.61l51.61 394.12c2.12 16.16 11.47 31.42 26.7 41.62z"/>
				<path id="&lt;Path&gt;" class="s6" d="m1407.3 2170.55c-2.05 16.25-11.51 31.53-26.76 41.87q-1.07 0.74-2.08 1.54 1.01-0.8 2.08-1.54c15.25-10.33 24.71-25.62 26.77-41.86l49.93-394.01z"/>
				<path id="&lt;Path&gt;" class="s7" d="m1407.3 2170.55l49.94-394h-183.18l-54.69 471.82c-1.26 10.96-5.35 21.5-11.88 30.64h121.36c14.78 0 27.92-8.61 31.42-20.68l6.98-24c0.37-7.96 4.63-15.18 11.21-20.37q1.01-0.8 2.08-1.54c15.25-10.34 24.71-25.62 26.76-41.87z"/>
			</g>
			<path id="&lt;Compound Path&gt;" fill-rule="evenodd" class="s2" d="m1328.85 2302.34h-418.92c-26.52 0-49.48-17.05-54.59-40.55l-5.32-24.42-0.09-1.96c-0.03-0.65-0.91-2.24-3.14-3.73-20.38-13.65-33.82-34.78-36.86-57.98l-101.18-772.71h819.6l-97.91 772.5c-2.93 23.13-16.34 44.36-36.8 58.23-2.2 1.49-3.06 3.06-3.09 3.7l-0.13 2.77-7.75 26.66c-6.43 22.08-28.56 37.49-53.82 37.49zm-432.48-71.36l4.55 20.89c0.35 1.03 3.68 3.83 9.01 3.83h418.92c5.44 0 8.73-2.95 9.03-3.88l6.33-21.78c1.67-14.63 10.01-27.95 23.24-36.92 9.38-6.36 15.47-15.65 16.72-25.5l91.25-719.98h-713.52l94.29 720c1.29 9.89 7.32 19.1 16.55 25.27 13.7 9.17 22.21 22.95 23.63 38.07z"/>
			<g id="&lt;Group&gt;">
				<path id="&lt;Path&gt;" class="s8" d="m1632.3 1424.24h-1027.39l-2.03-28.33c-2.37-33.14 24.79-60.22 60.69-60.22h910.07c35.9 0 63.07 27.08 60.69 60.22z"/>
				<path id="&lt;Compound Path&gt;" fill-rule="evenodd" class="s2" d="m1654.02 1447.57h-1070.82l-3.58-49.99c-1.56-21.76 5.77-42.54 20.65-58.52 15.79-16.97 38.87-26.7 63.3-26.7h910.07c24.43 0 47.51 9.73 63.3 26.7 14.88 15.98 22.21 36.77 20.66 58.52zm-1027.4-46.65h983.97l0.48-6.67c0.8-11.14-4.06-18.88-8.27-23.4-7-7.52-17.63-11.84-29.16-11.84h-910.07c-11.53 0-22.15 4.32-29.16 11.84-4.21 4.52-9.06 12.26-8.27 23.4z"/>
			</g>
			<path id="&lt;Path&gt;" class="s9" d="m1606.14 1278.15l-5.75 86.34h-963.57l-5.75-86.34c-13.26-198.94 108.75-377.89 296.33-453.22h382.41c187.58 75.33 309.59 254.28 296.33 453.22z"/>
			<path id="&lt;Path&gt;" class="s10" d="m1605.96 1278.15l-6.85 86.34h-277.15l1.66-34.53c9.76-202.27-69.94-505.03-69.94-505.03 223 75.32 368.03 254.28 352.28 453.22z"/>
			<path id="&lt;Compound Path&gt;" fill-rule="evenodd" class="s2" d="m1622.21 1387.82h-1007.21l-7.21-108.12c-6.79-101.94 19.72-201.32 76.68-287.38 55.99-84.61 136.99-149.98 234.24-189.03l4.18-1.68h391.43l4.18 1.68c97.25 39.05 178.25 104.42 234.24 189.03 56.96 86.06 83.47 185.44 76.68 287.38zm-963.57-46.65h919.92l4.31-64.57c12.2-183.18-99.21-354.76-277.63-428.34h-373.28c-178.42 73.58-289.83 245.16-277.63 428.34z"/>
			<g id="&lt;Group&gt;">
				<path id="&lt;Path&gt;" class="s11" d="m1221.09 1043.98l-66.78-18.25 182.72-668.64 66.78 18.25z"/>
				<path id="&lt;Path&gt;" class="s12" d="m1221.09 1043.98l-66.78-18.25 78.63-224.12h46.12z"/>
				<path id="&lt;Compound Path&gt;" fill-rule="evenodd" class="s2" d="m1232.85 1064.57l-99.13-27.09 191.56-700.98 99.12 27.09zm-57.94-50.59l34.43 9.41 173.88-636.3-34.43-9.41z"/>
			</g>
			<g id="&lt;Group&gt;">
				<path id="&lt;Path&gt;" class="s13" d="m1577.23 1335.82h-912.58q5.6-14 13.66-27.43c-4.46-11.52-7.24-23.62-8.03-36.17-4.94-79.27 70.74-144.8 169.14-144.8 18.67 0 36.77 2.38 53.81 6.79 37.69-66.15 119.45-112.29 215.32-112.29 96.33 0 178.62 46.56 216.39 113.2 18.66-4.99 38.53-7.7 59.08-7.7 104.98 0 185.9 69.88 180.84 154.3q-0.24 4.16-0.77 8.26c11.16 15.03 17.7 45.84 13.14 45.84z"/>
				<path id="&lt;Path&gt;" class="s14" d="m1577.22 1335.82h-912.57q5.6-13.99 13.65-27.44c-4.46-11.51-7.23-23.61-8.02-36.16q-0.65-10.47 0.54-20.56h702.16c59.98-8.23 59.4-51.73 59.55-54.1 1.45-24.22-4.17-47.24-15.43-67.77 88.37 12.89 152.28 76.62 147.76 151.93q-0.24 4.15-0.77 8.27c11.17 15.01 17.7 45.83 13.13 45.83z"/>
				<path id="&lt;Compound Path&gt;" fill-rule="evenodd" class="s2" d="m1577.23 1359.15h-947.04l12.81-32c2.84-7.11 6.14-14.18 9.85-21.12-3.21-10.62-5.17-21.46-5.85-32.36-2.46-39.52 11.98-78.09 40.66-108.61 36.4-38.74 91.71-60.96 151.76-60.96 14.42 0 28.75 1.28 42.79 3.82 20.89-30.45 50.28-56.25 85.89-75.24 41.81-22.3 90.38-34.09 140.45-34.09 50.31 0 99.12 11.89 141.15 34.37 35.77 19.13 65.26 45.1 86.21 75.72 15.75-3.05 31.86-4.58 48.11-4.58 63.66 0 122.34 23.53 160.98 64.55 30.31 32.19 45.64 72.84 43.14 114.46q-0.03 0.59-0.07 1.17c5.25 9.41 8.53 19.35 10.21 25.23 6.05 21.28 3.58 30.45 0.76 36.07-4.21 8.37-12.57 13.57-21.81 13.57zm-874.19-46.65h846.96c-1.37-3.28-2.95-6.34-4.63-8.61l-5.63-7.57 1.22-9.35c0.28-2.13 0.48-4.31 0.62-6.65 1.74-29.07-8.82-56.62-30.54-79.69-29.86-31.7-76.16-49.89-127.02-49.89-18.07 0-35.92 2.33-53.05 6.91l-17.43 4.67-8.89-15.7c-34.91-61.58-111.88-101.38-196.1-101.38-83.7 0-160.26 39.45-195.05 100.51l-8.83 15.5-17.27-4.46c-15.52-4.01-31.66-6.05-47.98-6.05-47.22 0-90.15 16.86-117.77 46.26-20.05 21.34-29.77 46.85-28.09 73.77 0.62 9.83 2.8 19.66 6.5 29.2l4.11 10.63z"/>
			</g>
			<path id="&lt;Path&gt;" class="s15" d="m748.57 1263.46h-0.06c-13.68-0.2-24.27-12.06-22.86-25.66 2.23-21.67 7.34-55.38 18.98-93.89 23.64-78.17 64.52-143.09 118.91-189.28 10.39-8.82 26.06-7.01 34.06 4.03 7.18 9.91 5.42 23.64-3.93 31.54-47.67 40.26-82.6 95.97-103.99 165.91-10.86 35.53-15.57 66.9-17.6 86.48-1.25 12-11.45 21.04-23.51 20.87z"/>
			<path id="&lt;Path&gt;" class="s15" d="m946.34 931.75q-0.29-0.14-0.58-0.28c-16.08-7.92-17.42-30.42-2.3-40.05q5.26-3.36 11.98-6.91c12.01-6.33 26.87-0.82 31.98 11.76l0.22 0.53c4.45 10.96-0.12 23.52-10.58 29.03-3.34 1.76-6.11 3.37-8.38 4.81-6.72 4.26-15.2 4.63-22.34 1.11z"/>
			<path id="&lt;Path&gt;" class="s7" d="m1252.3 1917.85l-73.35-37.68c-5.87-3.02-8.2-10.29-5.19-16.16l37.69-73.34c3.01-5.87 10.28-8.21 16.16-5.19l73.34 37.68c5.87 3.02 8.2 10.29 5.19 16.16l-37.69 73.34c-3.01 5.87-10.28 8.21-16.15 5.19z"/>
			<path id="&lt;Path&gt;" class="s7" d="m1100.46 2163.75l-55.03-95.32c-3.3-5.71-1.33-13.09 4.39-16.39l95.32-55.03c5.71-3.3 13.09-1.33 16.39 4.39l55.03 95.32c3.3 5.71 1.32 13.09-4.39 16.39l-95.32 55.03c-5.71 3.3-13.09 1.32-16.39-4.39z"/>
			<path id="&lt;Path&gt;" class="s4" d="m1288.97 1620.64l-27.96-48.42c-3.3-5.71-1.32-13.09 4.4-16.39l48.41-27.95c5.72-3.3 13.09-1.33 16.39 4.39l27.96 48.41c3.3 5.72 1.32 13.1-4.4 16.4l-48.41 27.95c-5.72 3.3-13.09 1.32-16.39-4.39z"/>
			<path id="&lt;Path&gt;" class="s4" d="m1095.08 1694.47l-52.39-30.26c-5.72-3.3-7.7-10.67-4.4-16.39l30.26-52.4c3.3-5.71 10.67-7.69 16.39-4.39l52.4 30.25c5.71 3.3 7.69 10.68 4.39 16.4l-30.25 52.39c-3.3 5.72-10.68 7.7-16.4 4.4z"/>
			<path id="&lt;Path&gt;" class="s14" d="m1225.96 1242.81c0 16.96-13.74 30.71-30.7 30.71-16.96 0-30.7-13.75-30.7-30.71 0-16.95 13.74-30.7 30.7-30.7 16.96 0 30.7 13.75 30.7 30.7z"/>
			<path id="&lt;Path&gt;" class="s14" d="m1356.58 1263.46c0 16.96-13.75 30.7-30.71 30.7-16.95 0-30.7-13.74-30.7-30.7 0-16.96 13.75-30.7 30.7-30.7 16.96 0 30.71 13.74 30.71 30.7z"/>
			<path id="&lt;Path&gt;" class="s14" d="m1465.2 1205.48c0 16.96-13.75 30.71-30.7 30.71-16.96 0-30.7-13.75-30.7-30.71 0-16.95 13.74-30.7 30.7-30.7 16.95 0 30.7 13.75 30.7 30.7z"/>
			<path id="&lt;Path&gt;" class="s14" d="m1243.6 1130.22c0 12.47-10.11 22.58-22.59 22.58-12.47 0-22.58-10.11-22.58-22.58 0-12.47 10.11-22.58 22.58-22.58 12.48 0 22.59 10.11 22.59 22.58z"/>
			<path id="&lt;Path&gt;" class="s14" d="m1102.32 1197.36c0 12.48-10.11 22.59-22.58 22.59-12.48 0-22.59-10.11-22.59-22.59 0-12.47 10.11-22.58 22.59-22.58 12.47 0 22.58 10.11 22.58 22.58z"/>
			<path id="&lt;Path&gt;" class="s14" d="m1004.77 1256.42c0 17.12-13.87 30.99-30.99 30.99-17.12 0-30.99-13.87-30.99-30.99 0-17.12 13.87-30.99 30.99-30.99 17.12 0 30.99 13.87 30.99 30.99z"/>
			<path id="&lt;Path&gt;" class="s14" d="m865.41 1212.11c0 11.4-9.24 20.65-20.65 20.65-11.4 0-20.64-9.25-20.64-20.65 0-11.4 9.24-20.65 20.64-20.65 11.41 0 20.65 9.25 20.65 20.65z"/>
			<path id="&lt;Path&gt;" class="s2" d="m1309.81 848.26h-248.04v-46.65h248.04z"/>
		</g>
	</g>
</svg>