<svg version="1.2" xmlns="http://www.w3.org/2000/svg" viewBox="0 0 2122 2122" width="2122" height="2122">
	<style>
		.s0 { fill: #f9a639 } 
		.s1 { fill: #e0902b } 
		.s2 { fill: #fed354 } 
		.s3 { fill: #f8c03a } 
		.s4 { fill: #fed886 } 
	</style>
	<g id="_Artboards_">
	</g>
	<g id="Capa 1">
		<path id="&lt;Path&gt;" class="s0" d="m1642.73 1104.28c134.89-49.99 206-101.82 200.23-145.94-5.77-44.12-87.82-75.92-231.03-89.53-17.2-1.64-31.52-12.07-38.3-27.91-6.79-15.84-4.46-33.4 6.22-46.98 88.94-113.07 122.52-194.4 94.56-229.01-27.96-34.61-114.54-18.89-243.78 44.27-15.53 7.58-33.19 6.17-47.24-3.8-14.05-9.96-21.24-26.15-19.22-43.31 16.8-142.87 2.97-229.77-38.95-244.69-41.92-14.92-107.54 43.7-184.79 165.05-9.27 14.58-25.08 22.6-42.26 21.43-17.19-1.16-31.78-11.21-39.02-26.9-60.27-130.62-117.43-197.54-160.98-188.35-38.54 8.11-62.6 73.48-69.59 189.04-1.03 17.05-10.88 31.62-26.34 38.96-15.47 7.34-32.98 5.78-46.84-4.2-93.98-67.59-159.85-90.24-190.5-65.5-30.63 24.75-22.34 93.91 23.98 200.01 10.28 23.54-0.99 46.68-17.43 57.37l-0.26 0.7c19.7 65.96 48.83 135.2 86.58 205.8l0.59 0.33 0.54-0.4c51.82-138.45 169-239.26 313.45-269.66 5.21-1.09 10.34-2.02 14.23-2.7l0.1-0.03 0.27-0.05c4.07-0.71 8.16-1.32 12-1.88l1.72-0.26q1.25-0.2 2.5-0.37c3.71-0.51 7.43-0.93 11.24-1.35l1.72-0.19q1.61-0.19 3.22-0.35c3.37-0.33 6.72-0.59 10.71-0.89l1.58-0.11q1.93-0.15 3.86-0.27c3.55-0.21 7.04-0.35 10.29-0.47l1.23-0.04q2.29-0.09 4.57-0.15c2.63-0.06 5.49-0.09 8.93-0.09 2.28 0 4.74 0 7.11 0.04 3.04 0.05 6.17 0.13 9.58 0.27q3.2 0.11 6.38 0.28 4.64 0.25 9.25 0.59 3.33 0.25 6.64 0.55 4.47 0.41 8.92 0.9 3.44 0.39 6.86 0.84 4.32 0.54 8.61 1.17c2.34 0.36 4.68 0.74 7.08 1.14q4.15 0.68 8.27 1.44 3.16 0.6 6.3 1.25l1.86 0.38q3.53 0.71 7.05 1.49 3.25 0.74 6.47 1.54l2.88 0.7q2.87 0.69 5.73 1.44 3.38 0.9 6.73 1.87l3.03 0.85q2.58 0.72 5.15 1.48 3.42 1.05 6.81 2.17l3.78 1.22q2.09 0.66 4.15 1.36c2.89 0.99 5.8 2.06 8.62 3.1l0.84 0.31q1.03 0.38 2.05 0.75 1.53 0.53 3.04 1.11c4.89 1.87 9.72 3.82 14.41 5.81 6.05 2.57 12.16 5.34 18.14 8.22l0.16 0.07c5.89 2.84 11.83 5.87 17.65 9.01l0.21 0.11c5.75 3.11 11.53 6.41 17.19 9.81l0.17 0.1q8.5 5.11 16.86 10.69c92.29 61.52 156.43 154.99 180.59 263.2l0.41 1.81q0.39 1.7 0.76 3.42c32.99 156.75-23.38 317.48-147.11 419.46l-0.2 0.69 0.58 0.42q14.85 0.35 29.86 0.35c85.35 0 174.23-8.45 264.62-25.18 50.04-9.26 99.7-21.06 147.61-35.08l0.39-0.34-0.01-0.53c-18.96-39.31-69.11-90.23-145.01-147.24-13.82-10.38-20.58-26.75-18.1-43.8 2.48-17.05 13.64-30.81 29.84-36.82z"/>
		<path id="&lt;Path&gt;" class="s1" d="m1784.4 1359.12l-0.05-0.32q-0.31-2.76-0.94-5.75l-0.18-0.79c-0.48-2.16-1.01-4.17-1.65-6.2-1.38-4.43-3.26-9.11-5.58-13.92l-0.73-0.33c-47.87 14.01-97.49 25.8-147.48 35.05-100.91 18.68-199.91 27.02-294.23 24.81h-0.02l-0.39 0.14-0.88 0.71-0.73 0.58-0.13 0.15-0.63 0.48-0.83 0.64c-6.38 5.16-12.21 9.64-17.84 13.72l-0.98 0.7c-2.83 2.04-5.76 4.09-8.7 6.1l-1.88 1.28c-2.67 1.8-5.45 3.63-8.26 5.43l-1.91 1.23c-3.06 1.94-6.16 3.86-9.23 5.69l-0.92 0.57c-6.95 4.13-14.12 8.13-21.31 11.88l-2.03 1.03c-2.95 1.52-5.84 2.96-8.59 4.3q-1.48 0.71-2.97 1.42-3.98 1.89-8.01 3.71l-0.49 0.23q-1.32 0.59-2.64 1.18c-2.73 1.2-5.54 2.4-8.59 3.67l-0.95 0.4q-0.78 0.33-1.57 0.65c-7.39 3.02-15.02 5.88-22.68 8.51q-1.02 0.35-2.05 0.69l-1.29 0.43q-4.06 1.36-8.17 2.64-2.03 0.63-4.08 1.25-3.84 1.15-7.71 2.24-2.11 0.6-4.24 1.18-4.07 1.09-8.18 2.11l-1.39 0.35q-1.16 0.3-2.33 0.58c-4.36 1.05-8.29 1.94-11.99 2.72-24.94 5.25-50.4 8.3-75.65 9.08-3.59 0.11-7.19 0.17-10.71 0.19q-1.19 0.01-2.38 0.01c-201.49 0-377.56-142.89-419.18-340.63-0.85-4.04-1.68-8.35-2.6-13.57-0.22-1.21-0.42-2.43-0.65-3.76-0.63-3.74-1.21-7.46-1.72-11.07l-0.18-1.23q-0.12-0.78-0.22-1.57c-0.61-4.46-1.15-9.03-1.62-13.59q-0.08-0.79-0.15-1.58l-0.11-1.2c-0.36-3.68-0.67-7.48-0.94-11.29l-0.06-0.81q-0.09-1.21-0.16-2.43c-0.57-9.16-0.85-18.43-0.83-27.55l0.02-2.7c0.04-4.41 0.14-8.7 0.29-12.76l0.03-0.96c0.19-4.66 0.47-9.44 0.83-14.22l0.1-1.21c0.32-4.24 0.73-8.62 1.21-13.05l0.16-1.45c1.05-9.37 2.43-18.83 4.1-28.13l0.18-0.97c1.09-5.99 2.35-12.1 3.74-18.18q0.57-2.45 1.21-4.89 0.36-1.42 0.72-2.85l0.6-2.46c0.63-2.54 1.27-5.16 1.97-7.72q0.9-3.23 1.88-6.42l1.47-4.96q0.92-3.15 1.91-6.28 1.15-3.57 2.4-7.1l0.77-2.19q0.45-1.33 0.9-2.67 0.63-1.93 1.32-3.85l0.13-0.22q0.27-0.76 0.53-1.52 0.3-0.9 0.62-1.78l-0.03-0.52c-37.71-70.52-66.81-139.69-86.49-205.56l-0.38-0.41-0.55 0.06q-1.62 1.05-3.33 1.97l-0.47 0.24q-2.62 1.37-5.81 2.52-0.9 0.33-1.81 0.62-1.31 0.41-2.66 0.74c-1.09 0.27-2.27 0.5-3.6 0.71q-1.04 0.17-2.09 0.3-2.33 0.25-4.7 0.26-0.83 0.01-1.63-0.01c-2.23-0.06-4.08-0.22-5.85-0.48-13.61-2.08-26.81-3.8-39.26-5.11-25-2.62-47.64-3.66-67.3-3.09l-0.42 0.02c-9.82 0.29-19.05 1-27.41 2.1-4.24 0.56-8.36 1.23-12.24 2-3.89 0.77-7.64 1.66-11.12 2.63-3.52 0.99-6.88 2.09-9.99 3.28-12.69 4.87-22.08 11.52-27.91 19.78-1.49 2.1-2.76 4.34-3.79 6.66-2.92 6.54-4.01 13.96-3.25 22.02 0.31 3.2 0.91 6.54 1.78 9.91 3.44 13.38 11.35 28.59 23.53 45.22 2.59 3.53 5.46 7.23 8.78 11.32q0.92 1.13 1.87 2.26c4.3 5.19 9 10.54 13.97 15.89 4.99 5.39 10.41 10.94 16.1 16.53 7.02 6.88 14.68 14.04 22.79 21.26 8.43 7.52 17.7 15.42 27.54 23.48 3.58 2.93 7.43 6.03 11.75 9.46q5.35 4.26 10.9 8.56c5.44 4.21 10.04 7.73 14.51 11.08 5.34 4.01 9.65 8.91 12.8 14.55 2.98 5.34 4.83 11.16 5.51 17.3 0.88 7.97-0.3 16.08-3.42 23.47q-1.18 2.8-2.7 5.39c-2.06 3.53-4.59 6.77-7.52 9.61-3.03 2.96-6.49 5.49-10.27 7.53-1.95 1.05-4.02 1.98-6.14 2.77-32.36 11.99-61.52 24.29-86.67 36.56-6.36 3.09-12.5 6.21-18.26 9.26q-4.38 2.32-8.58 4.64c-5.54 3.06-10.94 6.18-16.05 9.28-7.66 4.65-14.8 9.34-21.22 13.92-8.65 6.17-16.3 12.39-22.74 18.46-4.87 4.61-9.14 9.22-12.7 13.73-2.39 3.03-4.51 6.08-6.3 9.06-6.41 10.67-9 21.11-7.71 31.03 5.77 44.12 87.82 75.92 231.03 89.54 8.71 0.82 16.89 3.97 23.66 9.09 3.21 2.44 6.1 5.3 8.58 8.5 3.69 4.77 6.41 10.13 8.07 15.95 1.1 3.87 1.7 7.86 1.78 11.86 0.22 10.68-3.25 20.87-10.01 29.48-68.52 87.11-104.55 155.76-104.19 198.53 0.04 4.62 0.51 8.97 1.41 12.96 1.51 6.74 4.27 12.64 8.22 17.53 5.4 6.68 13.07 11.56 22.8 14.51 3.18 0.97 6.64 1.74 10.28 2.31 4.51 0.7 9.43 1.09 14.62 1.16 5.15 0.07 10.71-0.16 16.52-0.69 4.61-0.43 9.5-1.06 14.53-1.87 12.45-2.01 26.31-5.24 41.17-9.59 7.58-2.22 15.84-4.89 24.56-7.91 4.89-1.7 9.03-3.19 13.04-4.67 6.55-2.44 13.37-5.08 20.25-7.87 20.58-8.33 42.79-18.31 66.01-29.66 6-2.93 12.32-4.54 18.78-4.78 4.07-0.17 8.16 0.24 12.15 1.19 3.89 0.92 7.67 2.35 11.22 4.24 8.93 4.77 16.17 12.37 20.39 21.41 3.59 7.7 4.95 16.36 3.93 25.05-1.01 8.52-1.92 16.99-2.7 25.16q-0.6 6.15-1.11 12.17c-1.36 16.01-2.29 31.42-2.77 45.79-0.84 25.41-0.29 48.35 1.62 68.2 0.56 5.73 1.23 11.28 2.01 16.47 1.56 10.53 3.62 20.17 6.1 28.65 1.25 4.27 2.64 8.34 4.12 12.08 7.61 19.23 18.27 31.4 31.67 36.17 41.91 14.92 107.54-43.69 184.79-165.05 9.28-14.58 25.05-22.61 42.27-21.43 17.19 1.16 31.77 11.21 39.01 26.9 3.62 7.84 7.26 15.54 10.83 22.87 5.41 11.09 10.86 21.82 16.22 31.87 3.58 6.74 7.2 13.32 10.75 19.58 3.56 6.27 7.15 12.39 10.68 18.19 3.53 5.79 7.1 11.43 10.6 16.76 3.51 5.32 7.04 10.47 10.5 15.28 6.97 9.7 13.9 18.45 20.62 26 3.39 3.81 6.78 7.39 10.08 10.63 6.69 6.56 13.3 12.04 19.65 16.3 3.2 2.15 6.41 4.03 9.52 5.58q2.34 1.18 4.69 2.14c3.1 1.27 6.19 2.25 9.2 2.91q4.85 1.07 9.54 1.07 4.14 0 8.1-0.83c2.47-0.52 4.93-1.3 7.3-2.31 9.31-3.96 17.79-11.75 25.21-23.13 8.13-12.46 15.14-29.45 20.82-50.48 1.23-4.57 2.43-9.44 3.56-14.46q0.84-3.76 1.63-7.66c1.57-7.7 3.03-15.97 4.33-24.59 1.29-8.5 2.46-17.57 3.47-26.96 0.67-6.21 1.28-12.68 1.83-19.24 0.54-6.61 1.03-13.41 1.44-20.21 0.27-4.42 1.13-8.72 2.56-12.79 3.4-9.64 9.83-17.69 18.58-23.28 5.06-3.24 10.61-5.46 16.49-6.6q2.98-0.57 5.94-0.75c2-0.13 4.04-0.12 6.03 0.02 4.12 0.3 8.17 1.15 12.05 2.55 4.06 1.45 7.94 3.5 11.53 6.09 14.03 10.09 27.65 19.31 40.48 27.41 5.16 3.26 10.29 6.4 15.26 9.33q3.74 2.21 7.41 4.3c4.83 2.76 9.67 5.41 14.38 7.88 4.72 2.47 9.35 4.79 13.78 6.88 6.69 3.17 13.24 6.01 19.46 8.42 6.24 2.42 12.28 4.46 17.97 6.07 7.65 2.18 14.88 3.63 21.5 4.34 3.34 0.35 6.57 0.55 9.64 0.5q2.28-0.01 4.53-0.17 2.21-0.16 4.34-0.47c5.68-0.81 10.84-2.42 15.34-4.79 2.28-1.19 4.43-2.61 6.4-4.2 7.81-6.31 13.15-15.7 15.86-27.91 1.33-5.95 2.04-12.68 2.14-20.02 0.14-10.84-1.09-23.29-3.64-37-4.4-23.66-12.82-51.54-25.01-82.87-4.03-10.38-8.52-21.21-13.32-32.21-1.99-4.56-3.24-9.31-3.71-14.12q-0.23-2.31-0.22-4.66c0.08-13.99 6.83-27.57 18.05-36.33 8.27-6.46 18.17-9.81 28.62-9.67q3.3 0.04 6.64 0.55c6.75 1.03 13.5 1.98 20.07 2.84 6.5 0.84 12.96 1.6 19.19 2.26 25 2.62 47.64 3.66 67.29 3.09l0.43-0.01c12.32-0.38 23.65-1.4 33.66-3.03 2.18-0.36 4.47-0.78 7-1.3 3.74-0.76 7.05-1.55 10.11-2.41 3.5-0.98 6.86-2.08 9.99-3.28 3.13-1.2 6.09-2.53 8.81-3.94 11.11-5.76 18.81-13.33 22.89-22.5 0.64-1.42 1.21-3 1.75-4.82l0.26-1.03 0.1-0.4c0.34-1.32 0.6-2.57 0.79-3.8q0.12-0.73 0.21-1.47c0.2-1.68 0.31-3.25 0.33-4.79l0.03-0.52q0-2.91-0.33-5.94z"/>
		<path id="&lt;Path&gt;" class="s2" d="m1481.48 972.09q-0.37-1.73-0.77-3.44l-0.4-1.8-0.59-0.49c-62.73-2.56-113.57-9.93-160-23.19l-0.66 0.23-0.03 0.7c16.18 26.05 19.54 49.56 9.47 66.21-21.06 34.81-94.76 28.92-164.29-13.16-69.53-42.06-108.95-104.61-87.89-139.43 8.55-14.12 25.81-21.94 49.91-22.63l0.57-0.41-0.17-0.68c-42.8-39.01-79.83-85.34-110.06-137.68-11.37-19.69-21.31-39.48-29.53-58.82l-0.68-0.37c-3.89 0.68-9.04 1.61-14.27 2.71-72.16 15.19-139.43 48.75-194.56 97.05-53.44 46.82-94.86 106.78-119.8 173.39q-0.33 0.9-0.63 1.82-0.25 0.75-0.52 1.5l0.02 0.48c4.64 9.89 9.53 19.74 14.54 29.26 47.55 90.37 113.58 175.32 190.95 245.66 122.35 111.23 284.79 182.19 469.76 205.2l0.08 0.01 0.39-0.14 0.72-0.57 0.9-0.72c124.09-102.29 180.62-263.48 147.54-420.69z"/>
		<path id="&lt;Path&gt;" class="s3" d="m1332.01 1392.96c-184.72-22.98-346.92-93.83-469.08-204.89-77.26-70.24-143.2-155.07-190.68-245.31-5.01-9.51-9.89-19.34-14.56-29.29l-0.6-0.35-0.54 0.41q-0.75 2.07-1.44 4.17-0.44 1.33-0.89 2.65l-0.77 2.19c-0.82 2.37-1.65 4.74-2.41 7.13q-1 3.14-1.91 6.31l-1.48 4.95c-0.64 2.14-1.29 4.29-1.89 6.45-0.7 2.57-1.35 5.21-1.97 7.76l-0.6 2.45q-0.34 1.38-0.7 2.75-0.65 2.49-1.24 5.01c-1.39 6.1-2.65 12.23-3.75 18.23l-0.17 0.98c-1.69 9.32-3.07 18.81-4.12 28.21l-0.16 1.46c-0.48 4.43-0.89 8.83-1.22 13.08l-0.09 1.22c-0.36 4.79-0.64 9.58-0.83 14.26l-0.03 0.97c-0.16 4.07-0.26 8.37-0.3 12.79l-0.02 2.7c-0.02 9.15 0.26 18.45 0.83 27.64q0.08 1.22 0.17 2.44l0.06 0.8c0.26 3.82 0.58 7.64 0.94 11.34l0.11 1.18q0.07 0.8 0.15 1.6c0.47 4.57 1.02 9.15 1.62 13.63q0.11 0.79 0.23 1.59l0.18 1.22q0.77 5.43 1.74 11.21 0.31 1.83 0.63 3.66c0.93 5.23 1.76 9.56 2.62 13.67 20.53 97.53 74.66 185.41 152.43 247.45 76.13 60.74 171.21 94.11 267.99 94.11q1.18 0 2.36-0.01c3.52-0.02 7.13-0.09 10.73-0.2 25.33-0.77 50.86-3.84 75.88-9.1 3.71-0.78 7.65-1.67 12.03-2.72q1.17-0.29 2.33-0.59l1.4-0.35q4.12-1.02 8.2-2.12 2.13-0.58 4.25-1.18 3.88-1.09 7.73-2.25 2.05-0.61 4.09-1.25 4.12-1.29 8.2-2.65l1.28-0.42q1.03-0.34 2.06-0.7c7.68-2.63 15.34-5.51 22.75-8.53q0.8-0.33 1.59-0.66l0.94-0.4c3.06-1.27 5.88-2.47 8.61-3.68q1.33-0.59 2.65-1.19l0.49-0.22q4.04-1.82 8.04-3.72 1.49-0.71 2.98-1.43c2.76-1.34 5.65-2.79 8.61-4.31l2.04-1.04c7.21-3.75 14.4-7.76 21.37-11.91l0.93-0.57c3.07-1.84 6.18-3.76 9.25-5.71l1.92-1.23c2.81-1.8 5.6-3.64 8.28-5.45l1.88-1.28c2.96-2.01 5.89-4.07 8.73-6.12l0.98-0.7c5.64-4.09 11.49-8.59 17.89-13.76l0.79-0.61 0.86-0.65 0.18-0.67z"/>
		<path id="&lt;Path&gt;" class="s4" d="m1299.09 702.81c-5.48-3.66-11.13-7.24-16.8-10.65l-0.18-0.1c-5.67-3.41-11.47-6.72-17.24-9.83l-0.2-0.12c-5.84-3.15-11.8-6.18-17.71-9.03l-0.15-0.07c-6.01-2.89-12.13-5.67-18.26-8.27-4.64-1.97-9.49-3.93-14.39-5.81q-1.53-0.58-3.07-1.12-1.02-0.36-2.04-0.74l-0.84-0.31c-2.82-1.04-5.74-2.12-8.65-3.11q-2.07-0.7-4.17-1.36l-3.77-1.23q-3.41-1.12-6.84-2.17-2.58-0.77-5.17-1.49l-3.03-0.85q-3.36-0.98-6.75-1.88-2.9-0.75-5.83-1.46l-2.8-0.68q-3.24-0.8-6.5-1.55-3.63-0.8-7.29-1.54l-1.64-0.33q-3.15-0.66-6.32-1.26c-2.76-0.51-5.52-0.98-8.36-1.45q-3.51-0.59-7.04-1.13-4.3-0.63-8.63-1.18-3.43-0.45-6.88-0.84-4.46-0.5-8.94-0.9-3.33-0.3-6.66-0.55-4.63-0.35-9.28-0.6-3.2-0.16-6.41-0.28c-3.41-0.13-6.55-0.22-9.6-0.27q-3.07-0.04-6.14-0.03c-3.86 0-7.06 0.02-9.95 0.08q-2.29 0.06-4.59 0.15l-1.22 0.04c-3.26 0.12-6.76 0.26-10.33 0.47q-1.94 0.12-3.88 0.27l-1.57 0.12c-3.23 0.24-6.99 0.52-10.74 0.89q-1.62 0.16-3.24 0.35l-1.71 0.19c-3.82 0.42-7.56 0.84-11.28 1.35q-1.26 0.18-2.52 0.37l-1.71 0.26c-3.85 0.57-7.95 1.18-12.02 1.89l-0.38 0.06-0.45 0.33-0.03 0.55c8.24 19.39 18.2 39.23 29.6 58.96 30.02 51.99 66.75 98.06 109.18 136.95-23.76 0.98-40.82 8.98-49.41 23.17-21.42 35.41 18.19 98.73 88.3 141.15 39.2 23.72 79.76 35.96 111.65 35.96 25.15 0 44.91-7.61 54.36-23.23 10.14-16.77 7.07-40.21-8.65-66.14 46.11 13.01 96.61 20.26 158.75 22.8l0.51-0.23 0.13-0.53c-24.24-108.52-88.56-202.27-181.22-264.04z"/>
	</g>
</svg>