<svg xmlns="http://www.w3.org/2000/svg" viewBox="0 0 72 72" fill="none">
  <!-- outer ring -->
  <circle cx="36" cy="36" r="33" stroke="#006242" stroke-width="1.6"/>

  <!-- star badge (sits atop the bun) -->
  <path d="M36 20 L37.5 24.5 L42.3 24.5 L38.6 27.2 L40.1 31.7 L36 29 L31.9 31.7 L33.4 27.2 L29.7 24.5 L34.5 24.5 Z"
        fill="#006242"/>

  <!-- top bun dome -->
  <path d="M17 42 C17 29 55 29 55 42 Z"
        fill="#EBF5EF" stroke="#006242" stroke-width="1.4"/>

  <!-- sesame seeds on bun -->
  <ellipse cx="27" cy="35" rx="2.5" ry="1.3" fill="#006242" opacity="0.45" transform="rotate(-25 27 35)"/>
  <ellipse cx="36" cy="32" rx="2.5" ry="1.3" fill="#006242" opacity="0.45"/>
  <ellipse cx="45" cy="35" rx="2.5" ry="1.3" fill="#006242" opacity="0.45" transform="rotate(25 45 35)"/>

  <!-- wavy lettuce layer -->
  <path d="M16 44 Q19.5 40 23 44 Q26.5 40 30 44 Q33.5 40 36 44 Q38.5 40 42 44 Q45.5 40 49 44 Q52.5 40 56 44 L56 47 L16 47 Z"
        fill="#006242" fill-opacity="0.18" stroke="#006242" stroke-width="0.9"/>

  <!-- filling / patty -->
  <rect x="17" y="47" width="38" height="5" rx="2"
        fill="#006242" fill-opacity="0.12" stroke="#006242" stroke-width="1.2"/>

  <!-- bottom bun -->
  <path d="M17 52 L55 52 Q55 62 36 62 Q17 62 17 52 Z"
        fill="#EBF5EF" stroke="#006242" stroke-width="1.4"/>
</svg>
