<svg width="108" height="108" viewBox="0 0 108 108" fill="none" xmlns="http://www.w3.org/2000/svg">
<circle cx="54" cy="54" r="51" stroke="#006242" stroke-width="6"/>
<path d="M78.6683 55.6077C84.3427 53.5048 87.3341 51.3245 87.0914 49.4685C86.8486 47.6125 83.397 46.2747 77.3726 45.7022C76.6491 45.6332 76.0467 45.1945 75.7615 44.5281C75.4758 43.8618 75.5739 43.1231 76.0231 42.5518C79.7646 37.7953 81.1772 34.374 80.001 32.9181C78.8248 31.4621 75.1826 32.1234 69.7459 34.7804C69.0926 35.0992 68.3497 35.0399 67.7587 34.6205C67.1676 34.2015 66.8652 33.5205 66.9501 32.7986C67.6569 26.7885 67.0751 23.1329 65.3116 22.5052C63.5482 21.8776 60.7877 24.3435 57.5381 29.4484C57.1481 30.0617 56.483 30.3991 55.7603 30.3499C55.0372 30.3011 54.4234 29.8783 54.1189 29.2183C51.5835 23.7235 49.1789 20.9084 47.3469 21.295C45.7257 21.6361 44.7135 24.386 44.4195 29.2473C44.3762 29.9645 43.9618 30.5774 43.3114 30.8862C42.6607 31.195 41.9241 31.1294 41.341 30.7095C37.3876 27.8662 34.6166 26.9134 33.3273 27.9542C32.0388 28.9953 32.3875 31.9047 34.336 36.368C34.7685 37.3582 34.2944 38.3317 33.6028 38.7813L33.5919 38.8108C34.4206 41.5855 35.646 44.4983 37.234 47.4682L37.2588 47.4821L37.2816 47.4652C39.4615 41.6411 44.3909 37.4003 50.4674 36.1215C50.6866 36.0756 50.9024 36.0365 51.0661 36.0079L51.0703 36.0066L51.0816 36.0045C51.2528 35.9746 51.4249 35.949 51.5864 35.9254L51.6588 35.9145C51.6938 35.9089 51.7289 35.9037 51.7639 35.8989C51.92 35.8775 52.0765 35.8598 52.2368 35.8421L52.3091 35.8341C52.3543 35.8288 52.3994 35.8239 52.4446 35.8194C52.5864 35.8055 52.7273 35.7946 52.8951 35.782L52.9616 35.7773C53.0157 35.7731 53.0698 35.7694 53.124 35.766C53.2733 35.7572 53.4201 35.7513 53.5568 35.7462L53.6086 35.7445C53.6728 35.742 53.7369 35.7399 53.8008 35.7382C53.9115 35.7357 54.0318 35.7344 54.1765 35.7344C54.2724 35.7344 54.3759 35.7344 54.4756 35.7361C54.6035 35.7382 54.7351 35.7416 54.8786 35.7475C54.9683 35.7506 55.0578 35.7545 55.147 35.7593C55.2771 35.7663 55.4068 35.7745 55.5361 35.7841C55.6295 35.7911 55.7226 35.7988 55.8154 35.8072C55.9408 35.8187 56.0659 35.8313 56.1907 35.8451C56.2871 35.856 56.3833 35.8678 56.4792 35.8804C56.6004 35.8956 56.7211 35.912 56.8414 35.9296C56.9399 35.9448 57.0383 35.9608 57.1393 35.9776C57.2556 35.9967 57.3716 36.0169 57.4872 36.0382C57.5758 36.055 57.6641 36.0725 57.7522 36.0907L57.8304 36.1067C57.9294 36.1266 58.0283 36.1475 58.127 36.1694C58.2181 36.1902 58.3089 36.2118 58.3992 36.2342L58.5203 36.2636C58.6008 36.283 58.6812 36.3032 58.7614 36.3242C58.8562 36.3495 58.9505 36.3757 59.0445 36.4029L59.1719 36.4386C59.2443 36.4588 59.3165 36.4796 59.3886 36.5009C59.4845 36.5303 59.58 36.5608 59.6751 36.5922L59.8341 36.6435C59.8927 36.662 59.9509 36.6811 60.0087 36.7007C60.1302 36.7424 60.2526 36.7874 60.3713 36.8311L60.4066 36.8442C60.4355 36.8548 60.4642 36.8653 60.4928 36.8757C60.5358 36.8906 60.5784 36.9061 60.6207 36.9224C60.8264 37.0011 61.0296 37.0831 61.2269 37.1668C61.4814 37.2749 61.7384 37.3915 61.99 37.5126L61.9967 37.5156C62.2445 37.635 62.4944 37.7625 62.7392 37.8946L62.7481 37.8992C62.9899 38.03 63.2331 38.1689 63.4712 38.3119L63.4783 38.3161C63.7167 38.4594 63.9531 38.6093 64.1876 38.7658C68.0699 41.3537 70.7681 45.2857 71.7845 49.8378L71.8017 49.914C71.8126 49.9616 71.8233 50.0096 71.8337 50.0578C73.2215 56.6518 70.8502 63.4132 65.6452 67.7032L65.6368 67.7323L65.6612 67.7499C66.0777 67.7597 66.4964 67.7647 66.9173 67.7647C70.5077 67.7647 74.2466 67.4092 78.0491 66.7054C80.1541 66.3159 82.2431 65.8195 84.2586 65.2297L84.275 65.2154L84.2746 65.1931C83.477 63.5394 81.3673 61.3974 78.1744 58.9992C77.5931 58.5625 77.3087 57.8739 77.413 57.1566C77.5173 56.4394 77.9868 55.8605 78.6683 55.6077Z" fill="#F9A639"/>
<path d="M84.6279 66.3281L84.6258 66.3146C84.6171 66.2372 84.604 66.1566 84.5863 66.0727L84.5787 66.0395C84.5585 65.9486 84.5362 65.8641 84.5093 65.7787C84.4512 65.5923 84.3722 65.3955 84.2746 65.1931L84.2439 65.1792C82.2301 65.7686 80.1428 66.2646 78.0398 66.6537C73.7948 67.4395 69.6302 67.7903 65.6625 67.6974H65.6616L65.6452 67.7033L65.6082 67.7331L65.5775 67.7575L65.572 67.7638L65.5455 67.784L65.5106 67.8109C65.2422 68.028 64.997 68.2165 64.7601 68.3881L64.7189 68.4176C64.5998 68.5034 64.4766 68.5896 64.3529 68.6742L64.2738 68.728C64.1615 68.8037 64.0446 68.8807 63.9264 68.9564L63.846 69.0082C63.7173 69.0898 63.5869 69.1706 63.4577 69.2475L63.419 69.2715C63.1267 69.4453 62.825 69.6135 62.5226 69.7713L62.4372 69.8146C62.3131 69.8785 62.1915 69.9391 62.0758 69.9955C62.0343 70.0154 61.9927 70.0353 61.9509 70.0552C61.8393 70.1082 61.727 70.1603 61.6139 70.2113L61.5933 70.221C61.5563 70.2375 61.5193 70.2541 61.4823 70.2706C61.3674 70.3211 61.2492 70.3716 61.1209 70.425L61.081 70.4418C61.0591 70.4511 61.0371 70.4602 61.0149 70.4692C60.704 70.5962 60.3831 70.7165 60.0608 70.8271C60.0322 70.837 60.0035 70.8466 59.9746 70.8562L59.9203 70.8743C59.8065 70.9124 59.6919 70.9494 59.5766 70.9853C59.5197 71.003 59.4625 71.0205 59.405 71.0379C59.2973 71.0702 59.1892 71.1016 59.0807 71.1321C59.0215 71.149 58.962 71.1655 58.9023 71.1818C58.7882 71.2123 58.6735 71.2419 58.5582 71.2705L58.4997 71.2853C58.4672 71.2937 58.4345 71.3018 58.4017 71.3097C58.2183 71.3538 58.053 71.3913 57.8973 71.4241C56.8482 71.6449 55.7771 71.7732 54.715 71.806C54.5639 71.8107 54.4125 71.8132 54.2644 71.814C54.231 71.8143 54.1977 71.8145 54.1643 71.8145C45.6882 71.8145 38.2815 65.8035 36.5307 57.4852C36.4949 57.3152 36.46 57.1339 36.4213 56.9143C36.412 56.8634 36.4036 56.8121 36.3939 56.7562C36.3674 56.5988 36.3431 56.4424 36.3216 56.2905L36.314 56.2387C36.3107 56.2169 36.3076 56.1949 36.3048 56.1727C36.2791 55.9851 36.2564 55.7928 36.2366 55.601C36.2344 55.5789 36.2323 55.5567 36.2303 55.5345L36.2257 55.4841C36.2105 55.3293 36.1975 55.1694 36.1861 55.0091L36.1836 54.9751C36.1811 54.9411 36.1788 54.907 36.1769 54.8728C36.1529 54.4875 36.1411 54.0975 36.142 53.7139L36.1428 53.6003C36.1445 53.4148 36.1487 53.2343 36.155 53.0635L36.1563 53.0231C36.1643 52.8271 36.176 52.626 36.1912 52.425L36.1954 52.3741C36.2089 52.1957 36.2261 52.0114 36.2463 51.8251L36.253 51.7641C36.2972 51.3699 36.3552 50.972 36.4255 50.5807L36.4331 50.5399C36.4789 50.288 36.5319 50.0309 36.5904 49.7752C36.6064 49.7064 36.6234 49.6379 36.6413 49.5695C36.6514 49.5296 36.6615 49.4897 36.6716 49.4496L36.6968 49.3461C36.7233 49.2392 36.7503 49.129 36.7797 49.0213C36.8049 48.9307 36.8313 48.8407 36.8588 48.7512L36.9206 48.5426C36.9464 48.4543 36.9732 48.3662 37.001 48.2784C37.0332 48.1783 37.0669 48.0787 37.1019 47.9797L37.1343 47.8876C37.147 47.8503 37.1596 47.8129 37.1722 47.7753C37.1899 47.7212 37.2084 47.6672 37.2277 47.6133L37.2332 47.6041C37.2408 47.5828 37.2482 47.5615 37.2555 47.5401C37.2639 47.5149 37.2726 47.4899 37.2816 47.4653L37.2803 47.4434C35.694 44.4768 34.4698 41.5671 33.6419 38.7961L33.6259 38.7789L33.6028 38.7814C33.5574 38.8108 33.5107 38.8384 33.4627 38.8642L33.443 38.8743C33.3695 38.9128 33.288 38.9481 33.1985 38.9804C33.1733 38.9896 33.1479 38.9983 33.1224 39.0064C33.0857 39.0179 33.0484 39.0283 33.0105 39.0376C32.9647 39.0489 32.915 39.0586 32.8591 39.0674C32.8299 39.0722 32.8006 39.0764 32.7711 39.0801C32.7058 39.0871 32.6399 39.0907 32.5734 39.091C32.5502 39.0913 32.5273 39.0911 32.5049 39.0906C32.411 39.088 32.3332 39.0813 32.2588 39.0704C31.6862 38.9829 31.131 38.9105 30.6072 38.8554C29.5555 38.7452 28.6031 38.7015 27.7761 38.7254L27.7584 38.7263C27.3453 38.7385 26.9571 38.7683 26.6054 38.8146C26.427 38.8382 26.2537 38.8664 26.0905 38.8987C25.9268 38.9311 25.7691 38.9686 25.6227 39.0094C25.4746 39.051 25.3333 39.0973 25.2025 39.1474C24.6686 39.3522 24.2736 39.632 24.0284 39.9794C23.9657 40.0678 23.9123 40.162 23.8689 40.2596C23.7461 40.5347 23.7002 40.8469 23.7322 41.1859C23.7453 41.3205 23.7705 41.461 23.8071 41.6028C23.9518 42.1657 24.2846 42.8055 24.7969 43.5051C24.9059 43.6536 25.0266 43.8092 25.1663 43.9813C25.1921 44.013 25.2183 44.0447 25.2449 44.0763C25.4258 44.2947 25.6235 44.5197 25.8326 44.7448C26.0425 44.9715 26.2705 45.205 26.5099 45.4402C26.8052 45.7296 27.1274 46.0308 27.4686 46.3345C27.8232 46.6508 28.2132 46.9832 28.6271 47.3222C28.7777 47.4455 28.9397 47.5759 29.1214 47.7202C29.2715 47.8397 29.4243 47.9597 29.5799 48.0803C29.8088 48.2574 30.0023 48.4055 30.1903 48.5464C30.415 48.7151 30.5963 48.9212 30.7288 49.1585C30.8542 49.3831 30.932 49.6279 30.9606 49.8862C30.9976 50.2215 30.948 50.5627 30.8167 50.8735C30.7836 50.9521 30.7458 51.0276 30.7031 51.1003C30.6165 51.2488 30.51 51.3851 30.3868 51.5045C30.2593 51.629 30.1138 51.7355 29.9548 51.8213C29.8727 51.8655 29.7857 51.9046 29.6965 51.9378C28.3352 52.4422 27.1085 52.9596 26.0505 53.4758C25.783 53.6058 25.5247 53.737 25.2824 53.8653C25.1595 53.9304 25.0392 53.9955 24.9214 54.0605C24.6884 54.1892 24.4612 54.3205 24.2463 54.4509C23.924 54.6465 23.6237 54.8438 23.3536 55.0365C22.9897 55.296 22.6679 55.5577 22.397 55.813C22.1921 56.007 22.0125 56.2009 21.8628 56.3906C21.7622 56.5181 21.673 56.6464 21.5977 56.7717C21.3281 57.2206 21.2191 57.6598 21.2734 58.0771C21.5161 59.9331 24.9677 61.2708 30.9921 61.8438C31.3585 61.8782 31.7026 62.0108 31.9874 62.2261C32.1225 62.3288 32.244 62.4491 32.3484 62.5837C32.5036 62.7844 32.618 63.0098 32.6879 63.2547C32.7341 63.4175 32.7594 63.5853 32.7627 63.7536C32.772 64.2029 32.626 64.6315 32.3416 64.9937C29.4592 68.6582 27.9435 71.5461 27.9587 73.3453C27.9604 73.5396 27.9801 73.7226 28.018 73.8905C28.0815 74.174 28.1976 74.4222 28.3638 74.6279C28.5909 74.9089 28.9136 75.1142 29.3229 75.2383C29.4567 75.2791 29.6022 75.3115 29.7554 75.3355C29.9451 75.3649 30.1521 75.3813 30.3704 75.3843C30.587 75.3872 30.8209 75.3775 31.0653 75.3552C31.2593 75.3371 31.465 75.3106 31.6766 75.2766C32.2003 75.192 32.7833 75.0561 33.4085 74.8732C33.7273 74.7798 34.0748 74.6674 34.4416 74.5404C34.6473 74.4689 34.8215 74.4062 34.9902 74.344C35.2657 74.2413 35.5526 74.1303 35.842 74.0129C36.7078 73.6625 37.6421 73.2426 38.6189 72.7652C38.8713 72.6419 39.1371 72.5742 39.4089 72.5641C39.5801 72.5569 39.7522 72.5742 39.92 72.6142C40.0836 72.6529 40.2427 72.713 40.392 72.7925C40.7677 72.9932 41.0722 73.3129 41.2497 73.6932C41.4008 74.0171 41.458 74.3814 41.4151 74.747C41.3726 75.1054 41.3343 75.4617 41.3015 75.8054C41.2847 75.9778 41.2691 76.1485 41.2548 76.3173C41.1976 76.9908 41.1585 77.6391 41.1383 78.2436C41.1029 79.3125 41.1261 80.2775 41.2064 81.1125C41.23 81.3536 41.2582 81.587 41.291 81.8054C41.3566 82.2483 41.4432 82.6539 41.5476 83.0106C41.6002 83.1902 41.6586 83.3614 41.7209 83.5188C42.041 84.3277 42.4895 84.8397 43.0532 85.0403C44.8162 85.668 47.577 83.2024 50.8267 78.0972C51.2171 77.4838 51.8805 77.146 52.6049 77.1957C53.328 77.2445 53.9413 77.6672 54.2459 78.3273C54.3982 78.6571 54.5513 78.981 54.7015 79.2893C54.9291 79.7559 55.1583 80.2072 55.3838 80.63C55.5344 80.9135 55.6867 81.1904 55.836 81.4537C55.9858 81.7174 56.1368 81.9749 56.2853 82.2189C56.4338 82.4625 56.584 82.6997 56.7312 82.9239C56.8789 83.1477 57.0274 83.3644 57.1729 83.5667C57.4661 83.9748 57.7577 84.3428 58.0403 84.6605C58.183 84.8207 58.3256 84.9713 58.4644 85.1076C58.7458 85.3836 59.0239 85.6141 59.291 85.7933C59.4256 85.8838 59.5606 85.9628 59.6915 86.0281C59.7571 86.0611 59.8229 86.0912 59.8888 86.1181C60.0192 86.1715 60.1492 86.2127 60.2758 86.2405C60.4118 86.2705 60.5456 86.2855 60.6771 86.2855C60.7932 86.2855 60.9068 86.2739 61.0179 86.2506C61.1218 86.2287 61.2252 86.1959 61.3249 86.1534C61.7166 85.9868 62.0733 85.6591 62.3854 85.1804C62.7275 84.6562 63.0223 83.9415 63.2613 83.0569C63.313 82.8646 63.3635 82.6597 63.411 82.4486C63.4346 82.3431 63.4575 82.2357 63.4796 82.1263C63.5457 81.8024 63.6071 81.4545 63.6618 81.0919C63.716 80.7343 63.7652 80.3528 63.8077 79.9578C63.8359 79.6966 63.8616 79.4244 63.8847 79.1484C63.9074 78.8704 63.928 78.5843 63.9453 78.2982C63.9566 78.1123 63.9928 77.9314 64.053 77.7602C64.196 77.3547 64.4665 77.016 64.8346 76.7809C65.0474 76.6446 65.2809 76.5512 65.5283 76.5032C65.6118 76.4873 65.6951 76.4767 65.7781 76.4717C65.8623 76.4662 65.9481 76.4666 66.0318 76.4725C66.2051 76.4852 66.3755 76.5209 66.5387 76.5798C66.7095 76.6408 66.8727 76.727 67.0237 76.836C67.6139 77.2605 68.1869 77.6483 68.7266 77.989C68.9437 78.1262 69.1595 78.2583 69.3686 78.3815C69.4734 78.4435 69.5774 78.5038 69.6803 78.5624C69.8835 78.6785 70.0871 78.79 70.2852 78.8939C70.4838 78.9978 70.6785 79.0954 70.8649 79.1833C71.1463 79.3167 71.4218 79.4362 71.6835 79.5375C71.946 79.6393 72.2001 79.7252 72.4395 79.7929C72.7613 79.8846 73.0654 79.9456 73.3439 79.9755C73.4844 79.9902 73.6203 79.9986 73.7494 79.9965C73.8134 79.9962 73.8769 79.9938 73.94 79.9893C74.002 79.9848 74.0628 79.9783 74.1226 79.9696C74.3615 79.9355 74.5786 79.8678 74.7679 79.7681C74.8638 79.718 74.9542 79.6583 75.0371 79.5914C75.3656 79.3259 75.5903 78.9309 75.7043 78.4173C75.7602 78.167 75.7901 77.8839 75.7943 77.5751C75.8002 77.1191 75.7484 76.5954 75.6412 76.0186C75.4561 75.0233 75.1019 73.8505 74.5891 72.5325C74.4195 72.0959 74.2307 71.6403 74.0287 71.1776C73.945 70.9857 73.8924 70.7859 73.8727 70.5836C73.8662 70.5188 73.8631 70.4535 73.8634 70.3876C73.8668 69.799 74.1507 69.2278 74.6227 68.8593C74.9706 68.5875 75.3871 68.4466 75.8267 68.4525C75.9192 68.4536 76.0123 68.4613 76.106 68.4756C76.39 68.5189 76.6739 68.5589 76.9503 68.5951C77.2237 68.6304 77.4955 68.6624 77.7576 68.6902C78.8092 68.8004 79.7616 68.8441 80.5882 68.8201L80.6063 68.8197C81.1246 68.8037 81.6012 68.7608 82.0223 68.6923C82.114 68.6771 82.2103 68.6594 82.3168 68.6376C82.4741 68.6056 82.6133 68.5724 82.7421 68.5362C82.8893 68.495 83.0307 68.4487 83.1623 68.3982C83.294 68.3477 83.4185 68.2918 83.5329 68.2325C84.0003 67.9902 84.3242 67.6717 84.4958 67.286C84.5228 67.2262 84.5467 67.1598 84.5695 67.0832L84.5804 67.0399L84.5846 67.023C84.5989 66.9675 84.6098 66.9149 84.6178 66.8632C84.6212 66.8427 84.6241 66.8221 84.6267 66.8013C84.6351 66.7307 84.6397 66.6646 84.6405 66.5998L84.6418 66.578C84.6418 66.4964 84.6372 66.4131 84.6279 66.3281Z" fill="#E0902B"/>
<path d="M71.885 50.0469C71.8746 49.9984 71.8638 49.9501 71.8526 49.9022L71.8358 49.8264L71.811 49.8058C69.1721 49.6981 67.0334 49.3881 65.0802 48.8303L65.0525 48.84L65.0512 48.8694C65.7319 49.9653 65.8732 50.9543 65.4496 51.6547C64.5637 53.119 61.4633 52.8712 58.5384 51.1011C55.6135 49.3317 53.9552 46.7004 54.8411 45.2357C55.2008 44.6417 55.9269 44.3127 56.9407 44.2837L56.9647 44.2664L56.9575 44.2378C55.1571 42.5968 53.5993 40.6478 52.3276 38.4461C51.8493 37.6178 51.4312 36.7853 51.0854 35.9717L51.0568 35.9561C50.8932 35.9847 50.6765 36.0238 50.4565 36.0701C47.421 36.7091 44.5911 38.1209 42.272 40.1527C40.0239 42.1223 38.2815 44.6446 37.2323 47.4467C37.2231 47.4719 37.2142 47.4975 37.2058 47.5233C37.1988 47.5443 37.1915 47.5653 37.184 47.5864L37.1848 47.6066C37.38 48.0226 37.5857 48.437 37.7965 48.8374C39.7967 52.639 42.5744 56.2126 45.8291 59.1716C50.976 63.8507 57.8094 66.8358 65.5905 67.8038L65.5939 67.8042L65.6103 67.7983L65.6406 67.7743L65.6784 67.744C70.8985 63.441 73.2766 56.6602 71.885 50.0469Z" fill="#FED354"/>
<path d="M65.5972 67.7516C57.8266 66.7849 51.0034 63.8045 45.8645 59.1325C42.6144 56.1778 39.8405 52.6092 37.8431 48.8131C37.6324 48.413 37.4271 47.9995 37.2306 47.5809L37.2054 47.5662L37.1827 47.5835C37.1617 47.6415 37.1415 47.7 37.1221 47.7589C37.1098 47.7962 37.0973 47.8333 37.0847 47.8704L37.0523 47.9625C37.0178 48.0622 36.9829 48.1619 36.9509 48.2624C36.9229 48.3505 36.8961 48.439 36.8706 48.5279L36.8083 48.7361C36.7814 48.8261 36.754 48.9166 36.7288 49.0074C36.6993 49.1156 36.672 49.2266 36.6459 49.3339L36.6207 49.4369C36.6111 49.4756 36.6013 49.5142 36.5912 49.5526C36.573 49.6225 36.5556 49.6927 36.5391 49.7634C36.4806 50.02 36.4276 50.2779 36.3813 50.5303L36.3742 50.5715C36.3031 50.9636 36.245 51.3628 36.2008 51.7582L36.1941 51.8196C36.1739 52.006 36.1567 52.1911 36.1428 52.3699L36.139 52.4212C36.1239 52.6227 36.1121 52.8242 36.1041 53.021L36.1028 53.0619C36.0961 53.2331 36.0919 53.414 36.0902 53.5999L36.0894 53.7135C36.0885 54.0984 36.1003 54.4896 36.1243 54.8762C36.1265 54.9104 36.1289 54.9446 36.1314 54.9788L36.134 55.0125C36.1449 55.1732 36.1584 55.3339 36.1735 55.4895L36.1781 55.5392C36.1801 55.5616 36.1822 55.584 36.1844 55.6065C36.2042 55.7987 36.2273 55.9914 36.2526 56.1799C36.2557 56.202 36.2589 56.2243 36.2623 56.2467L36.2698 56.2981C36.2914 56.4503 36.3158 56.6075 36.343 56.7696C36.3517 56.821 36.3606 56.8723 36.3695 56.9236C36.4087 57.1436 36.4436 57.3258 36.4797 57.4987C37.3434 61.6014 39.6205 65.2983 42.892 67.9081C46.0946 70.4633 50.0943 71.8671 54.1655 71.8671C54.1986 71.8671 54.2317 71.8669 54.2648 71.8666C54.4129 71.8658 54.5648 71.8628 54.7162 71.8582C55.7818 71.8258 56.8557 71.6967 57.9082 71.4754C58.0643 71.4426 58.2301 71.4052 58.4143 71.361C58.4471 71.3529 58.4798 71.3446 58.5123 71.3362L58.5712 71.3214C58.6868 71.2928 58.8017 71.2631 58.9162 71.2323C58.9759 71.216 59.0355 71.1994 59.0949 71.1826C59.2038 71.1521 59.3122 71.1205 59.4201 71.088C59.4776 71.0709 59.535 71.0533 59.5922 71.0354C59.7077 70.9992 59.8227 70.962 59.9371 70.9239L59.991 70.9062C60.0199 70.8967 60.0488 70.8869 60.0776 70.8768C60.4007 70.7662 60.7229 70.645 61.0347 70.518C61.0571 70.5087 61.0794 70.4995 61.1015 70.4902L61.1411 70.4734C61.2698 70.4199 61.3884 70.3695 61.5033 70.3186C61.5406 70.302 61.5777 70.2853 61.6148 70.2685L61.6354 70.2592C61.7487 70.2082 61.8614 70.156 61.9736 70.1028C62.0154 70.0828 62.0572 70.0628 62.099 70.0426C62.2151 69.9862 62.3366 69.9252 62.4611 69.8613L62.547 69.8175C62.8503 69.6598 63.1527 69.4911 63.4459 69.3165L63.4851 69.2925C63.6142 69.2151 63.745 69.1344 63.8742 69.0523L63.9549 69.0006C64.0732 68.9249 64.1905 68.8475 64.3033 68.7713L64.3823 68.7175C64.5069 68.6329 64.6301 68.5463 64.7496 68.46L64.7908 68.4306C65.0281 68.2585 65.2742 68.0692 65.5434 67.8518L65.5766 67.8261L65.6128 67.7988L65.6204 67.7706L65.5972 67.7516Z" fill="#F8C03A"/>
<path d="M64.2124 38.7191C63.9819 38.5652 63.7442 38.4146 63.5057 38.2711L63.4981 38.2669C63.2596 38.1235 63.0156 37.9842 62.7729 37.8534L62.7644 37.8484C62.5188 37.7159 62.2681 37.5884 62.0194 37.4685L62.0131 37.4656C61.7603 37.344 61.5029 37.227 61.245 37.1177C61.0498 37.0348 60.8458 36.9523 60.6396 36.8733C60.5967 36.857 60.5537 36.8413 60.5105 36.8261C60.4819 36.816 60.4533 36.8057 60.4247 36.795L60.3893 36.782C60.2707 36.7382 60.1479 36.6928 60.0255 36.6511C59.9674 36.6315 59.9089 36.6124 59.85 36.5939L59.6915 36.5422C59.5958 36.5108 59.4999 36.4803 59.4037 36.4509C59.3314 36.4293 59.2589 36.4084 59.1862 36.3882L59.0588 36.3525C58.9645 36.325 58.8699 36.2986 58.7748 36.2734C58.6935 36.2523 58.6117 36.2319 58.5296 36.212L58.4118 36.1834C58.3209 36.1609 58.2298 36.1392 58.1383 36.1181C58.0365 36.0957 57.9343 36.0741 57.8317 36.0534L57.7627 36.0395C57.6743 36.021 57.5857 36.0033 57.4968 35.9865C57.3807 35.965 57.2646 35.9453 57.1451 35.9255C57.0467 35.9089 56.948 35.8931 56.849 35.8779C56.7284 35.8603 56.6074 35.8437 56.486 35.8283C56.3898 35.8157 56.2933 35.8039 56.1965 35.793C56.0715 35.7789 55.9461 35.7663 55.8205 35.7551C55.7271 35.7467 55.6337 35.739 55.5403 35.732C55.4104 35.7222 55.2803 35.7137 55.1499 35.7067C55.0602 35.7022 54.9703 35.6983 54.8803 35.695C54.7368 35.6895 54.6047 35.6857 54.4764 35.6836C54.3903 35.6825 54.3042 35.6821 54.2181 35.6823C54.0557 35.6823 53.9211 35.6832 53.7996 35.6857C53.7353 35.6874 53.671 35.6895 53.6065 35.692L53.5551 35.6937C53.418 35.6987 53.2708 35.7046 53.1206 35.7135C53.0662 35.7168 53.0118 35.7206 52.9574 35.7248L52.8913 35.7299C52.7555 35.74 52.5973 35.7517 52.4395 35.7673C52.3941 35.7718 52.3487 35.7767 52.3032 35.782L52.2313 35.79C52.0706 35.8077 51.9133 35.8254 51.7568 35.8468C51.7214 35.8519 51.6861 35.8571 51.6508 35.8624L51.5788 35.8733C51.4169 35.8973 51.2444 35.923 51.0732 35.9528L51.0572 35.9553L51.0383 35.9692L51.037 35.9924C51.3836 36.808 51.8026 37.6427 52.2822 38.4726C53.545 40.6597 55.0902 42.5977 56.8751 44.2337C55.8756 44.2749 55.1579 44.6115 54.7965 45.2084C53.8955 46.698 55.5617 49.3617 58.5111 51.1462C60.1601 52.144 61.8663 52.6589 63.2078 52.6589C64.2658 52.6589 65.0971 52.3388 65.4946 51.6817C65.9211 50.9762 65.792 49.9902 65.1307 48.8994C67.0704 49.4466 69.1948 49.7516 71.8088 49.8585L71.8303 49.8488L71.8358 49.8265C70.8161 45.2614 68.1103 41.3176 64.2124 38.7191Z" fill="#FED886"/>
</svg>
