<svg width="109" height="103" viewBox="0 0 109 103" fill="none" xmlns="http://www.w3.org/2000/svg">
<path d="M80.6341 79.2895C80.6341 81.1971 74.09 82.7451 66.0173 82.7451C57.9445 82.7451 51.4019 81.1971 51.4019 79.2895C51.4019 77.382 57.9445 75.834 66.0173 75.834C74.09 75.834 80.6341 77.382 80.6341 79.2895Z" fill="#F2E7E7"/>
<path d="M70.8033 79.7749C70.8033 81.6839 62.2377 83.2304 51.6713 83.2304C41.1049 83.2304 32.5393 81.6839 32.5393 79.7749C32.5393 77.8673 41.1049 76.3208 51.6713 76.3208C62.2377 76.3208 70.8033 77.8673 70.8033 79.7749Z" fill="#F2E7E7"/>
<path d="M49.7755 81.9533C49.7755 83.8609 43.2314 85.4088 35.1587 85.4088C27.0859 85.4088 20.5418 83.8609 20.5418 81.9533C20.5418 80.0457 27.0859 78.4978 35.1587 78.4978C43.2314 78.4978 49.7755 80.0457 49.7755 81.9533Z" fill="#F2E7E7"/>
<path d="M69.9849 64.5797C69.9849 64.5797 64.4308 56.2656 74.5548 51.7786C74.5548 51.7786 79.7699 60.9998 69.9849 64.5797Z" fill="#89A037"/>
<path d="M71.9694 65.9811C71.9694 65.9811 75.4205 56.5972 85.0058 62.1408C85.0058 62.1408 80.6208 71.7838 71.9694 65.9811Z" fill="#89A037"/>
<path d="M27.8303 27.6606C27.8303 27.6606 44.4539 20.4314 51.6002 39.6225L45.5756 42.0525C45.5756 42.0525 40.7142 28.1031 27.8303 27.6606Z" fill="#89A037"/>
<mask id="mask0_77_266" style="mask-type:luminance" maskUnits="userSpaceOnUse" x="27" y="26" width="25" height="17">
<path d="M27.8303 27.661C27.8303 27.661 44.4539 20.4318 51.6002 39.6229L45.5756 42.0529C45.5756 42.0529 40.7142 28.1035 27.8303 27.661Z" fill="white"/>
</mask>
<g mask="url(#mask0_77_266)">
<path d="M26.9038 28.1802C26.9038 28.1802 43.6961 23.227 49.4588 43.9084L42.4678 48.5419L26.9038 28.1802Z" fill="#71832C"/>
</g>
<path d="M48.9453 42.0523C48.9453 42.0523 41.8581 26.2663 48.2409 8.19839C48.2409 8.19839 56.9604 19.2428 51.6002 42.0523H48.9453Z" fill="#89A037"/>
<mask id="mask1_77_266" style="mask-type:luminance" maskUnits="userSpaceOnUse" x="45" y="8" width="9" height="35">
<path d="M48.9453 42.0522C48.9453 42.0522 41.8581 26.2662 48.2409 8.19824C48.2409 8.19824 56.9604 19.2427 51.6002 42.0522H48.9453Z" fill="white"/>
</mask>
<g mask="url(#mask1_77_266)">
<path d="M47.976 4.47729L50.1603 42.8242L55.7869 42.0517L58.6741 20.8389L47.976 4.47729Z" fill="#71832C"/>
</g>
<path d="M56.1864 42.0525C56.1864 42.0525 55.7232 26.999 71.5239 20.9833C71.5239 20.9833 52.167 17.8415 50.1603 41.0151L56.1864 42.0525Z" fill="#89A037"/>
<mask id="mask2_77_266" style="mask-type:luminance" maskUnits="userSpaceOnUse" x="50" y="20" width="22" height="23">
<path d="M56.1864 42.0523C56.1864 42.0523 55.7232 26.9989 71.5239 20.9832C71.5239 20.9832 52.167 17.8414 50.1603 41.0149L56.1864 42.0523Z" fill="white"/>
</mask>
<g mask="url(#mask2_77_266)">
<path d="M72.9876 20.8393C72.9876 20.8393 55.3562 21.0376 53.3421 40.6283L59.9098 42.052L72.9876 20.8393Z" fill="#71832C"/>
</g>
<path d="M50.5761 37.4783C42.274 37.6366 36.6164 46.0587 35.3037 55.8215C33.4553 69.5652 33.8786 81.9119 50.7108 81.8527C68.832 81.7891 68.9549 69.9855 66.5456 55.6543C64.3909 42.8414 59.1329 37.317 50.5761 37.4783Z" fill="#F3B33F"/>
<mask id="mask3_77_266" style="mask-type:luminance" maskUnits="userSpaceOnUse" x="34" y="37" width="34" height="45">
<path d="M50.5761 37.4788C42.274 37.6371 36.6164 46.0592 35.3037 55.822C33.4553 69.5657 33.8786 81.9124 50.7108 81.8532C68.832 81.7896 68.9549 69.986 66.5456 55.6548C64.3909 42.8419 59.1329 37.3175 50.5761 37.4788Z" fill="white"/>
</mask>
<g mask="url(#mask3_77_266)">
<path d="M39.7153 41.0941L33.7129 49.2956L38.9043 55.5067L44.8579 48.1709L39.7153 41.0941Z" fill="#F4C043"/>
<path d="M38.484 58.114L33.3058 66.6086L38.8658 73.6543L44.8712 66.175L38.484 58.114Z" fill="#F4C043"/>
<path d="M38.5816 75.4038L33.3058 83.8984L38.9043 91.5243L44.7335 83.8984L38.5816 75.4038Z" fill="#F4C043"/>
<path d="M51.8844 40.2077L45.586 48.3012L52.2129 55.9833L57.357 48.3012L51.8844 40.2077Z" fill="#F4C043"/>
<path d="M51.8844 58.114L46.3585 66.6234L52.278 73.9917L58.091 66.7492L51.8844 58.114Z" fill="#F4C043"/>
<path d="M52.2781 75.4038L46.0019 84.1633L52.213 92.0008L58.1917 84.3187L52.2781 75.4038Z" fill="#F4C043"/>
<path d="M44.593 30.6253L39.2861 38.8313L45.1213 46.8286L51.1 39.1465L44.593 30.6253Z" fill="#F4C043"/>
<path d="M45.1539 49.4228L39.5836 56.689L45.8716 65.4426L51.7675 57.1818L45.1539 49.4228Z" fill="#F4C043"/>
<path d="M45.3181 67.3414L39.2876 74.7142L45.5756 83.4662L51.8844 74.8977L45.3181 67.3414Z" fill="#F4C043"/>
<path d="M33.1564 49.3164L26.6893 56.6892L32.9788 65.4428L38.484 56.3592L33.1564 49.3164Z" fill="#F4C043"/>
<path d="M33.1564 67.3414L26.6893 74.7142L32.9788 83.4662L38.114 74.5751L33.1564 67.3414Z" fill="#F4C043"/>
<path d="M70.1166 49.3164L63.6495 56.6892L69.939 65.4428L75.4442 56.3592L70.1166 49.3164Z" fill="#F4C043"/>
<path d="M70.1166 67.3414L64.0742 74.8444L69.939 83.4662L75.4442 74.3842L70.1166 67.3414Z" fill="#F4C043"/>
<path d="M57.9919 29.3733L52.278 38.7277L57.9016 46.8286L63.3195 37.856L57.9919 29.3733Z" fill="#F4C043"/>
<path d="M57.912 49.4228L53.0032 57.4319L58.1917 65.4426L63.3195 56.7379L57.912 49.4228Z" fill="#F4C043"/>
<path d="M58.424 67.8459L52.8611 74.8561L58.1917 83.4661L63.1922 74.4521L58.424 67.8459Z" fill="#F4C043"/>
<path d="M63.0679 39.7799L58.1917 48.3011L63.4142 55.5067L69.5468 48.6859L63.0679 39.7799Z" fill="#F4C043"/>
<path d="M63.6495 58.114L58.8709 66.4132L63.6539 73.6543L69.9775 67.2272L63.6495 58.114Z" fill="#F4C043"/>
<path d="M63.6391 75.6569L58.8709 83.703L63.4142 91.5243L69.9775 84.5185L63.6391 75.6569Z" fill="#F4C043"/>
</g>
<path d="M39.2861 47.0027C39.7981 47.0027 40.2125 47.5829 40.2125 48.3006C40.2125 49.0169 39.7981 49.597 39.2861 49.597C38.774 49.597 38.3582 49.0169 38.3582 48.3006C38.3582 47.5829 38.774 47.0027 39.2861 47.0027Z" fill="#F3B33F"/>
<path d="M51.4715 47.0027C51.9835 47.0027 52.3979 47.5829 52.3979 48.3006C52.3979 49.0169 51.9835 49.597 51.4715 49.597C50.9594 49.597 50.5451 49.0169 50.5451 48.3006C50.5451 47.5829 50.9594 47.0027 51.4715 47.0027Z" fill="#F3B33F"/>
<path d="M63.6569 47.0027C64.1689 47.0027 64.5833 47.5829 64.5833 48.3006C64.5833 49.0169 64.1689 49.597 63.6569 49.597C63.1448 49.597 62.7305 49.0169 62.7305 48.3006C62.7305 47.5829 63.1448 47.0027 63.6569 47.0027Z" fill="#F3B33F"/>
<path d="M44.6581 56.1351C45.1701 56.1351 45.586 56.7152 45.586 57.4315C45.586 58.1493 45.1701 58.7294 44.6581 58.7294C44.146 58.7294 43.7317 58.1493 43.7317 57.4315C43.7317 56.7152 44.146 56.1351 44.6581 56.1351Z" fill="#F3B33F"/>
<path d="M58.162 56.1351C58.6741 56.1351 59.0885 56.7152 59.0885 57.4315C59.0885 58.1493 58.6741 58.7294 58.162 58.7294C57.65 58.7294 57.2342 58.1493 57.2342 57.4315C57.2342 56.7152 57.65 56.1351 58.162 56.1351Z" fill="#F3B33F"/>
<path d="M52.3979 65.633C52.9099 65.633 53.3243 66.2146 53.3243 66.9309C53.3243 67.6472 52.9099 68.2273 52.3979 68.2273C51.8858 68.2273 51.4715 67.6472 51.4715 66.9309C51.4715 66.2146 51.8858 65.633 52.3979 65.633Z" fill="#F3B33F"/>
<path d="M38.1747 64.3352C38.6867 64.3352 39.1011 64.9168 39.1011 65.6331C39.1011 66.3493 38.6867 66.9309 38.1747 66.9309C37.6627 66.9309 37.2483 66.3493 37.2483 65.6331C37.2483 64.9168 37.6627 64.3352 38.1747 64.3352Z" fill="#F3B33F"/>
<path d="M45.5859 73.8228C46.0965 73.8228 46.5123 74.4029 46.5123 75.1207C46.5123 75.8369 46.0965 76.4171 45.5859 76.4171C45.0739 76.4171 44.6581 75.8369 44.6581 75.1207C44.6581 74.4029 45.0739 73.8228 45.5859 73.8228Z" fill="#F3B33F"/>
<path d="M58.162 73.8228C58.6741 73.8228 59.0885 74.4029 59.0885 75.1207C59.0885 75.8369 58.6741 76.4171 58.162 76.4171C57.65 76.4171 57.2342 75.8369 57.2342 75.1207C57.2342 74.4029 57.65 73.8228 58.162 73.8228Z" fill="#F3B33F"/>
<path d="M63.8256 64.3352C64.3376 64.3352 64.752 64.9168 64.752 65.6331C64.752 66.3493 64.3376 66.9309 63.8256 66.9309C63.3136 66.9309 62.8977 66.3493 62.8977 65.6331C62.8977 64.9168 63.3136 64.3352 63.8256 64.3352Z" fill="#F3B33F"/>
<path d="M42.0254 64.3812C48.824 67.3188 50.4889 74.0271 50.0804 76.9055C50.0271 77.2799 50.4089 77.8408 50.2935 78.0687C50.1958 78.2611 49.5846 78.2197 49.4071 78.4387C47.6223 80.6348 41.9529 83.8329 34.9959 80.7887C28.844 78.0968 26.5354 72.0796 26.8506 68.8534C26.9039 68.3236 26.2764 67.6932 26.4644 67.341C26.5517 67.1782 27.407 67.1886 27.5299 67.0243C29.4685 64.4182 35.7433 61.6671 42.0254 64.3812Z" fill="#F2C544"/>
<path d="M38.7252 64.769C43.5259 65.9736 46.8216 69.3167 46.0891 72.2335C45.3566 75.1519 40.871 76.54 36.0717 75.3339C31.271 74.1293 27.9753 70.7862 28.7078 67.8679C29.4404 64.951 33.9259 63.5629 38.7252 64.769Z" fill="#F6CB49"/>
<path d="M17.8425 75.1742C18.5943 78.7422 21.2019 81.6472 24.6678 82.7808C28.1337 83.9129 31.9547 83.1079 34.6689 80.672C37.383 78.2376 38.595 74.5275 37.8432 70.958" fill="#F7D46D"/>
<path d="M17.8425 75.1742C18.5943 78.7422 21.2019 81.6472 24.6678 82.7808C28.1337 83.9129 31.9547 83.1079 34.6689 80.672C37.383 78.2376 38.595 74.5275 37.8432 70.958" stroke="#F6CB49" stroke-width="0.9" stroke-miterlimit="10"/>
<path d="M27.7607 73.5492L28.5051 82.0689C28.5051 82.0689 24.8868 82.8074 23.6629 80.6453L27.7607 73.5492Z" fill="#FAE194"/>
<path d="M28.147 73.3687L33.9304 78.9197C33.9304 78.9197 32.7613 81.9787 29.7527 81.403L28.147 73.3687Z" fill="#FAE194"/>
<path d="M27.5032 73.4338L22.9022 79.9054C22.9022 79.9054 19.3771 79.3978 19.6642 75.815L27.5032 73.4338Z" fill="#FAE194"/>
<path d="M28.7049 73.2118L36.8146 72.2159C36.8146 72.2159 37.7973 75.9185 34.8168 78.0481L28.7049 73.2118Z" fill="#FAE194"/>
<path d="M64.1393 60.5422L64.1379 60.5378C60.6142 61.4745 57.8483 64.2301 56.8982 67.7507C55.9482 71.2714 56.95 75.0436 59.525 77.6275C62.0941 80.2069 65.853 81.2251 69.3737 80.2972V80.3002C72.8958 79.3516 75.6514 76.5871 76.5896 73.062C77.5279 69.5384 76.5127 65.7692 73.9303 63.1942C71.3686 60.6399 67.6348 59.6321 64.1393 60.5422Z" fill="#F8D97B" stroke="#F6CB49" stroke-width="6" stroke-miterlimit="10"/>
<path d="M66.2778 70.3585L58.0881 71.7318C58.0881 71.7318 56.6274 68.8401 58.979 66.6351L66.2778 70.3585Z" fill="#FBE8AD"/>
<path d="M66.4791 70.7359L61.8411 77.4472C61.8411 77.4472 58.1207 75.7912 58.538 72.7559L66.4791 70.7359Z" fill="#FBE8AD"/>
<path d="M66.3799 70.0951L59.6775 65.8374C59.6775 65.8374 60.9931 62.3715 64.1245 62.3597L66.3799 70.0951Z" fill="#FBE8AD"/>
<path d="M66.664 71.2834L68.4665 78.6844C68.4665 78.6844 64.937 80.3951 62.4981 77.8186L66.664 71.2834Z" fill="#FBE8AD"/>
<path d="M67.2012 70.4872L75.6662 69.2707C75.6662 69.2707 76.6044 72.8417 74.5134 74.184L67.2012 70.4872Z" fill="#FBE8AD"/>
<path d="M66.9984 70.1113L72.221 64.0275C72.221 64.0275 75.3391 65.0264 74.9321 68.0632L66.9984 70.1113Z" fill="#FBE8AD"/>
<path d="M67.1006 70.7508L73.8178 74.9848C73.8178 74.9848 73.1652 78.9923 69.4048 78.5705L67.1006 70.7508Z" fill="#FBE8AD"/>
<path d="M66.812 69.5623L65.0672 62.2976C65.0672 62.2976 68.3837 59.9371 71.302 63.1929L66.812 69.5623Z" fill="#FBE8AD"/>
<circle cx="51.5" cy="51.5" r="48.5" stroke="#006242" stroke-width="6"/>
</svg>
